<svg width="260" height="200" viewBox="0 0 260 200" fill="none" xmlns="http://www.w3.org/2000/svg"><path d="M15.1263 200C5.1818 200 -2.03585 189.117 0.517299 178.019C3.8719 163.441 8.40884 153.286 28.568 141.546C46.0443 131.358 60.0539 116.428 68.8627 98.6027C81.317 73.4139 87.3678 50 110.768 50C145.395 50 145.577 80.6316 155.901 83.7467C166.225 86.8617 200.832 77.6107 208.562 104.917C222.852 155.393 242.033 131.06 256.919 169.93C257.849 172.381 258.65 174.876 259.319 177.406C262.318 188.631 255.037 200 244.862 200L15.1263 200Z" fill="#ECF3F9"></path><path d="M63.508 103.196C62.9772 104.345 62.4433 105.49 62.3278 105.744C61.8033 106.875 61.3256 107.901 61.1039 108.387C60.9697 108.676 60.8573 108.919 60.8542 108.926C60.8479 108.933 59.4086 108.975 56.327 109.057C55.9149 109.067 55.0188 109.092 54.332 109.113C53.6482 109.131 53.0862 109.145 53.08 109.138C53.0737 109.127 52.0091 107.094 51.1848 105.515C49.8673 102.992 49.093 101.515 49.0898 101.512C49.0867 101.508 48.7464 101.6 48.3374 101.716C47.766 101.875 47.5787 101.942 47.5444 101.994C47.5225 102.03 47.4882 102.054 47.4726 102.044C47.4569 102.03 47.4445 102.04 47.4445 102.061C47.4445 102.086 47.4226 102.097 47.3976 102.083C47.3727 102.072 47.3508 102.083 47.3508 102.107C47.3508 102.139 47.3446 102.139 47.3258 102.107C47.2915 102.044 47.2134 102.037 47.2103 102.097C47.2103 102.125 47.1947 102.15 47.1728 102.15C47.151 102.15 47.1166 102.171 47.0979 102.192C47.0417 102.255 47.0854 102.248 47.2009 102.181C47.2509 102.15 47.2852 102.143 47.2759 102.16C47.2665 102.178 47.1853 102.238 47.0948 102.291C47.0042 102.343 46.8856 102.428 46.8325 102.474C46.7482 102.544 46.7326 102.548 46.7139 102.502C46.7045 102.47 46.7076 102.453 46.7201 102.463C46.7357 102.474 46.7482 102.46 46.7482 102.435C46.7482 102.407 46.7232 102.396 46.692 102.403C46.6483 102.417 46.6421 102.403 46.6546 102.343C46.6639 102.301 46.6827 102.28 46.692 102.301C46.717 102.343 46.8575 102.382 46.8325 102.34C46.8231 102.322 46.8294 102.308 46.8481 102.308C46.8637 102.308 46.8825 102.326 46.8887 102.35C46.8981 102.382 46.9074 102.382 46.9262 102.35C46.9387 102.326 46.9324 102.308 46.9168 102.308C46.8981 102.308 46.8825 102.294 46.8825 102.276C46.8825 102.255 46.9106 102.248 46.9418 102.255C47.0105 102.269 47.0542 102.185 47.0011 102.146C46.9824 102.132 46.9761 102.135 46.9855 102.157C46.998 102.178 46.9855 102.202 46.9605 102.213C46.9324 102.227 46.9231 102.217 46.9355 102.181C46.9449 102.157 46.9355 102.132 46.9168 102.132C46.8981 102.132 46.8825 102.157 46.8825 102.185C46.8825 102.266 46.7513 102.315 46.7045 102.248C46.6733 102.206 46.667 102.209 46.6483 102.269C46.6389 102.312 46.6108 102.343 46.589 102.343C46.564 102.343 46.5234 102.379 46.4953 102.421C46.4703 102.467 46.4547 102.477 46.4641 102.446C46.4735 102.41 46.4641 102.375 46.4422 102.357C46.4204 102.343 46.411 102.347 46.4235 102.365C46.4329 102.382 46.3985 102.4 46.3486 102.4C46.2768 102.403 46.2643 102.396 46.2893 102.361C46.3174 102.322 46.3111 102.319 46.258 102.333C46.2237 102.343 46.1862 102.365 46.18 102.382C46.1706 102.396 46.1394 102.4 46.1082 102.389C46.0676 102.375 46.0676 102.382 46.1175 102.424C46.1706 102.474 46.1737 102.481 46.1269 102.484C46.0988 102.484 46.0645 102.467 46.0551 102.446C46.0395 102.421 46.0145 102.428 45.9802 102.463C45.9489 102.495 45.9115 102.509 45.8959 102.495C45.8803 102.477 45.8803 102.481 45.8927 102.502C45.9084 102.523 45.9365 102.537 45.9552 102.537C45.977 102.537 45.9958 102.569 46.002 102.608C46.0083 102.661 46.0051 102.664 45.9833 102.632C45.9614 102.594 45.9521 102.594 45.9365 102.639C45.924 102.671 45.9021 102.696 45.8834 102.696C45.8646 102.696 45.8584 102.678 45.8678 102.661C45.8771 102.639 45.8709 102.625 45.8553 102.625C45.8365 102.625 45.8209 102.646 45.8209 102.668C45.8209 102.699 45.8084 102.696 45.7897 102.661C45.7741 102.632 45.7585 102.625 45.7585 102.646C45.7585 102.668 45.6867 102.682 45.5868 102.682C45.4744 102.682 45.4275 102.671 45.4525 102.65C45.4806 102.629 45.4744 102.625 45.4369 102.639C45.4057 102.65 45.3713 102.661 45.362 102.661C45.3526 102.661 45.362 102.685 45.3838 102.713C45.4151 102.756 45.4151 102.766 45.3745 102.766C45.3464 102.766 45.3151 102.749 45.3058 102.731C45.2902 102.703 45.2714 102.706 45.2433 102.731C45.2184 102.756 45.1871 102.763 45.1715 102.756C45.159 102.745 45.1278 102.752 45.1028 102.77C45.0622 102.801 45.0622 102.805 45.1028 102.791C45.1715 102.77 45.2589 102.83 45.2558 102.9C45.2558 102.939 45.2496 102.946 45.2371 102.914C45.2246 102.879 45.2121 102.883 45.1809 102.932C45.1434 102.985 45.1278 102.988 45.0747 102.949C45.0341 102.925 45.0092 102.921 45.0092 102.942C45.0092 102.96 44.9967 102.978 44.9811 102.978C44.9655 102.978 44.9561 102.949 44.9623 102.914C44.9655 102.875 44.9904 102.858 45.0279 102.865C45.0685 102.875 45.0779 102.865 45.056 102.84C45.0373 102.819 44.9936 102.812 44.953 102.826C44.8999 102.84 44.8905 102.858 44.9155 102.89C44.9623 102.953 44.9093 102.985 44.8125 102.96C44.7563 102.942 44.7251 102.96 44.6845 103.034C44.6532 103.083 44.6439 103.115 44.6626 103.105C44.6845 103.087 44.6938 103.112 44.6907 103.168C44.6845 103.249 44.6751 103.256 44.5221 103.249C44.3816 103.242 44.366 103.235 44.4222 103.203C44.4659 103.179 44.4753 103.154 44.4503 103.14C44.4316 103.126 44.4253 103.098 44.4347 103.076C44.4472 103.052 44.4409 103.048 44.4222 103.062C44.4035 103.076 44.3941 103.108 44.4035 103.133C44.4128 103.161 44.391 103.193 44.3473 103.207C44.2442 103.246 44.0725 103.256 44.0913 103.221C44.11 103.186 44.0132 103.221 43.9601 103.263C43.9414 103.281 43.9164 103.288 43.9039 103.277C43.8946 103.267 43.8977 103.281 43.9164 103.302C43.9601 103.362 43.957 103.411 43.9102 103.379C43.8789 103.358 43.8789 103.365 43.9102 103.404C43.9664 103.475 43.9539 103.542 43.8821 103.542C43.8477 103.542 43.829 103.524 43.8384 103.506C43.8508 103.485 43.8758 103.482 43.8946 103.496C43.9164 103.51 43.9133 103.496 43.8883 103.46C43.8446 103.401 43.7728 103.376 43.804 103.432C43.8134 103.45 43.8009 103.482 43.7759 103.506C43.7384 103.542 43.7135 103.542 43.6573 103.51C43.6011 103.475 43.598 103.471 43.651 103.489C43.7135 103.506 43.7135 103.506 43.651 103.453C43.5948 103.404 43.5886 103.404 43.5667 103.471C43.5542 103.51 43.5261 103.542 43.5074 103.542C43.4824 103.542 43.4856 103.524 43.5137 103.482C43.5511 103.429 43.5511 103.425 43.5012 103.446C43.4699 103.46 43.4387 103.471 43.4356 103.471C43.4294 103.471 43.4294 103.545 43.4356 103.64L43.4481 103.806L43.2764 103.816C43.1702 103.823 43.1047 103.813 43.1047 103.792C43.1047 103.771 43.089 103.753 43.0703 103.753C43.0547 103.753 43.0453 103.767 43.0578 103.785C43.0672 103.806 43.0453 103.813 43.011 103.806C42.9766 103.799 42.9485 103.809 42.9485 103.827C42.9485 103.848 42.9329 103.852 42.9142 103.838C42.8705 103.809 42.9173 103.753 42.9985 103.735C43.0328 103.728 43.0641 103.721 43.0734 103.718C43.0828 103.714 43.1109 103.707 43.1359 103.704C43.1608 103.704 43.1796 103.679 43.1733 103.654C43.1702 103.633 43.1889 103.612 43.2139 103.612C43.2389 103.612 43.2608 103.637 43.2608 103.672C43.2608 103.728 43.3045 103.707 43.3107 103.644C43.3201 103.566 43.3263 103.563 43.3544 103.612C43.3763 103.654 43.3825 103.647 43.3763 103.584C43.3763 103.542 43.37 103.506 43.3669 103.506C43.3138 103.506 41.6778 104.313 41.0596 104.645C40.8036 104.782 40.5882 104.895 40.5851 104.898C40.5819 104.898 40.6288 105.272 40.6881 105.726C40.8942 107.291 41.1533 109.289 41.528 112.158C41.6216 112.894 41.709 113.532 41.7153 113.574C41.7278 113.641 41.325 114.001 38.6805 116.284C37.0008 117.733 35.6083 118.931 35.5896 118.952C35.5428 118.991 35.6271 119.029 34.0504 118.261C31.0312 116.792 28.4117 115.512 28.3836 115.502C28.3462 115.484 27.7717 116.235 27.2097 117.038C25.8047 119.036 24.6277 121.031 23.5474 123.255L23.2383 123.882L23.8784 124.611C24.2312 125.01 25.4644 126.43 26.6196 127.762L28.7208 130.19L27.625 134.369C27.0224 136.667 26.5166 138.559 26.501 138.577C26.4885 138.591 24.7744 139.038 22.6951 139.567C20.6126 140.096 18.9016 140.536 18.8923 140.547C18.8704 140.571 18.8236 141.163 18.7986 141.72C18.7861 141.935 18.7736 142.157 18.7643 142.217C18.7268 142.488 18.7143 145.621 18.7487 146.375C18.7799 147.08 18.8767 148.518 18.9235 149.001C19.0047 149.843 19.1046 150.678 19.1202 150.696C19.1327 150.706 19.7883 150.837 20.5782 150.985C21.3681 151.136 22.8075 151.408 23.7785 151.591C24.7494 151.778 25.8297 151.982 26.1794 152.049C26.5291 152.116 26.8194 152.176 26.8288 152.183C26.8351 152.193 27.4251 154.051 28.137 156.316C29.2516 159.862 29.4233 160.439 29.3859 160.485C29.364 160.517 28.1963 162.011 26.7976 163.812L24.2499 167.079L24.4154 167.389C25.8266 170.007 27.5532 172.551 29.4421 174.8L29.7574 175.173L33.2667 173.207C36.751 171.251 36.7791 171.237 36.8572 171.293C36.9009 171.329 37.3318 171.656 37.8126 172.03C38.2934 172.403 39.6297 173.432 40.7786 174.32C41.9307 175.208 42.9361 175.991 43.0204 176.061C43.1484 176.17 43.1671 176.202 43.1671 176.311C43.1671 176.452 43.0922 177.407 42.9361 179.324C42.8736 180.061 42.7612 181.449 42.6832 182.408C42.6051 183.366 42.5208 184.346 42.5021 184.582L42.4615 185.016L42.8861 185.209C44.5721 185.999 46.7139 186.785 48.556 187.292C49.1211 187.447 50.5791 187.792 51.035 187.877C51.113 187.891 51.1723 187.771 52.5273 184.825C53.3048 183.137 54.1196 181.368 54.3413 180.893L54.7441 180.029L58.2659 179.916C60.2047 179.857 61.9532 179.804 62.1499 179.804L62.5089 179.8L62.8523 180.445C63.0397 180.797 63.9357 182.496 64.8443 184.223C65.7497 185.946 66.5021 187.37 66.5146 187.38C66.5271 187.394 66.8112 187.324 67.1453 187.229C69.284 186.623 71.4102 185.805 73.3647 184.836C73.8111 184.614 74.9851 184.001 75.0069 183.98C75.01 183.972 74.8165 182.503 74.5792 180.713C74.0734 176.935 73.8486 175.215 73.8642 175.205C73.8892 175.184 79.609 170.204 79.8244 170.014L79.9993 169.859L80.9952 170.335C81.5447 170.596 83.1433 171.367 84.5514 172.047C85.9595 172.731 87.1334 173.298 87.1646 173.305C87.2833 173.344 88.9006 171.047 89.8965 169.422C90.6958 168.115 91.8354 165.993 92.2194 165.098L92.2881 164.933L91.6512 164.192C91.3015 163.787 90.0682 162.371 88.9099 161.049C87.0054 158.871 86.8087 158.639 86.8243 158.554C86.843 158.455 88.9661 150.223 88.9786 150.213C88.988 150.202 91.1953 149.631 92.3412 149.339C92.7564 149.233 94.28 148.846 96.1034 148.377C96.3781 148.306 96.6092 148.243 96.6154 148.239C96.6373 148.218 96.7091 146.911 96.7466 145.829C96.8152 143.736 96.7185 141.343 96.4749 139.186C96.4312 138.799 96.3875 138.408 96.3781 138.32C96.3688 138.228 96.35 138.133 96.3375 138.108C96.3219 138.08 95.7662 137.964 94.8483 137.791C91.7636 137.22 88.6102 136.628 88.6071 136.621C88.5665 136.561 86.0063 128.396 86.0157 128.364C86.025 128.336 87.1771 126.835 88.579 125.024C89.9777 123.212 91.1235 121.718 91.1235 121.704C91.1235 121.693 91.0236 121.496 90.8987 121.271C89.5094 118.737 87.8765 116.341 86.0594 114.173L85.6223 113.655L82.1379 115.629C80.2178 116.718 78.6286 117.599 78.6005 117.592C78.5631 117.581 75.5689 115.294 73.4677 113.673C73.3147 113.553 72.965 113.285 72.6965 113.077C72.122 112.64 72.1751 112.774 72.2501 111.89C72.275 111.59 72.3312 110.885 72.3749 110.325C72.4186 109.761 72.4624 109.222 72.4686 109.127C72.478 109.028 72.5061 108.672 72.531 108.334C72.5591 107.996 72.5872 107.636 72.5935 107.541C72.6029 107.443 72.6653 106.636 72.734 105.744C72.8027 104.852 72.8651 104.067 72.8745 103.996L72.8901 103.873L72.197 103.563C70.102 102.622 68.0476 101.917 65.9433 101.41C65.272 101.247 64.6288 101.11 64.5414 101.11C64.4852 101.11 64.3229 101.441 63.508 103.196ZM46.0395 102.484C46.0395 102.502 46.0239 102.52 46.0051 102.52C45.9895 102.52 45.9833 102.502 45.9927 102.484C46.002 102.463 46.0176 102.449 46.027 102.449C46.0332 102.449 46.0395 102.463 46.0395 102.484ZM46.6452 102.523C46.6389 102.537 46.6514 102.555 46.6702 102.562C46.7045 102.576 46.5952 102.671 46.539 102.678C46.5297 102.678 46.4766 102.731 46.4173 102.794C46.3579 102.854 46.3017 102.897 46.2955 102.89C46.2861 102.879 46.2612 102.9 46.2393 102.935C46.2018 102.992 46.1987 102.988 46.1956 102.921C46.1956 102.879 46.2174 102.826 46.2424 102.801C46.2674 102.777 46.2799 102.742 46.2674 102.724C46.2549 102.699 46.2861 102.692 46.3486 102.703C46.4173 102.713 46.4454 102.706 46.4454 102.671C46.4454 102.643 46.4579 102.629 46.4735 102.639C46.486 102.65 46.5234 102.629 46.5546 102.59C46.6171 102.513 46.5796 102.491 46.5078 102.562C46.4703 102.601 46.4703 102.597 46.5047 102.548C46.5422 102.491 46.6764 102.47 46.6452 102.523ZM46.1488 102.618C46.1207 102.625 46.1082 102.646 46.1175 102.664C46.1269 102.682 46.1144 102.685 46.0863 102.675C46.0426 102.653 46.0426 102.646 46.0894 102.587C46.1332 102.534 46.1488 102.527 46.1706 102.562C46.1831 102.59 46.1769 102.611 46.1488 102.618ZM46.2424 102.727C46.2518 102.745 46.2455 102.77 46.2268 102.784C46.2112 102.794 46.1956 102.78 46.1956 102.752C46.1956 102.689 46.2143 102.678 46.2424 102.727ZM45.2902 102.766C45.2902 102.784 45.2746 102.801 45.2558 102.801C45.2402 102.801 45.234 102.784 45.2433 102.766C45.2527 102.745 45.2683 102.731 45.2777 102.731C45.2839 102.731 45.2902 102.745 45.2902 102.766ZM45.3994 102.9C45.3713 102.907 45.3589 102.928 45.3682 102.946C45.3776 102.964 45.3651 102.967 45.337 102.957C45.2933 102.935 45.2933 102.928 45.3401 102.868C45.3838 102.816 45.3994 102.809 45.4213 102.844C45.4338 102.872 45.4275 102.893 45.3994 102.9ZM46.1019 103.066C46.0208 103.164 45.9614 103.164 45.9583 103.062C45.9521 102.992 45.9677 102.981 46.0582 102.985L46.1644 102.988L46.1019 103.066ZM45.6648 103.365C45.6804 103.365 45.7085 103.337 45.7241 103.302C45.746 103.263 45.7554 103.256 45.7585 103.291C45.7585 103.33 45.7679 103.33 45.8053 103.295C45.8334 103.27 45.8522 103.267 45.8522 103.288C45.8522 103.309 45.7772 103.394 45.6898 103.478C45.5993 103.559 45.5056 103.654 45.4837 103.682C45.4588 103.711 45.4494 103.714 45.4619 103.693C45.4744 103.665 45.465 103.654 45.4369 103.668C45.4119 103.679 45.3838 103.661 45.3713 103.63C45.362 103.594 45.3651 103.58 45.387 103.598C45.4057 103.608 45.4463 103.587 45.4806 103.545C45.5306 103.485 45.5337 103.468 45.4962 103.429C45.4588 103.39 45.4588 103.376 45.4994 103.323C45.5399 103.27 45.5524 103.27 45.593 103.312C45.618 103.341 45.6492 103.365 45.6648 103.365ZM45.3058 103.577C45.3183 103.598 45.3027 103.601 45.2714 103.587C45.2277 103.57 45.2215 103.577 45.2371 103.626C45.2496 103.661 45.2465 103.679 45.2277 103.665C45.1809 103.633 45.1903 103.542 45.2402 103.542C45.2652 103.542 45.2964 103.556 45.3058 103.577ZM45.3339 103.806C45.3495 103.852 45.0092 104.246 44.953 104.246C44.9342 104.246 44.9093 104.26 44.8999 104.282C44.8874 104.303 44.903 104.306 44.9342 104.292C44.978 104.275 44.9748 104.285 44.9249 104.341C44.8905 104.38 44.8468 104.444 44.8281 104.479C44.8094 104.514 44.7844 104.532 44.7719 104.518C44.7594 104.504 44.7813 104.451 44.825 104.398C44.8937 104.313 44.8937 104.306 44.8375 104.327C44.7875 104.349 44.7906 104.334 44.8593 104.267C44.9061 104.222 44.9342 104.172 44.9218 104.158C44.9093 104.144 44.9155 104.141 44.9342 104.148C44.9499 104.151 45.0123 104.098 45.0716 104.024C45.1465 103.926 45.1809 103.901 45.1996 103.936C45.2215 103.971 45.2277 103.968 45.2277 103.919C45.2277 103.887 45.2121 103.859 45.1903 103.859C45.1715 103.859 45.1653 103.848 45.1746 103.838C45.1871 103.823 45.2152 103.834 45.2402 103.855C45.2714 103.883 45.2902 103.887 45.3058 103.859C45.3151 103.841 45.312 103.823 45.2964 103.823C45.2777 103.823 45.2589 103.799 45.2496 103.774C45.2371 103.739 45.2465 103.728 45.2746 103.739C45.2964 103.749 45.3245 103.778 45.3339 103.806ZM45.0498 103.894C45.0622 103.894 45.0654 103.88 45.056 103.859C45.0466 103.838 45.0591 103.834 45.0841 103.845C45.1122 103.855 45.1341 103.88 45.1341 103.897C45.1341 103.954 45.0185 103.933 44.9748 103.866C44.9405 103.816 44.9405 103.813 44.978 103.848C45.0029 103.873 45.0341 103.894 45.0498 103.894ZM42.7643 103.89C42.7206 103.922 42.7425 104 42.7956 104C42.8143 104 42.8174 103.982 42.8049 103.957C42.7924 103.933 42.7956 103.929 42.8205 103.943C42.8393 103.957 42.8767 103.95 42.9017 103.929C42.9423 103.894 42.9485 103.901 42.9454 103.986C42.9454 104.074 42.9392 104.077 42.9173 104.017C42.8955 103.957 42.8892 103.954 42.8705 104.003C42.858 104.038 42.8268 104.056 42.7924 104.045C42.7612 104.035 42.7269 104.045 42.7175 104.067C42.705 104.088 42.68 104.105 42.6644 104.105C42.6457 104.105 42.6426 104.088 42.6519 104.07C42.6613 104.049 42.6551 104.035 42.6394 104.035C42.6207 104.035 42.6051 104.052 42.6051 104.077C42.6051 104.098 42.5957 104.105 42.5833 104.095C42.5739 104.081 42.5895 104.035 42.6238 103.996C42.6832 103.919 42.6832 103.919 42.6145 103.968C42.5739 103.996 42.5427 104.038 42.5427 104.06C42.5427 104.098 42.5302 104.098 42.4802 104.063C42.4178 104.017 42.4178 104 42.4865 103.986C42.5083 103.978 42.577 103.95 42.6363 103.919C42.7518 103.859 42.8361 103.841 42.7643 103.89ZM45.0404 104.003C45.0404 104.052 44.9873 104.038 44.9686 103.986C44.9561 103.95 44.9655 103.94 44.9967 103.954C45.0185 103.964 45.0404 103.986 45.0404 104.003ZM42.4178 104.095C42.4178 104.112 42.3834 104.126 42.3397 104.126C42.296 104.13 42.271 104.119 42.2804 104.102C42.2991 104.063 42.4178 104.06 42.4178 104.095ZM44.8312 104.155C44.8437 104.193 44.8343 104.201 44.8 104.186C44.7625 104.169 44.7532 104.179 44.7688 104.222C44.7813 104.26 44.775 104.271 44.7407 104.257C44.6845 104.232 44.6845 104.229 44.7469 104.162C44.8062 104.091 44.8094 104.091 44.8312 104.155ZM42.218 104.243C42.2055 104.264 42.1742 104.282 42.1461 104.282C42.1056 104.282 42.1024 104.289 42.1399 104.341C42.1805 104.398 42.1774 104.401 42.1305 104.356C42.0837 104.317 42.0743 104.317 42.0712 104.356C42.0712 104.391 42.065 104.394 42.0525 104.359C42.0462 104.338 42.0244 104.317 42.0088 104.317C41.99 104.317 41.9838 104.331 41.9932 104.345C41.9994 104.359 41.9526 104.373 41.8839 104.373L41.759 104.377L41.9089 104.292C41.99 104.246 42.0743 104.204 42.0962 104.197C42.118 104.193 42.1461 104.179 42.1586 104.165C42.1899 104.13 42.2429 104.197 42.218 104.243ZM42.3553 104.246C42.3553 104.264 42.3428 104.282 42.3241 104.282C42.3085 104.282 42.2929 104.264 42.2929 104.246C42.2929 104.225 42.3085 104.211 42.3241 104.211C42.3428 104.211 42.3553 104.225 42.3553 104.246ZM44.7594 104.44C44.7407 104.465 44.7375 104.514 44.75 104.546C44.7625 104.592 44.7594 104.602 44.7344 104.585C44.6938 104.556 44.6845 104.415 44.7157 104.377C44.7532 104.334 44.7937 104.391 44.7594 104.44ZM41.6778 104.5C41.6841 104.525 41.6685 104.567 41.6404 104.592C41.5966 104.63 41.5966 104.63 41.6466 104.613C41.6747 104.602 41.6997 104.609 41.6997 104.63C41.6997 104.676 41.5248 104.683 41.4999 104.637C41.4905 104.62 41.5123 104.599 41.5498 104.588C41.5873 104.574 41.6091 104.556 41.5998 104.546C41.5904 104.532 41.5498 104.539 41.5155 104.563C41.4593 104.595 41.4499 104.634 41.4499 104.849C41.4499 105.06 41.4437 105.096 41.4031 105.078C41.3625 105.064 41.3625 105.071 41.3875 105.127C41.4031 105.163 41.4062 105.201 41.3937 105.212C41.3781 105.222 41.3687 105.275 41.3718 105.328C41.3843 105.518 41.3875 105.536 41.4124 105.49C41.4249 105.469 41.4343 105.526 41.4374 105.614C41.4374 105.705 41.4343 105.758 41.428 105.733C41.4187 105.712 41.3999 105.698 41.3875 105.709C41.3718 105.719 41.3594 105.698 41.3625 105.666C41.3625 105.631 41.35 105.469 41.3313 105.304C41.2532 104.585 41.2532 104.606 41.3094 104.704C41.3594 104.793 41.3594 104.793 41.3438 104.711C41.3313 104.641 41.3375 104.637 41.3812 104.676C41.4218 104.715 41.428 104.715 41.4093 104.662C41.3937 104.613 41.4187 104.581 41.5061 104.532C41.6435 104.447 41.6591 104.444 41.6778 104.5ZM44.6345 104.715C44.6345 104.733 44.5752 104.828 44.5034 104.93C44.3535 105.138 44.3036 105.198 44.3317 105.141C44.341 105.12 44.3317 105.103 44.3067 105.103C44.2755 105.103 44.2723 105.12 44.2911 105.163C44.3285 105.24 44.2224 105.36 44.1599 105.318C44.1318 105.3 44.135 105.311 44.1662 105.356C44.1943 105.395 44.1974 105.413 44.1756 105.395C44.1475 105.378 44.135 105.395 44.135 105.441C44.135 105.483 44.1225 105.515 44.1069 105.515C44.0413 105.515 44.0475 105.444 44.1256 105.318C44.1756 105.233 44.2068 105.138 44.2037 105.064C44.2005 104.976 44.213 104.951 44.2567 104.951C44.288 104.951 44.3254 104.976 44.3348 105.007C44.3629 105.096 44.4753 104.923 44.4597 104.817C44.4503 104.771 44.4534 104.722 44.4628 104.704C44.4846 104.662 44.6345 104.673 44.6345 104.715ZM44.06 105.304C44.06 105.332 44.0444 105.392 44.0194 105.434C43.9913 105.49 43.9882 105.518 44.0163 105.536C44.0382 105.554 44.0413 105.547 44.0257 105.511C44.0007 105.469 44.007 105.469 44.0507 105.511C44.1069 105.561 44.0913 105.638 44.0351 105.6C44.0163 105.585 44.0101 105.589 44.0194 105.61C44.0319 105.631 44.0194 105.674 43.9976 105.709C43.9632 105.765 43.957 105.737 43.9508 105.501C43.9445 105.254 43.9508 105.229 44.0007 105.24C44.0319 105.247 44.0569 105.275 44.06 105.304ZM41.4499 105.339C41.4499 105.356 41.4437 105.374 41.4374 105.374C41.428 105.374 41.4124 105.356 41.4031 105.339C41.3937 105.318 41.3999 105.304 41.4156 105.304C41.4343 105.304 41.4499 105.318 41.4499 105.339ZM43.9133 105.864C43.8977 105.896 43.8508 105.984 43.8103 106.061C43.7697 106.139 43.7104 106.206 43.6791 106.209C43.6261 106.22 43.6261 106.216 43.6823 106.188C43.726 106.163 43.7322 106.153 43.6979 106.149C43.6729 106.142 43.6385 106.142 43.6261 106.146C43.6104 106.149 43.6104 106.132 43.6198 106.11C43.6323 106.089 43.6698 106.079 43.701 106.089C43.7478 106.103 43.7541 106.096 43.7291 106.044C43.6854 105.952 43.6916 105.924 43.7384 105.97C43.7634 105.991 43.7915 105.998 43.8009 105.984C43.8415 105.938 43.8227 105.878 43.7541 105.843C43.6916 105.807 43.6979 105.804 43.8134 105.804C43.9289 105.804 43.9414 105.814 43.9133 105.864ZM41.4374 105.955C41.4343 106.072 41.3875 106.072 41.3875 105.955C41.3875 105.906 41.3999 105.867 41.4156 105.867C41.4312 105.867 41.4405 105.906 41.4374 105.955ZM43.5574 106.114C43.548 106.132 43.5199 106.149 43.5012 106.149C43.4793 106.149 43.4824 106.135 43.5105 106.114C43.5699 106.072 43.5823 106.072 43.5574 106.114ZM41.4405 106.297C41.4312 106.322 41.4249 106.304 41.4249 106.255C41.4249 106.206 41.4312 106.188 41.4405 106.209C41.4468 106.234 41.4468 106.276 41.4405 106.297ZM43.5418 106.255C43.5418 106.273 43.5355 106.29 43.5293 106.29C43.5199 106.29 43.5043 106.273 43.4949 106.255C43.4856 106.234 43.4918 106.22 43.5074 106.22C43.5261 106.22 43.5418 106.234 43.5418 106.255ZM43.5605 106.347C43.4824 106.41 43.4481 106.41 43.4481 106.343C43.4481 106.315 43.4668 106.301 43.4918 106.311C43.5168 106.322 43.5449 106.311 43.5574 106.29C43.5699 106.269 43.5886 106.262 43.598 106.273C43.6104 106.287 43.5917 106.318 43.5605 106.347ZM43.5168 106.579C43.4918 106.614 43.4824 106.643 43.498 106.643C43.5137 106.643 43.498 106.667 43.4668 106.695C43.4325 106.724 43.4137 106.748 43.4262 106.748C43.4543 106.748 43.3575 106.97 43.317 106.999C43.3013 107.009 43.2857 107.041 43.2795 107.069C43.2514 107.249 43.1952 107.323 43.1515 107.242C43.139 107.221 43.1484 107.21 43.1733 107.213C43.2014 107.221 43.2139 107.185 43.2139 107.101C43.2139 107.016 43.2295 106.974 43.267 106.967C43.2951 106.96 43.3232 106.91 43.3294 106.854C43.3388 106.777 43.3326 106.759 43.3076 106.784C43.2795 106.808 43.2545 106.801 43.2264 106.759C43.1858 106.699 43.1858 106.699 43.242 106.748C43.2982 106.798 43.3013 106.794 43.2857 106.745C43.2701 106.699 43.2795 106.688 43.3294 106.706C43.3732 106.717 43.3888 106.71 43.3732 106.685C43.3575 106.657 43.3669 106.65 43.3981 106.664C43.4356 106.681 43.4481 106.66 43.4481 106.586C43.4481 106.505 43.4543 106.495 43.4793 106.537C43.5043 106.583 43.5105 106.579 43.5105 106.526C43.5105 106.495 43.4918 106.466 43.4731 106.466C43.445 106.466 43.4481 106.456 43.4793 106.431C43.548 106.382 43.5792 106.502 43.5168 106.579ZM43.6354 106.41C43.6354 106.421 43.6229 106.438 43.6042 106.449C43.5886 106.459 43.573 106.452 43.573 106.435C43.573 106.414 43.5886 106.396 43.6042 106.396C43.6229 106.396 43.6354 106.403 43.6354 106.41ZM41.528 106.784C41.5155 106.875 41.5186 106.925 41.5404 106.925C41.5592 106.925 41.5717 106.896 41.5685 106.861C41.5592 106.738 41.5748 106.643 41.606 106.643C41.6247 106.643 41.6372 106.674 41.6372 106.713C41.6372 106.752 41.6528 106.784 41.6685 106.784C41.7028 106.784 41.709 106.921 41.6809 107.009C41.6716 107.041 41.6497 107.065 41.6372 107.065C41.606 107.065 41.6123 106.995 41.6497 106.932C41.6653 106.903 41.6622 106.868 41.6404 106.843C41.606 106.805 41.6029 106.808 41.5904 107.03C41.5873 107.122 41.6279 107.217 41.6653 107.192C41.6747 107.185 41.6841 107.256 41.6872 107.351C41.6872 107.46 41.6747 107.52 41.656 107.513C41.6372 107.506 41.6216 107.428 41.6216 107.344C41.6216 107.221 41.6123 107.192 41.5717 107.199C41.5311 107.206 41.5186 107.164 41.503 107.002C41.4905 106.889 41.4905 106.762 41.503 106.72C41.5311 106.59 41.5498 106.632 41.528 106.784ZM43.2451 106.851C43.2545 106.868 43.2514 106.893 43.2358 106.903C43.2202 106.914 43.2077 106.9 43.2077 106.872C43.2077 106.812 43.217 106.805 43.2451 106.851ZM43.0422 107.249C43.0422 107.27 43.0516 107.277 43.0609 107.266C43.0734 107.256 43.1078 107.259 43.1421 107.28C43.2014 107.316 43.2014 107.319 43.1452 107.372C43.114 107.4 43.1047 107.414 43.1265 107.4C43.1546 107.386 43.1577 107.404 43.1327 107.488C43.114 107.545 43.0859 107.584 43.0672 107.573C43.0516 107.562 43.0391 107.573 43.0453 107.598C43.0547 107.693 43.0422 107.739 43.0079 107.714C42.9891 107.703 42.9798 107.661 42.9891 107.626C42.9985 107.587 42.9923 107.559 42.9766 107.559C42.961 107.559 42.9485 107.517 42.9485 107.46C42.9485 107.39 42.9579 107.379 42.9766 107.418C42.9954 107.446 43.0016 107.478 42.9923 107.492C42.986 107.506 42.9923 107.527 43.011 107.541C43.0578 107.573 43.0828 107.4 43.0422 107.316C43.0235 107.273 42.9923 107.252 42.9735 107.263C42.9517 107.277 42.9485 107.273 42.961 107.249C42.9891 107.196 43.0422 107.196 43.0422 107.249ZM41.5873 107.418C41.5966 107.52 41.5904 107.555 41.5717 107.52C41.5436 107.471 41.5311 107.217 41.5592 107.249C41.5685 107.256 41.581 107.333 41.5873 107.418ZM43.0266 107.351C43.0609 107.407 43.0297 107.418 42.986 107.361C42.9642 107.333 42.961 107.312 42.9766 107.312C42.9923 107.312 43.0172 107.33 43.0266 107.351ZM41.6653 107.869C41.6497 107.876 41.6372 107.925 41.6372 107.975C41.6372 108.035 41.6466 108.052 41.6622 108.028C41.6778 108.003 41.6872 108.066 41.6872 108.172C41.6841 108.45 41.631 108.313 41.6247 108.013C41.6247 107.883 41.6123 107.784 41.6029 107.791C41.5935 107.798 41.5842 107.753 41.5842 107.689L41.581 107.576L41.6372 107.717C41.6653 107.795 41.6778 107.862 41.6653 107.869ZM42.7612 107.784C42.7612 107.795 42.7487 107.813 42.73 107.823C42.7144 107.834 42.6988 107.827 42.6988 107.809C42.6988 107.788 42.7144 107.77 42.73 107.77C42.7487 107.77 42.7612 107.777 42.7612 107.784ZM42.9798 107.82C42.9798 107.887 42.9267 107.922 42.9017 107.876C42.8923 107.858 42.9017 107.841 42.9236 107.841C42.9517 107.841 42.9517 107.83 42.9173 107.806C42.8767 107.777 42.8799 107.77 42.9267 107.77C42.9548 107.77 42.9798 107.791 42.9798 107.82ZM42.7924 107.925C42.7924 107.999 42.858 108.035 42.8892 107.978C42.908 107.943 42.9142 107.954 42.908 108.006C42.9048 108.07 42.8892 108.08 42.8268 108.063C42.7737 108.049 42.7581 108.056 42.7737 108.084C42.7862 108.105 42.8205 108.123 42.8486 108.126C42.883 108.126 42.8861 108.133 42.8611 108.147C42.8424 108.154 42.8299 108.179 42.8393 108.193C42.8486 108.211 42.8424 108.232 42.8237 108.246C42.808 108.257 42.7924 108.25 42.7924 108.232C42.7924 108.211 42.7768 108.193 42.7581 108.193C42.7425 108.193 42.7362 108.207 42.7456 108.228C42.7799 108.292 42.7893 108.415 42.7643 108.468C42.7456 108.503 42.7331 108.507 42.7175 108.479C42.705 108.457 42.7081 108.44 42.7206 108.44C42.7362 108.44 42.7487 108.408 42.7487 108.369C42.7487 108.331 42.7362 108.299 42.7206 108.299C42.7081 108.299 42.705 108.232 42.7144 108.147C42.7269 108.066 42.7362 107.971 42.7394 107.936C42.7456 107.865 42.7924 107.855 42.7924 107.925ZM41.6903 108.641C41.6809 108.676 41.6747 108.648 41.6747 108.581C41.6747 108.514 41.6809 108.486 41.6903 108.517C41.6966 108.553 41.6966 108.609 41.6903 108.641ZM42.6457 108.648C42.6582 108.651 42.6675 108.683 42.6675 108.725C42.6675 108.768 42.6551 108.785 42.6332 108.771C42.6113 108.757 42.6051 108.771 42.6176 108.82C42.6301 108.863 42.6207 108.898 42.5957 108.909C42.5489 108.926 42.5489 108.845 42.5895 108.704C42.602 108.655 42.5957 108.662 42.5614 108.722C42.499 108.838 42.499 108.923 42.5676 108.965C42.5989 108.986 42.6051 109.004 42.5801 109.004C42.5583 109.004 42.5458 109.018 42.5551 109.035C42.5676 109.053 42.5583 109.113 42.5395 109.169C42.5177 109.222 42.499 109.303 42.4927 109.349C42.4896 109.395 42.4709 109.451 42.4552 109.472C42.4396 109.497 42.4084 109.606 42.3866 109.716C42.3647 109.832 42.3272 109.92 42.3054 109.92C42.2835 109.92 42.2742 109.892 42.2835 109.853C42.2929 109.818 42.2835 109.775 42.2648 109.765C42.2429 109.747 42.2398 109.761 42.2523 109.804C42.2617 109.839 42.2585 109.856 42.2429 109.839C42.2273 109.821 42.2148 109.761 42.2117 109.698L42.2055 109.589L42.2648 109.677C42.3147 109.747 42.3272 109.754 42.3553 109.708C42.4022 109.627 42.3928 109.603 42.3241 109.603C42.2898 109.603 42.2523 109.578 42.2398 109.55C42.2117 109.462 42.2617 109.437 42.3147 109.515C42.3553 109.571 42.3616 109.575 42.346 109.522C42.3304 109.479 42.3428 109.462 42.3866 109.462C42.4521 109.462 42.4584 109.434 42.4552 109.205C42.4552 109.12 42.4646 109.081 42.4865 109.095C42.5114 109.113 42.5146 109.092 42.499 109.035C42.449 108.827 42.4428 108.757 42.4771 108.757C42.5052 108.757 42.5052 108.739 42.4802 108.687C42.449 108.62 42.4521 108.616 42.5333 108.63C42.5801 108.637 42.6301 108.648 42.6457 108.648ZM41.8652 108.923C41.8745 108.94 41.8402 108.951 41.7902 108.951C41.7403 108.951 41.6997 108.94 41.6997 108.923C41.6997 108.909 41.734 108.898 41.7746 108.898C41.8183 108.898 41.8589 108.909 41.8652 108.923ZM41.8246 108.983C41.8246 108.99 41.8027 109.007 41.7746 109.018C41.7496 109.028 41.7371 109.025 41.7465 109.004C41.7652 108.968 41.8246 108.954 41.8246 108.983ZM41.8558 109.222C41.8558 109.398 41.8808 109.388 41.8933 109.205C41.9057 109 41.937 109.053 41.9432 109.286C41.9463 109.402 41.937 109.497 41.9245 109.497C41.912 109.497 41.8995 109.529 41.8964 109.567C41.8933 109.606 41.9026 109.631 41.9182 109.62C41.9307 109.61 41.9401 109.631 41.9338 109.663C41.9276 109.698 41.9214 109.74 41.9214 109.754C41.9182 109.772 41.9057 109.772 41.887 109.761C41.8339 109.726 41.8527 109.786 41.912 109.839C41.9401 109.867 41.9463 109.881 41.9276 109.867C41.9057 109.856 41.887 109.86 41.887 109.874C41.887 109.892 41.9057 109.927 41.9276 109.952C41.9588 109.99 41.9588 109.997 41.9276 109.976C41.9057 109.962 41.887 109.962 41.8839 109.98C41.8839 109.994 41.8776 110.04 41.8714 110.075C41.8652 110.114 41.8745 110.17 41.8901 110.198C41.9151 110.244 41.9182 110.241 41.9057 110.184C41.8964 110.145 41.9026 110.089 41.9182 110.061C41.9401 110.026 41.9494 110.089 41.9463 110.272C41.9432 110.417 41.9557 110.575 41.9744 110.625C41.9932 110.674 42.0088 110.688 42.0088 110.66C42.0119 110.625 42.0462 110.6 42.1087 110.596C42.1618 110.593 42.1961 110.6 42.1867 110.618C42.1774 110.635 42.1337 110.854 42.0899 111.1C42.0056 111.573 41.9838 111.657 41.9775 111.485C41.9744 111.375 41.9682 111.319 41.9338 111.097C41.9214 111.005 41.9245 110.942 41.9432 110.928C41.9651 110.914 41.9713 110.938 41.9619 110.995C41.9557 111.044 41.9588 111.111 41.9744 111.143C41.9994 111.192 42.0056 111.189 42.0213 111.139C42.0337 111.104 42.0306 111.086 42.0119 111.1C41.9932 111.111 41.9807 111.104 41.9807 111.086C41.9807 111.065 41.9963 111.048 42.0181 111.048C42.0462 111.048 42.0462 111.037 42.0213 111.009C41.9775 110.959 42.0056 110.861 42.0525 110.896C42.0712 110.907 42.0743 110.9 42.0618 110.878C42.0494 110.854 42.0525 110.836 42.0681 110.836C42.0837 110.836 42.1056 110.787 42.1118 110.73C42.1305 110.589 42.0962 110.596 42.0431 110.748C42.0181 110.815 41.99 110.871 41.9775 110.871C41.937 110.871 41.8808 110.769 41.8964 110.723C41.9089 110.695 41.9151 110.699 41.9151 110.737C41.9182 110.773 41.9338 110.801 41.9494 110.801C41.9963 110.801 41.9869 110.745 41.9307 110.681C41.8933 110.639 41.8933 110.625 41.9245 110.625C41.9557 110.625 41.9526 110.614 41.9182 110.589C41.8933 110.572 41.8839 110.554 41.8995 110.554C41.9151 110.554 41.912 110.533 41.8964 110.508C41.8776 110.487 41.862 110.441 41.862 110.413C41.8558 110.272 41.8246 109.952 41.7933 109.761C41.759 109.536 41.7528 109.296 41.7777 109.328C41.7871 109.338 41.7996 109.402 41.8027 109.472C41.809 109.543 41.8214 109.613 41.8339 109.627C41.8558 109.652 41.8308 109.173 41.8058 109.081C41.7996 109.057 41.809 109.046 41.8246 109.057C41.8433 109.067 41.8558 109.145 41.8558 109.222ZM41.7528 109.257C41.7434 109.282 41.7371 109.264 41.7371 109.215C41.7371 109.166 41.7434 109.148 41.7528 109.169C41.759 109.194 41.759 109.236 41.7528 109.257ZM42.2617 110.096C42.2773 110.107 42.2773 110.17 42.2648 110.237C42.2429 110.36 42.2429 110.36 42.2242 110.262C42.2148 110.205 42.2211 110.167 42.2398 110.167C42.2617 110.167 42.2617 110.152 42.2367 110.124C42.2148 110.1 42.2023 110.05 42.2023 110.008C42.2055 109.938 42.2055 109.938 42.2211 110.008C42.2304 110.047 42.2492 110.086 42.2617 110.096ZM59.0121 115.593C63.3363 115.858 67.392 117.267 71.0543 119.773C74.7041 122.275 77.8325 125.905 79.9743 130.13C82.9403 135.976 83.9925 142.872 82.9403 149.547C82.1817 154.371 80.2959 158.998 77.5577 162.762C76.7834 163.826 75.5314 165.292 74.6853 166.124C70.7264 170.025 66.0838 172.396 60.9947 173.119C59.777 173.295 59.2025 173.33 57.7476 173.33C55.9805 173.33 54.9064 173.231 53.2517 172.911C49.1023 172.104 45.1372 170.095 41.8308 167.124C40.4009 165.838 38.9241 164.185 37.7814 162.589C34.8059 158.424 32.9108 153.406 32.3207 148.12C32.1646 146.745 32.1334 146.097 32.1334 144.455C32.1334 142.813 32.1646 142.164 32.3207 140.79C32.967 134.989 35.14 129.601 38.6087 125.2C39.0739 124.608 39.9794 123.575 40.4852 123.061C44.6002 118.86 49.6768 116.316 55.1718 115.699C56.3988 115.562 57.8381 115.523 59.0121 115.593Z" fill="#91B3FA"></path><path d="M46.0078 103.07C46.0078 103.087 46.0236 103.094 46.0393 103.084C46.0582 103.073 46.0708 103.056 46.0708 103.045C46.0708 103.038 46.0582 103.031 46.0393 103.031C46.0236 103.031 46.0078 103.049 46.0078 103.07Z" fill="#91B3FA"></path><path d="M45.5246 103.385C45.5152 103.399 45.5277 103.438 45.5527 103.466C45.5902 103.505 45.5902 103.526 45.5621 103.565C45.5402 103.593 45.5683 103.575 45.6183 103.526C45.6713 103.477 45.7182 103.431 45.7275 103.424C45.7369 103.417 45.7182 103.42 45.6901 103.431C45.6588 103.445 45.6339 103.438 45.6339 103.424C45.6339 103.378 45.5464 103.346 45.5246 103.385Z" fill="#91B3FA"></path><path d="M45.1233 104.039C45.0515 104.12 45.0609 104.145 45.1358 104.071C45.1701 104.035 45.1982 104 45.1982 103.993C45.1982 103.968 45.1701 103.986 45.1233 104.039Z" fill="#91B3FA"></path><path d="M42.047 104.262C42.0218 104.28 42.0186 104.302 42.0375 104.316C42.0533 104.326 42.0753 104.312 42.0879 104.284C42.1068 104.223 42.1068 104.22 42.047 104.262Z" fill="#91B3FA"></path><path d="M41.3794 104.97C41.37 105.009 41.3763 105.041 41.3919 105.041C41.4075 105.041 41.42 105.009 41.42 104.97C41.42 104.931 41.4137 104.899 41.4075 104.899C41.4013 104.899 41.3888 104.931 41.3794 104.97Z" fill="#91B3FA"></path><path d="M44.5174 104.755C44.4828 104.779 44.4828 104.787 44.5237 104.804C44.5552 104.819 44.5741 104.808 44.5741 104.776C44.5741 104.715 44.571 104.715 44.5174 104.755Z" fill="#91B3FA"></path><path d="M56.328 118.471C51.5542 118.805 46.9802 120.789 43.3086 124.12C42.3813 124.958 41.1356 126.297 40.4018 127.242C35.1098 134.043 33.3145 143.41 35.6437 152.065C36.3961 154.866 37.6169 157.597 39.153 159.937C43.2586 166.175 49.3937 169.952 56.2812 170.481C56.9524 170.534 58.5603 170.534 59.216 170.484C63.7931 170.125 68.0049 168.37 71.5954 165.318C75.5793 161.932 78.4704 157.227 79.8691 151.857C81.3397 146.201 81.0868 140.224 79.1417 134.748C78.3299 132.454 77.1403 130.16 75.751 128.211C75.0079 127.164 73.8215 125.755 72.9847 124.93C69.082 121.061 64.2552 118.83 58.9975 118.467C58.4074 118.428 56.9275 118.428 56.328 118.471ZM58.4667 124.74C62.4287 124.955 66.013 126.53 69.0196 129.384C69.5348 129.874 70.6993 131.196 71.1239 131.77C73.5811 135.111 74.9392 138.934 75.2046 143.258C75.2483 143.991 75.2233 145.651 75.1546 146.377C74.9267 148.861 74.346 151.134 73.3937 153.284C72.7787 154.676 72.0419 155.941 71.1302 157.178C70.7118 157.742 69.5441 159.06 69.0196 159.557C66.1004 162.326 62.5817 163.923 58.7945 164.198C57.9859 164.258 56.634 164.219 55.8285 164.117C51.2826 163.532 47.2331 161.086 44.3139 157.16C41.9411 153.968 40.5236 149.961 40.2676 145.725C40.2332 145.14 40.2489 143.343 40.2926 142.835C40.5392 140.048 41.1512 137.669 42.2065 135.382C44.0485 131.383 47.1488 128.133 50.833 126.333C52.7313 125.402 54.9074 124.835 56.8744 124.75C57.1585 124.74 57.3958 124.726 57.402 124.719C57.4239 124.698 57.7923 124.705 58.4667 124.74Z" fill="#91B3FA"></path><path d="M47.4693 101.999C47.4914 102.009 47.5197 102.006 47.5291 101.995C47.5417 101.985 47.5228 101.974 47.4882 101.978C47.4536 101.978 47.4441 101.988 47.4693 101.999Z" fill="#91B3FA"></path><path d="M47.3463 102.036C47.3683 102.046 47.3966 102.043 47.4061 102.032C47.4187 102.022 47.3998 102.011 47.3652 102.015C47.3305 102.015 47.3211 102.025 47.3463 102.036Z" fill="#91B3FA"></path><path d="M46.586 102.258C46.5734 102.28 46.5703 102.301 46.5797 102.312C46.586 102.323 46.6018 102.305 46.6112 102.273C46.6332 102.212 46.6143 102.202 46.586 102.258Z" fill="#91B3FA"></path><path d="M46.4602 102.325C46.4728 102.346 46.4948 102.353 46.5105 102.342C46.5546 102.311 46.5452 102.29 46.4885 102.29C46.4633 102.29 46.4507 102.307 46.4602 102.325Z" fill="#91B3FA"></path><path d="M45.7434 102.572C45.7529 102.59 45.7781 102.608 45.7938 102.608C45.8127 102.608 45.8159 102.59 45.8064 102.572C45.797 102.551 45.7718 102.537 45.756 102.537C45.7371 102.537 45.734 102.551 45.7434 102.572Z" fill="#91B3FA"></path><path d="M45.586 102.612C45.5734 102.633 45.5703 102.654 45.5797 102.665C45.586 102.676 45.6018 102.658 45.6112 102.626C45.6332 102.565 45.6143 102.555 45.586 102.612Z" fill="#91B3FA"></path><path d="M44.534 103.132C44.5215 103.174 44.5277 103.202 44.5434 103.188C44.559 103.178 44.5715 103.188 44.5715 103.21C44.5715 103.231 44.5871 103.238 44.6058 103.224C44.6277 103.21 44.6277 103.192 44.612 103.178C44.5933 103.167 44.5746 103.132 44.5652 103.104C44.5558 103.068 44.5465 103.076 44.534 103.132Z" fill="#91B3FA"></path><path d="M131.731 1.55127H93.4762C90.5467 1.55127 88.1719 4.23171 88.1719 7.53821V95.6408C88.1719 98.9473 90.5467 101.628 93.4762 101.628H131.731C134.661 101.628 137.036 98.9473 137.036 95.6408V7.53821C137.036 4.23171 134.661 1.55127 131.731 1.55127Z" fill="white"></path><path d="M131.732 103.182H93.4768C91.7058 103.179 90.0079 102.384 88.7556 100.971C87.5034 99.5572 86.7989 97.6409 86.7969 95.642V7.53954C86.7989 5.54064 87.5034 3.62428 88.7556 2.21085C90.0079 0.797418 91.7058 0.00232836 93.4768 0H131.732C133.503 0.00232836 135.201 0.797418 136.453 2.21085C137.706 3.62428 138.41 5.54064 138.412 7.53954V95.642C138.41 97.6409 137.705 99.5574 136.453 100.971C135.201 102.384 133.503 103.179 131.732 103.182ZM93.4768 3.10485C92.4353 3.10634 91.4368 3.57397 90.7004 4.40518C89.964 5.23639 89.5497 6.36332 89.5483 7.53883V95.642C89.5496 96.8175 89.9639 97.9445 90.7004 98.7757C91.4368 99.6069 92.4353 100.075 93.4768 100.076H131.732C132.774 100.075 133.772 99.6069 134.509 98.7757C135.245 97.9445 135.659 96.8175 135.661 95.642V7.53954C135.659 6.36403 135.245 5.23709 134.509 4.40588C133.772 3.57467 132.774 3.10704 131.732 3.10555L93.4768 3.10485Z" fill="#4F52FF"></path><path d="M104.229 1.55127H120.981V5.21987C120.981 5.58049 120.918 5.93758 120.796 6.27075C120.674 6.60392 120.494 6.90664 120.268 7.16164C120.043 7.41664 119.774 7.61891 119.479 7.75691C119.184 7.89492 118.868 7.96595 118.548 7.96595H106.661C106.016 7.96595 105.397 7.67663 104.941 7.16164C104.485 6.64665 104.229 5.94817 104.229 5.21987V1.55127H104.229Z" fill="#4F52FF"></path><path d="M111.242 67.2764H96.1504V74.5696H111.242V67.2764Z" fill="#FF837B"></path><path d="M129.058 67.2764H113.967V74.5696H129.058V67.2764Z" fill="#C1D8ED"></path><path d="M123.494 34.22C123.498 37.398 122.407 40.4532 120.451 42.7396C118.982 39.0358 116.019 36.5073 112.607 36.5073C109.191 36.5073 106.228 39.0393 104.759 42.7431C103.523 41.294 102.621 39.5247 102.132 37.5904C101.644 35.6562 101.583 33.6161 101.956 31.6492C102.328 29.6823 103.123 27.8486 104.27 26.3091C105.417 24.7696 106.881 23.5713 108.533 22.8194C110.186 22.0675 111.977 21.7849 113.75 21.9964C115.522 22.2079 117.221 22.9071 118.698 24.0326C120.175 25.1581 121.384 26.6755 122.221 28.4517C123.057 30.2279 123.494 32.2086 123.494 34.22Z" fill="#C1D8ED"></path><path d="M112.604 35.4848C114.985 35.4848 116.915 33.3063 116.915 30.6189C116.915 27.9315 114.985 25.7529 112.604 25.7529C110.223 25.7529 108.293 27.9315 108.293 30.6189C108.293 33.3063 110.223 35.4848 112.604 35.4848Z" fill="#DFE7FE"></path><path d="M120.45 42.7391C119.434 43.931 118.216 44.8794 116.868 45.5273C115.52 46.1752 114.07 46.5093 112.604 46.5097C111.139 46.51 109.689 46.1765 108.341 45.5292C106.992 44.8819 105.774 43.9341 104.758 42.7426C106.226 39.0388 109.19 36.5068 112.605 36.5068C116.018 36.5068 118.981 39.0353 120.45 42.7391Z" fill="#DFE7FE"></path><path d="M129.057 51.3735H96.1504V52.8575H129.057V51.3735Z" fill="#DFE7FE"></path><path d="M129.057 55.4106H96.1504V56.8946H129.057V55.4106Z" fill="#DFE7FE"></path><path d="M111.242 59.5869H96.1504V61.0709H111.242V59.5869Z" fill="#DFE7FE"></path><path d="M228.682 134.865L226.539 135.501L241.568 199.999L243.711 199.363L228.682 134.865Z" fill="#91B3FA"></path><path d="M202.046 134.989L193.084 199.487L195.273 199.875L204.235 135.377L202.046 134.989Z" fill="#91B3FA"></path><path d="M230.693 73.3128C230.693 73.3128 248.997 72.0082 248.997 90.0581C248.997 108.108 246.301 133.335 232.813 136.162C219.324 138.989 199.399 138.136 194.773 137.251C189.089 136.164 186.611 121.283 194.182 120.287C215.665 117.459 205.26 75.2702 230.693 73.3128Z" fill="#91B3FA"></path><path d="M234.808 47.2675C234.864 41.0699 232.694 37.2293 229.752 35.1206C226.848 33.0399 217.744 31.2288 214.292 38.7824C212.039 43.7108 212.929 45.4727 212.291 53.3673C211.653 61.2618 209.201 62.0896 206.714 71.6581C204.765 79.1637 215.688 83.1485 225.146 82.8042C234.604 82.4599 240.601 80.0949 241.15 73.3058C241.939 63.561 234.697 59.4132 234.808 47.2675Z" fill="#0F1011"></path><path d="M229.173 64.4059C229.173 64.4059 226.331 62.6674 227.04 53.8979L221.15 52.6021C221.15 52.6021 221.749 60.4774 218.744 62.9446L229.173 64.4059Z" fill="#FFCCC6"></path><g opacity="0.15"><path opacity="0.15" d="M219.967 61.3079L224.902 57.1263L221.054 57.043C220.93 58.5285 220.561 59.9749 219.967 61.3079Z" fill="#141226"></path></g><path d="M230.415 50.5228C229.985 53.1813 228.677 55.6893 226.589 56.5279C224.313 57.5207 221.856 57.8696 219.432 57.5442C212.978 56.8797 214.391 40.3175 217.483 37.1296C220.576 33.9418 229.559 36.0738 230.609 41.4704C231.153 44.2631 230.824 47.994 230.415 50.5228Z" fill="#FFCCC6"></path><path d="M221.199 48.3796C221.495 48.3796 221.734 48.109 221.734 47.7752C221.734 47.4415 221.495 47.1709 221.199 47.1709C220.904 47.1709 220.664 47.4415 220.664 47.7752C220.664 48.109 220.904 48.3796 221.199 48.3796Z" fill="#0F1011"></path><path d="M216.98 47.945C217.276 47.945 217.516 47.6744 217.516 47.3407C217.516 47.0069 217.276 46.7363 216.98 46.7363C216.685 46.7363 216.445 47.0069 216.445 47.3407C216.445 47.6744 216.685 47.945 216.98 47.945Z" fill="#0F1011"></path><path d="M216.066 46.0438C216.001 46.0409 215.94 46.0098 215.894 45.9569C215.849 45.904 215.824 45.8334 215.824 45.7599C215.824 45.6865 215.849 45.6159 215.894 45.563C215.94 45.5101 216.001 45.4789 216.066 45.4761L217.484 45.4707C217.549 45.4735 217.61 45.5046 217.655 45.5576C217.7 45.6105 217.726 45.6811 217.726 45.7545C217.726 45.828 217.7 45.8985 217.655 45.9515C217.61 46.0044 217.549 46.0355 217.484 46.0383L216.066 46.0438Z" fill="#0F1011"></path><path d="M222.365 46.6932C222.344 46.6932 222.324 46.6902 222.304 46.6845L220.909 46.2903C220.845 46.272 220.789 46.2254 220.755 46.1608C220.72 46.0961 220.71 46.0188 220.726 45.9456C220.742 45.8725 220.784 45.8097 220.841 45.7709C220.898 45.7322 220.967 45.7207 221.032 45.739L222.426 46.1335C222.486 46.1502 222.538 46.191 222.573 46.2482C222.607 46.3054 222.623 46.375 222.615 46.4439C222.608 46.5128 222.578 46.5762 222.532 46.6221C222.486 46.668 222.426 46.6933 222.365 46.6932Z" fill="#0F1011"></path><path d="M220.912 52.5284C220.912 52.5284 218.935 52.7432 217.555 52.1826C217.555 52.1826 217.555 53.6519 219.116 53.8125C220.677 53.9731 220.912 52.5284 220.912 52.5284Z" fill="white"></path><path d="M226.125 43.5838C225.682 49.8209 226.236 56.0971 227.758 62.1135C227.758 62.1135 232.338 53.402 233.101 46.1135C233.815 39.2802 229.381 35.1957 226.37 34.4034C214.929 31.391 214.135 40.8103 214.135 40.8103C214.873 44.0231 227.364 46.0168 227.364 46.0168" fill="#0F1011"></path><path d="M223.877 50.4077C223.822 51.0839 224.008 51.7569 224.393 52.2787C224.778 52.8005 225.33 53.1282 225.929 53.1899C226.529 53.2516 227.125 53.0421 227.587 52.6076C228.049 52.1731 228.34 51.549 228.395 50.8728C228.427 50.5369 228.399 50.1972 228.312 49.8737C228.226 49.5503 228.083 49.2498 227.891 48.9902C227.699 48.7305 227.464 48.5171 227.197 48.3626C226.931 48.208 226.64 48.1155 226.342 48.0906C224.725 48.0143 223.99 48.9992 223.877 50.4077Z" fill="#FFCCC6"></path><g opacity="0.15"><path opacity="0.15" d="M218.796 51.0985C218.84 51.0984 218.883 51.0806 218.916 51.0483C218.95 51.016 218.972 50.9712 218.979 50.9222C218.985 50.8731 218.976 50.823 218.953 50.7807C218.93 50.7385 218.894 50.7069 218.853 50.6917L217.767 50.3032L218.543 48.3976C218.562 48.3476 218.562 48.2914 218.545 48.2408C218.528 48.1902 218.494 48.1492 218.45 48.1265C218.406 48.1038 218.357 48.1013 218.311 48.1193C218.266 48.1374 218.229 48.1747 218.207 48.2233L217.343 50.3433C217.332 50.37 217.326 50.3991 217.326 50.4286C217.326 50.4581 217.331 50.4874 217.342 50.5144C217.352 50.5414 217.368 50.5656 217.387 50.5854C217.406 50.6052 217.429 50.6201 217.454 50.6292L218.738 51.0877C218.757 51.0948 218.777 51.0984 218.796 51.0985Z" fill="#141226"></path></g><path d="M177.831 89.3442C177.831 89.3442 168.676 86.8917 164.783 91.2249C164.684 91.3355 164.617 91.4771 164.591 91.6313C164.564 91.7856 164.58 91.9452 164.635 92.0895C164.69 92.2338 164.782 92.356 164.9 92.4401C165.017 92.5243 165.154 92.5665 165.294 92.5612C167.479 92.4729 170.454 92.6725 172.261 93.5899C171.629 93.9234 170.986 94.3502 171.13 94.632C171.529 95.4144 177.835 95.028 177.835 95.028L177.831 89.3442Z" fill="#FFCCC6"></path><path d="M200.06 187.345L192.328 188.018L193.025 198.213L200.757 197.54L200.06 187.345Z" fill="#FFCCC6"></path><path d="M183.2 199.753C183 199.752 182.803 199.707 182.62 199.62C182.436 199.533 182.269 199.406 182.129 199.246C181.989 199.087 181.878 198.897 181.802 198.689C181.727 198.481 181.689 198.258 181.689 198.034C181.689 197.992 181.689 197.95 181.694 197.909C181.717 197.583 181.821 197.272 181.995 197.012C182.169 196.751 182.405 196.552 182.676 196.438L191.702 193.025C191.877 192.96 192.063 192.938 192.246 192.961C192.429 192.984 192.605 193.051 192.763 193.159C194.004 194.131 195.488 194.627 196.998 194.576C198.174 194.481 199.303 194.016 200.255 193.232C200.339 193.155 200.441 193.106 200.548 193.091C200.656 193.077 200.765 193.097 200.862 193.149C200.96 193.201 201.043 193.284 201.101 193.387C201.158 193.491 201.189 193.61 201.189 193.733V198.714C201.189 199.01 201.085 199.294 200.899 199.504C200.714 199.713 200.462 199.831 200.2 199.831H200.196L183.2 199.753Z" fill="#91B3FA"></path><path d="M165.301 186.956L163.781 197.151L171.429 198.603L172.948 188.408L165.301 186.956Z" fill="#FFCCC6"></path><path d="M161.35 191.69L174.684 115.251C175.065 113.599 175.92 112.136 177.116 111.092C178.313 110.048 179.782 109.481 181.294 109.48H218.611V109.508H239.516V116.739C239.516 118.823 239.152 120.888 238.445 122.814C237.739 124.74 236.703 126.49 235.397 127.964C234.091 129.438 232.54 130.608 230.834 131.406C229.127 132.204 227.298 132.614 225.451 132.614H215.255V132.66H197.455L202.356 191.479L188.752 192.923L184.382 138.13L174.574 193.902L161.35 191.69Z" fill="#4F52FF"></path><path d="M195.204 100.357H208.618C207.827 105.165 206.821 107.186 207.859 109.875C209.406 113.889 239.81 115.557 240.216 108.496C240.475 104.002 236.966 100.076 236.966 91.3228C236.966 82.5696 244.105 71.3822 238.289 64.8174C236.605 62.9167 233.687 61.6829 230.135 61.6787C229.869 64.0171 217.287 64.0254 217.191 61.7329C216.711 61.7412 216.338 61.7537 216.105 61.7621C211.77 61.973 209.645 64.0821 208.712 67.2303L198.852 87.1505L177.182 88.7256L177.664 96.6268L195.205 96.1367L195.204 100.357ZM209.358 89.6556C209.363 90.2137 209.361 90.7464 209.358 91.2678H206.039L209.104 85.0739C209.243 86.642 209.344 88.1829 209.359 89.6556H209.358Z" fill="#2F3235"></path><path d="M217.189 61.7329C217.285 64.0254 218.393 67.3975 221.798 67.6475C226.344 67.9893 229.867 64.0171 230.133 61.6787H230.118C225.65 61.6787 219.8 61.687 217.189 61.7329Z" fill="#FFCCC6"></path><path d="M155.021 199.754C154.822 199.753 154.625 199.708 154.441 199.621C154.258 199.534 154.091 199.407 153.951 199.247C153.811 199.087 153.7 198.898 153.624 198.69C153.549 198.481 153.511 198.258 153.512 198.034C153.512 197.992 153.513 197.95 153.516 197.909C153.539 197.583 153.643 197.272 153.817 197.012C153.991 196.751 154.227 196.552 154.498 196.438L163.524 193.025C163.699 192.96 163.885 192.938 164.068 192.961C164.251 192.984 164.427 193.051 164.585 193.159C165.826 194.13 167.31 194.627 168.82 194.576C169.996 194.481 171.125 194.016 172.078 193.232C172.161 193.155 172.263 193.106 172.37 193.091C172.478 193.076 172.587 193.096 172.685 193.149C172.782 193.201 172.865 193.284 172.923 193.387C172.98 193.491 173.011 193.61 173.011 193.732V198.714C173.011 199.01 172.907 199.294 172.721 199.504C172.536 199.713 172.284 199.831 172.022 199.831H172.018L155.021 199.754Z" fill="#91B3FA"></path><path d="M195.206 94.394C195.206 94.394 186.051 91.9415 182.158 96.2747C182.059 96.3853 181.992 96.5269 181.966 96.6812C181.939 96.8354 181.955 96.995 182.01 97.1393C182.065 97.2836 182.157 97.4058 182.275 97.4899C182.392 97.5741 182.529 97.6163 182.669 97.611C184.854 97.5223 187.829 97.7223 189.636 98.6397C189.004 98.9732 188.361 99.4 188.505 99.6818C188.904 100.464 195.21 100.078 195.21 100.078L195.206 94.394Z" fill="#FFCCC6"></path><path d="M181.185 76.2922L185.669 97.5382C185.791 98.1186 185.704 98.7299 185.427 99.2379C185.15 99.7459 184.705 100.109 184.191 100.248C184.041 100.288 183.886 100.309 183.731 100.309H157.294C156.857 100.309 156.433 100.147 156.085 99.8479C155.738 99.5491 155.487 99.1298 155.371 98.6545L150.206 77.4076C150.125 77.0736 150.113 76.723 150.171 76.3831C150.23 76.0431 150.357 75.723 150.543 75.4476C150.729 75.1723 150.969 74.949 151.244 74.7953C151.519 74.6417 151.821 74.5616 152.128 74.5615H179.246C179.695 74.562 180.13 74.733 180.482 75.047C180.833 75.361 181.081 75.7997 181.185 76.2922Z" fill="#FF837B"></path><path d="M195.079 100.308H163.128C162.818 100.308 162.52 100.169 162.3 99.9211C162.08 99.6732 161.957 99.3369 161.957 98.9862C161.957 98.6356 162.08 98.2993 162.3 98.0513C162.52 97.8034 162.818 97.6641 163.128 97.6641H195.079C195.39 97.6641 195.688 97.8034 195.908 98.0513C196.127 98.2993 196.251 98.6356 196.251 98.9862C196.251 99.3369 196.127 99.6732 195.908 99.9211C195.688 100.169 195.39 100.308 195.079 100.308Z" fill="#FF837B"></path><path d="M166.853 90.7509C168.58 90.7509 169.979 89.171 169.979 87.2221C169.979 85.2733 168.58 83.6934 166.853 83.6934C165.126 83.6934 163.727 85.2733 163.727 87.2221C163.727 89.171 165.126 90.7509 166.853 90.7509Z" fill="white"></path><path d="M78.1227 14.8691H50.0008C47.8473 14.8691 46.1016 16.8396 46.1016 19.2702V84.0356C46.1016 86.4662 47.8473 88.4367 50.0008 88.4367H78.1227C80.2762 88.4367 82.022 86.4662 82.022 84.0356V19.2702C82.022 16.8396 80.2762 14.8691 78.1227 14.8691Z" fill="white"></path><path d="M78.1221 89.5786H50.0003C48.6984 89.5769 47.4503 88.9924 46.5298 87.9534C45.6092 86.9143 45.0914 85.5056 45.0898 84.0362V19.2709C45.0914 17.8015 45.6092 16.3928 46.5298 15.3537C47.4503 14.3147 48.6984 13.7302 50.0003 13.7285H78.1223C79.4242 13.7302 80.6723 14.3147 81.5929 15.3537C82.5135 16.3928 83.0313 17.8015 83.0328 19.2709V84.0362C83.0313 85.5056 82.5134 86.9144 81.5928 87.9535C80.6722 88.9925 79.424 89.577 78.1221 89.5786ZM50.0003 16.0109C49.2347 16.012 48.5007 16.3558 47.9594 16.9668C47.418 17.5779 47.1134 18.4063 47.1125 19.2704V84.0362C47.1134 84.9003 47.418 85.7288 47.9593 86.3398C48.5007 86.9509 49.2347 87.2946 50.0003 87.2957H78.1223C78.888 87.2946 79.6219 86.9509 80.1633 86.3398C80.7047 85.7288 81.0092 84.9003 81.0102 84.0362V19.2709C81.0092 18.4068 80.7046 17.5784 80.1633 16.9673C79.6219 16.3563 78.8879 16.0125 78.1223 16.0114L50.0003 16.0109Z" fill="#91B3FA"></path><path d="M57.9044 14.8687H70.2193V17.5655C70.2193 17.8306 70.1731 18.0931 70.0832 18.338C69.9933 18.5829 69.8616 18.8055 69.6955 18.9929C69.5294 19.1804 69.3322 19.3291 69.1152 19.4305C68.8982 19.532 68.6657 19.5842 68.4308 19.5842H59.6928C59.2185 19.5842 58.7635 19.3715 58.4281 18.9929C58.0927 18.6143 57.9043 18.1009 57.9043 17.5655V14.8687H57.9044Z" fill="#91B3FA"></path><path d="M63.0608 63.1855H51.9668V68.5469H63.0608V63.1855Z" fill="#FCDAD9"></path><path d="M76.1565 63.1855H65.0625V68.5469H76.1565V63.1855Z" fill="#C1D8ED"></path><path d="M72.0667 38.884C72.0697 41.2202 71.2675 43.4661 69.8298 45.1468C68.7503 42.4241 66.5718 40.5654 64.0633 40.5654C61.5525 40.5654 59.374 42.4267 58.2945 45.1494C57.386 44.0842 56.723 42.7835 56.3637 41.3616C56.0043 39.9398 55.9597 38.4401 56.2336 36.9941C56.5075 35.5482 57.0916 34.2003 57.9347 33.0686C58.7778 31.9369 59.8541 31.056 61.0691 30.5033C62.2841 29.9505 63.6008 29.7428 64.9035 29.8982C66.2063 30.0537 67.4553 30.5677 68.541 31.3951C69.6267 32.2225 70.516 33.3379 71.1307 34.6436C71.7454 35.9493 72.0668 37.4054 72.0667 38.884Z" fill="#C1D8ED"></path><path d="M64.0617 39.8157C65.812 39.8157 67.2309 38.2142 67.2309 36.2386C67.2309 34.2631 65.812 32.6616 64.0617 32.6616C62.3115 32.6616 60.8926 34.2631 60.8926 36.2386C60.8926 38.2142 62.3115 39.8157 64.0617 39.8157Z" fill="#DFE7FE"></path><path d="M69.8302 45.1483C69.0836 46.0245 68.188 46.7217 67.1971 47.198C66.2061 47.6742 65.1401 47.9199 64.0631 47.9201C62.986 47.9203 61.9199 47.6752 60.9288 47.1994C59.9377 46.7235 59.0418 46.0268 58.2949 45.1509C59.3744 42.4282 61.5529 40.5669 64.0637 40.5669C66.5722 40.5669 68.7507 42.4256 69.8302 45.1483Z" fill="#DFE7FE"></path><path d="M76.1569 51.4951H51.9668V52.586H76.1569V51.4951Z" fill="#DFE7FE"></path><path d="M76.1569 54.4629H51.9668V55.5538H76.1569V54.4629Z" fill="#DFE7FE"></path><path d="M63.0608 57.5352H51.9668V58.626H63.0608V57.5352Z" fill="#DFE7FE"></path><path d="M55.6215 70.7681L56.0513 72.2612H57.4423L56.317 73.184L56.7468 74.6771L55.6215 73.7543L54.4962 74.6771L54.926 73.184L53.8007 72.2612H55.1917L55.6215 70.7681Z" fill="#BDD0FB"></path><path d="M101.806 77.2515L102.29 78.9312H103.855L102.589 79.9694L103.072 81.6491L101.806 80.611L100.54 81.6491L101.024 79.9694L99.7578 78.9312H101.323L101.806 77.2515Z" fill="#96B7FB"></path><path d="M60.4067 70.7681L60.8365 72.2612H62.2275L61.1022 73.184L61.532 74.6771L60.4067 73.7543L59.2814 74.6771L59.7112 73.184L58.5859 72.2612H59.9768L60.4067 70.7681Z" fill="#BDD0FB"></path><path d="M107.193 77.2515L107.676 78.9312H109.241L107.975 79.9694L108.459 81.6491L107.193 80.611L105.927 81.6491L106.41 79.9694L105.144 78.9312H106.709L107.193 77.2515Z" fill="#96B7FB"></path><path d="M64.7133 70.7681L65.1431 72.2612H66.5341L65.4088 73.184L65.8386 74.6771L64.7133 73.7543L63.588 74.6771L64.0178 73.184L62.8925 72.2612H64.2835L64.7133 70.7681Z" fill="#BDD0FB"></path><path d="M112.039 77.2515L112.522 78.9312H114.087L112.821 79.9694L113.305 81.6491L112.039 80.611L110.773 81.6491L111.256 79.9694L109.99 78.9312H111.555L112.039 77.2515Z" fill="#96B7FB"></path><path d="M69.0219 70.7681L69.4517 72.2612H70.8427L69.7174 73.184L70.1472 74.6771L69.0219 73.7543L67.8966 74.6771L68.3264 73.184L67.2011 72.2612H68.5921L69.0219 70.7681Z" fill="#BDD0FB"></path><path d="M116.884 77.2515L117.368 78.9312H118.933L117.667 79.9694L118.15 81.6491L116.884 80.611L115.618 81.6491L116.102 79.9694L114.836 78.9312H116.401L116.884 77.2515Z" fill="#96B7FB"></path><path d="M73.3286 70.7681L73.7584 72.2612H75.1493L74.024 73.184L74.4539 74.6771L73.3286 73.7543L72.2032 74.6771L72.6331 73.184L71.5078 72.2612H72.8987L73.3286 70.7681Z" fill="#BDD0FB"></path><path d="M121.73 77.2515L122.214 78.9312H123.778L122.512 79.9694L122.996 81.6491L121.73 80.611L120.464 81.6491L120.948 79.9694L119.682 78.9312H121.246L121.73 77.2515Z" fill="#96B7FB"></path><path d="M160.211 120.531C160.211 120.536 160.216 120.538 160.221 120.535C160.227 120.532 160.231 120.526 160.231 120.523C160.231 120.521 160.227 120.519 160.221 120.519C160.216 120.519 160.211 120.524 160.211 120.531Z" fill="#D5D6FF"></path><path d="M160.054 120.632C160.051 120.637 160.055 120.649 160.063 120.659C160.075 120.671 160.075 120.678 160.066 120.691C160.059 120.7 160.068 120.694 160.084 120.678C160.102 120.662 160.117 120.647 160.12 120.645C160.123 120.642 160.117 120.644 160.108 120.647C160.098 120.652 160.09 120.649 160.09 120.645C160.09 120.63 160.061 120.619 160.054 120.632Z" fill="#D5D6FF"></path><path d="M159.923 120.844C159.899 120.871 159.902 120.879 159.927 120.855C159.938 120.843 159.947 120.832 159.947 120.829C159.947 120.821 159.938 120.827 159.923 120.844Z" fill="#D5D6FF"></path><path d="M158.923 120.916C158.915 120.922 158.914 120.928 158.92 120.933C158.925 120.936 158.932 120.932 158.936 120.923C158.942 120.903 158.942 120.902 158.923 120.916Z" fill="#D5D6FF"></path><path d="M158.707 121.146C158.703 121.159 158.706 121.169 158.711 121.169C158.716 121.169 158.72 121.159 158.72 121.146C158.72 121.134 158.718 121.123 158.716 121.123C158.714 121.123 158.71 121.134 158.707 121.146Z" fill="#D5D6FF"></path><path d="M159.727 121.075C159.716 121.083 159.716 121.086 159.729 121.091C159.739 121.096 159.745 121.092 159.745 121.082C159.745 121.063 159.744 121.063 159.727 121.075Z" fill="#D5D6FF"></path><path d="M160.686 120.181C160.693 120.184 160.703 120.183 160.706 120.18C160.71 120.178 160.704 120.175 160.692 120.176C160.681 120.176 160.678 120.179 160.686 120.181Z" fill="#D5D6FF"></path><path d="M160.645 120.191C160.652 120.194 160.662 120.193 160.665 120.19C160.669 120.187 160.663 120.185 160.651 120.185C160.64 120.185 160.637 120.188 160.645 120.191Z" fill="#D5D6FF"></path><path d="M160.398 120.265C160.394 120.272 160.393 120.279 160.396 120.282C160.398 120.286 160.403 120.28 160.407 120.27C160.414 120.25 160.408 120.247 160.398 120.265Z" fill="#D5D6FF"></path><path d="M160.358 120.288C160.363 120.294 160.37 120.296 160.375 120.293C160.389 120.284 160.386 120.277 160.368 120.277C160.359 120.277 160.355 120.283 160.358 120.288Z" fill="#D5D6FF"></path><path d="M160.125 120.367C160.128 120.373 160.136 120.378 160.141 120.378C160.147 120.378 160.148 120.373 160.145 120.367C160.142 120.361 160.134 120.357 160.129 120.357C160.123 120.357 160.122 120.361 160.125 120.367Z" fill="#D5D6FF"></path><path d="M160.074 120.38C160.07 120.387 160.069 120.394 160.072 120.397C160.074 120.401 160.079 120.395 160.082 120.385C160.089 120.366 160.083 120.362 160.074 120.38Z" fill="#D5D6FF"></path><path d="M159.733 120.55C159.729 120.563 159.731 120.572 159.736 120.568C159.741 120.564 159.745 120.568 159.745 120.575C159.745 120.581 159.75 120.584 159.756 120.579C159.763 120.575 159.763 120.569 159.758 120.564C159.752 120.561 159.746 120.55 159.743 120.54C159.74 120.529 159.737 120.531 159.733 120.55Z" fill="#D5D6FF"></path></svg>