<svg width="260" height="200" viewBox="0 0 260 200" fill="none" xmlns="http://www.w3.org/2000/svg"><path d="M15.1263 200C5.1818 200 -2.03585 188.623 0.517299 177.023C3.87191 161.783 8.40884 151.168 28.568 138.897C46.0443 128.247 60.0539 112.639 68.8627 94.0064C81.317 67.6758 87.3678 43.2007 110.768 43.2007C145.395 43.2007 145.577 75.2207 155.901 78.477C166.225 81.7333 200.832 72.0629 208.562 100.607C222.852 153.371 242.033 127.935 256.919 168.567C257.849 171.129 258.65 173.737 259.319 176.382C262.318 188.115 255.037 199.999 244.862 199.999L15.1263 200Z" fill="#ECF3F9"></path><path d="M90.8053 27.6886C90.4588 28.3982 90.1104 29.1057 90.035 29.2625C89.6926 29.9612 89.3808 30.5947 89.2361 30.8951C89.1485 31.0736 89.0752 31.2238 89.0731 31.2282C89.069 31.2325 88.1296 31.2587 86.1183 31.3087C85.8493 31.3153 85.2645 31.3305 84.8161 31.3436C84.3699 31.3544 84.0031 31.3632 83.999 31.3588C83.9949 31.3523 83.3 30.0962 82.762 29.121C81.9021 27.5623 81.3967 26.6502 81.3947 26.648C81.3926 26.6459 81.1705 26.7025 80.9036 26.7743C80.5306 26.8723 80.4084 26.9136 80.386 26.9463C80.3717 26.968 80.3493 26.9833 80.3391 26.9767C80.3289 26.968 80.3207 26.9746 80.3207 26.9876C80.3207 27.0029 80.3065 27.0094 80.2902 27.0007C80.2739 26.9942 80.2596 27.0007 80.2596 27.0159C80.2596 27.0355 80.2555 27.0355 80.2433 27.0159C80.2209 26.9767 80.1699 26.9724 80.1679 27.0094C80.1679 27.0268 80.1577 27.042 80.1434 27.042C80.1292 27.042 80.1068 27.0551 80.0945 27.0682C80.0579 27.1074 80.0864 27.103 80.1618 27.0616C80.1944 27.042 80.2168 27.0377 80.2107 27.0486C80.2046 27.0595 80.1516 27.0965 80.0925 27.1291C80.0334 27.1618 79.956 27.214 79.9213 27.2423C79.8663 27.2859 79.8561 27.288 79.8439 27.2597C79.8378 27.2401 79.8398 27.2293 79.848 27.2358C79.8582 27.2423 79.8663 27.2336 79.8663 27.2184C79.8663 27.201 79.85 27.1944 79.8296 27.1988C79.8011 27.2075 79.797 27.1988 79.8052 27.1618C79.8113 27.1357 79.8235 27.1226 79.8296 27.1357C79.8459 27.1618 79.9376 27.1857 79.9213 27.1596C79.9152 27.1487 79.9193 27.14 79.9315 27.14C79.9417 27.14 79.9539 27.1509 79.958 27.1661C79.9641 27.1857 79.9702 27.1857 79.9825 27.1661C79.9906 27.1509 79.9865 27.14 79.9764 27.14C79.9641 27.14 79.9539 27.1313 79.9539 27.1204C79.9539 27.1074 79.9723 27.103 79.9927 27.1074C80.0375 27.1161 80.066 27.0638 80.0314 27.0399C80.0191 27.0312 80.0151 27.0333 80.0212 27.0464C80.0293 27.0595 80.0212 27.0747 80.0049 27.0812C79.9865 27.0899 79.9804 27.0834 79.9886 27.0616C79.9947 27.0464 79.9886 27.0312 79.9764 27.0312C79.9641 27.0312 79.9539 27.0464 79.9539 27.0638C79.9539 27.1139 79.8683 27.1444 79.8378 27.103C79.8174 27.0769 79.8133 27.0791 79.8011 27.1161C79.795 27.1422 79.7766 27.1618 79.7624 27.1618C79.7461 27.1618 79.7196 27.1835 79.7012 27.2097C79.6849 27.238 79.6748 27.2445 79.6809 27.2249C79.687 27.2031 79.6809 27.1814 79.6666 27.1705C79.6523 27.1618 79.6462 27.164 79.6544 27.1748C79.6605 27.1857 79.6381 27.1966 79.6055 27.1966C79.5586 27.1988 79.5504 27.1944 79.5668 27.1727C79.5851 27.1487 79.581 27.1465 79.5464 27.1552C79.524 27.1618 79.4995 27.1748 79.4954 27.1857C79.4893 27.1944 79.4689 27.1966 79.4486 27.1901C79.4221 27.1814 79.4221 27.1857 79.4547 27.2118C79.4893 27.2423 79.4914 27.2467 79.4608 27.2489C79.4424 27.2489 79.42 27.238 79.4139 27.2249C79.4037 27.2097 79.3874 27.214 79.365 27.2358C79.3446 27.2554 79.3202 27.2641 79.31 27.2554C79.2998 27.2445 79.2998 27.2467 79.308 27.2597C79.3181 27.2728 79.3365 27.2815 79.3487 27.2815C79.363 27.2815 79.3752 27.3011 79.3793 27.325C79.3833 27.3577 79.3813 27.3599 79.367 27.3403C79.3528 27.3163 79.3467 27.3163 79.3365 27.3446C79.3283 27.3642 79.3141 27.3795 79.3018 27.3795C79.2896 27.3795 79.2855 27.3686 79.2916 27.3577C79.2978 27.3446 79.2937 27.3359 79.2835 27.3359C79.2713 27.3359 79.2611 27.349 79.2611 27.362C79.2611 27.3816 79.2529 27.3795 79.2407 27.3577C79.2305 27.3403 79.2203 27.3359 79.2203 27.349C79.2203 27.362 79.1735 27.3708 79.1082 27.3708C79.0349 27.3708 79.0043 27.3642 79.0206 27.3512C79.039 27.3381 79.0349 27.3359 79.0104 27.3446C78.9901 27.3512 78.9676 27.3577 78.9615 27.3577C78.9554 27.3577 78.9615 27.3729 78.9758 27.3904C78.9962 27.4165 78.9962 27.423 78.9697 27.423C78.9513 27.423 78.931 27.4121 78.9248 27.4012C78.9147 27.3838 78.9024 27.386 78.8841 27.4012C78.8678 27.4165 78.8474 27.4208 78.8372 27.4165C78.8291 27.4099 78.8087 27.4143 78.7924 27.4252C78.7659 27.4448 78.7659 27.4469 78.7924 27.4382C78.8372 27.4252 78.8943 27.4622 78.8922 27.5057C78.8922 27.5297 78.8882 27.534 78.88 27.5144C78.8719 27.4927 78.8637 27.4948 78.8433 27.5253C78.8189 27.558 78.8087 27.5601 78.774 27.5362C78.7476 27.521 78.7313 27.5188 78.7313 27.5318C78.7313 27.5427 78.7231 27.5536 78.7129 27.5536C78.7027 27.5536 78.6966 27.5362 78.7007 27.5144C78.7027 27.4905 78.719 27.4796 78.7435 27.484C78.77 27.4905 78.7761 27.484 78.7618 27.4687C78.7496 27.4557 78.7211 27.4513 78.6946 27.46C78.6599 27.4687 78.6538 27.4796 78.6701 27.4992C78.7007 27.5384 78.666 27.558 78.6029 27.5427C78.5662 27.5318 78.5458 27.5427 78.5193 27.5884C78.4989 27.6189 78.4928 27.6385 78.5051 27.632C78.5193 27.6211 78.5254 27.6363 78.5234 27.6712C78.5193 27.7212 78.5132 27.7256 78.4134 27.7212C78.3217 27.7169 78.3115 27.7125 78.3481 27.6929C78.3767 27.6777 78.3828 27.6625 78.3665 27.6538C78.3543 27.645 78.3502 27.6276 78.3563 27.6146C78.3644 27.5993 78.3604 27.5972 78.3481 27.6059C78.3359 27.6146 78.3298 27.6342 78.3359 27.6494C78.342 27.6668 78.3278 27.6864 78.2992 27.6951C78.232 27.7191 78.1199 27.7256 78.1321 27.7038C78.1444 27.6821 78.0812 27.7038 78.0465 27.7299C78.0343 27.7408 78.018 27.7452 78.0099 27.7387C78.0038 27.7321 78.0058 27.7408 78.018 27.7539C78.0465 27.7909 78.0445 27.8214 78.0139 27.8018C77.9936 27.7887 77.9936 27.7931 78.0139 27.817C78.0506 27.8606 78.0425 27.9019 77.9956 27.9019C77.9732 27.9019 77.961 27.891 77.9671 27.8801C77.9752 27.8671 77.9915 27.8649 78.0038 27.8736C78.018 27.8823 78.016 27.8736 77.9997 27.8518C77.9711 27.8148 77.9243 27.7996 77.9447 27.8344C77.9508 27.8453 77.9426 27.8649 77.9263 27.8801C77.9019 27.9019 77.8856 27.9019 77.8489 27.8823C77.8122 27.8606 77.8102 27.8584 77.8448 27.8693C77.8856 27.8801 77.8856 27.8801 77.8448 27.8475C77.8081 27.817 77.804 27.817 77.7898 27.8584C77.7816 27.8823 77.7633 27.9019 77.7511 27.9019C77.7348 27.9019 77.7368 27.891 77.7551 27.8649C77.7796 27.8323 77.7796 27.8301 77.747 27.8431C77.7266 27.8518 77.7062 27.8584 77.7042 27.8584C77.7001 27.8584 77.7001 27.9041 77.7042 27.9629L77.7123 28.0652L77.6003 28.0717C77.531 28.0761 77.4882 28.0695 77.4882 28.0565C77.4882 28.0434 77.478 28.0325 77.4658 28.0325C77.4556 28.0325 77.4495 28.0412 77.4576 28.0521C77.4637 28.0652 77.4495 28.0695 77.4271 28.0652C77.4046 28.0608 77.3863 28.0674 77.3863 28.0782C77.3863 28.0913 77.3761 28.0935 77.3639 28.0848C77.3354 28.0674 77.3659 28.0325 77.4189 28.0216C77.4413 28.0173 77.4617 28.0129 77.4678 28.0108C77.4739 28.0086 77.4923 28.0042 77.5086 28.0021C77.5249 28.0021 77.5371 27.9868 77.533 27.9716C77.531 27.9585 77.5432 27.9455 77.5595 27.9455C77.5758 27.9455 77.5901 27.9607 77.5901 27.9825C77.5901 28.0173 77.6186 28.0042 77.6227 27.965C77.6288 27.9172 77.6329 27.915 77.6512 27.9455C77.6655 27.9716 77.6696 27.9672 77.6655 27.928C77.6655 27.9019 77.6614 27.8801 77.6594 27.8801C77.6247 27.8801 76.5569 28.3787 76.1534 28.5833C75.9863 28.6682 75.8457 28.7378 75.8437 28.74C75.8416 28.74 75.8722 28.9708 75.9109 29.2516C76.0454 30.2181 76.2146 31.4524 76.4591 33.2244C76.5202 33.6794 76.5773 34.0734 76.5814 34.0995C76.5895 34.1409 76.3266 34.3629 74.6006 35.7735C73.5043 36.6682 72.5954 37.4083 72.5832 37.4214C72.5526 37.4454 72.6076 37.4693 71.5786 36.9947C69.608 36.087 67.8983 35.2968 67.8799 35.2902C67.8555 35.2794 67.4805 35.743 67.1137 36.2394C66.1967 37.4737 65.4285 38.7058 64.7234 40.0794L64.5216 40.4669L64.9394 40.9175C65.1697 41.1635 65.9746 42.0407 66.7286 42.8636L68.1 44.3635L67.3847 46.9453C66.9915 48.3646 66.6613 49.5336 66.6511 49.5444C66.643 49.5532 65.5242 49.8296 64.1671 50.1561C62.8078 50.4827 61.6911 50.7548 61.685 50.7613C61.6707 50.7766 61.6402 51.1423 61.6239 51.4862C61.6157 51.619 61.6076 51.7562 61.6015 51.7932C61.577 51.9608 61.5689 53.896 61.5913 54.3619C61.6116 54.7973 61.6748 55.6854 61.7054 55.9836C61.7584 56.5039 61.8236 57.0198 61.8338 57.0307C61.8419 57.0373 62.2699 57.1178 62.7854 57.2092C63.301 57.3028 64.2404 57.4705 64.8742 57.5837C65.5079 57.699 66.213 57.8253 66.4412 57.8666C66.6695 57.908 66.859 57.945 66.8651 57.9494C66.8692 57.9559 67.2543 59.1031 67.7189 60.5028C68.4464 62.6928 68.5585 63.0498 68.5341 63.0781C68.5198 63.0977 67.7577 64.0207 66.8447 65.1331L65.1819 67.151L65.2899 67.3426C66.211 68.96 67.3379 70.5317 68.5708 71.9206L68.7766 72.1513L71.0671 70.9366C73.3413 69.7285 73.3596 69.7197 73.4105 69.7546C73.4391 69.7763 73.7203 69.9788 74.0341 70.2095C74.3479 70.4403 75.2201 71.0759 75.97 71.6245C76.722 72.1731 77.3781 72.6564 77.4332 72.6999C77.5167 72.7674 77.5289 72.787 77.5289 72.8545C77.5289 72.9415 77.48 73.5315 77.3781 74.7157C77.3374 75.1707 77.264 76.0283 77.2131 76.6205C77.1621 77.2126 77.1071 77.8177 77.0949 77.9636L77.0684 78.2313L77.3455 78.3511C78.446 78.8387 79.8439 79.3241 81.0462 79.6376C81.415 79.7334 82.3667 79.9467 82.6642 79.999C82.7152 80.0077 82.7539 79.9337 83.6383 78.1138C84.1457 77.0711 84.6776 75.9783 84.8223 75.6844L85.0851 75.1511L87.3838 75.0814C88.6493 75.0444 89.7904 75.0117 89.9188 75.0117L90.1532 75.0096L90.3773 75.4079C90.4996 75.6256 91.0844 76.6749 91.6774 77.7415C92.2684 78.806 92.7595 79.6855 92.7677 79.692C92.7758 79.7007 92.9612 79.6572 93.1793 79.5984C94.5752 79.224 95.9629 78.719 97.2386 78.1203C97.53 77.9832 98.2962 77.6044 98.3105 77.5913C98.3125 77.587 98.1862 76.6792 98.0313 75.5734C97.7012 73.2398 97.5545 72.1774 97.5647 72.1709C97.581 72.1579 101.314 69.0819 101.455 68.9644L101.569 68.8686L102.219 69.1625C102.578 69.3236 103.621 69.8003 104.54 70.2204C105.459 70.6427 106.225 70.9932 106.246 70.9976C106.323 71.0215 107.379 69.6022 108.029 68.5987C108.55 67.791 109.294 66.4806 109.545 65.9276L109.59 65.8253L109.174 65.3682C108.946 65.1178 108.141 64.2427 107.385 63.4264C106.142 62.0811 106.013 61.9374 106.024 61.8852C106.036 61.8242 107.422 56.739 107.43 56.7325C107.436 56.726 108.877 56.3733 109.624 56.1926C109.895 56.1273 110.89 55.8879 112.08 55.5983C112.259 55.5548 112.41 55.5156 112.414 55.5134C112.428 55.5004 112.475 54.6928 112.5 54.0245C112.545 52.7314 112.481 51.2533 112.322 49.921C112.294 49.6816 112.265 49.44 112.259 49.3855C112.253 49.3289 112.241 49.2702 112.233 49.2549C112.223 49.2375 111.86 49.1657 111.261 49.059C109.247 48.7063 107.189 48.3406 107.187 48.3363C107.161 48.2993 105.49 43.2554 105.496 43.2358C105.502 43.2184 106.254 42.2911 107.169 41.1722C108.082 40.0532 108.83 39.1303 108.83 39.1215C108.83 39.115 108.764 38.9931 108.683 38.8538C107.776 37.2886 106.71 35.8083 105.524 34.4696L105.239 34.1496L102.965 35.3686C101.712 36.0413 100.674 36.5855 100.656 36.5811C100.632 36.5746 98.6773 35.1618 97.3059 34.1604C97.206 34.0864 96.9778 33.921 96.8025 33.7925C96.4276 33.5226 96.4622 33.6053 96.5111 33.0589C96.5274 32.8739 96.5641 32.4385 96.5926 32.0924C96.6211 31.7441 96.6497 31.411 96.6538 31.3523C96.6599 31.2913 96.6782 31.0715 96.6945 30.8625C96.7128 30.6535 96.7312 30.4314 96.7353 30.3727C96.7414 30.3117 96.7821 29.8132 96.827 29.2625C96.8718 28.7117 96.9126 28.2263 96.9187 28.1827L96.9289 28.1065L96.4765 27.915C95.1091 27.3338 93.7682 26.8984 92.3947 26.5849C91.9566 26.4848 91.5368 26.3999 91.4798 26.3999C91.4431 26.3999 91.3371 26.6045 90.8053 27.6886ZM79.4037 27.2489C79.4037 27.2597 79.3935 27.2706 79.3813 27.2706C79.3711 27.2706 79.367 27.2597 79.3732 27.2489C79.3793 27.2358 79.3895 27.2271 79.3956 27.2271C79.3997 27.2271 79.4037 27.2358 79.4037 27.2489ZM79.7991 27.2728C79.795 27.2815 79.8031 27.2924 79.8154 27.2967C79.8378 27.3055 79.7665 27.3642 79.7298 27.3686C79.7237 27.3686 79.689 27.4012 79.6503 27.4404C79.6116 27.4774 79.5749 27.5035 79.5708 27.4992C79.5647 27.4927 79.5484 27.5057 79.5341 27.5275C79.5097 27.5623 79.5077 27.5601 79.5056 27.5188C79.5056 27.4927 79.5199 27.46 79.5362 27.4448C79.5525 27.4295 79.5606 27.4078 79.5525 27.3969C79.5443 27.3816 79.5647 27.3773 79.6055 27.3838C79.6503 27.3904 79.6686 27.386 79.6686 27.3642C79.6686 27.3468 79.6768 27.3381 79.687 27.3446C79.6951 27.3512 79.7196 27.3381 79.74 27.3142C79.7807 27.2663 79.7563 27.2532 79.7094 27.2967C79.6849 27.3207 79.6849 27.3185 79.7074 27.288C79.7318 27.2532 79.8194 27.2401 79.7991 27.2728ZM79.475 27.3316C79.4567 27.3359 79.4486 27.349 79.4547 27.3599C79.4608 27.3708 79.4526 27.3729 79.4343 27.3664C79.4058 27.3533 79.4058 27.349 79.4363 27.312C79.4649 27.2793 79.475 27.275 79.4893 27.2967C79.4975 27.3142 79.4934 27.3272 79.475 27.3316ZM79.5362 27.3991C79.5423 27.4099 79.5382 27.4252 79.526 27.4339C79.5158 27.4404 79.5056 27.4317 79.5056 27.4143C79.5056 27.3751 79.5178 27.3686 79.5362 27.3991ZM78.9147 27.423C78.9147 27.4339 78.9045 27.4448 78.8922 27.4448C78.882 27.4448 78.878 27.4339 78.8841 27.423C78.8902 27.4099 78.9004 27.4012 78.9065 27.4012C78.9106 27.4012 78.9147 27.4099 78.9147 27.423ZM78.986 27.5057C78.9676 27.5101 78.9595 27.5231 78.9656 27.534C78.9717 27.5449 78.9636 27.5471 78.9452 27.5406C78.9167 27.5275 78.9167 27.5231 78.9473 27.4861C78.9758 27.4535 78.986 27.4491 79.0002 27.4709C79.0084 27.4883 79.0043 27.5014 78.986 27.5057ZM79.4445 27.608C79.3915 27.669 79.3528 27.669 79.3507 27.6059C79.3467 27.5623 79.3569 27.5558 79.416 27.558L79.4852 27.5601L79.4445 27.608ZM79.1592 27.7931C79.1694 27.7931 79.1877 27.7757 79.1979 27.7539C79.2122 27.7299 79.2183 27.7256 79.2203 27.7474C79.2203 27.7713 79.2264 27.7713 79.2509 27.7495C79.2692 27.7343 79.2815 27.7321 79.2815 27.7452C79.2815 27.7582 79.2326 27.8105 79.1755 27.8627C79.1164 27.9128 79.0553 27.9716 79.041 27.989C79.0247 28.0064 79.0186 28.0086 79.0267 27.9955C79.0349 27.9781 79.0288 27.9716 79.0104 27.9803C78.9941 27.9868 78.9758 27.9759 78.9676 27.9563C78.9615 27.9346 78.9636 27.9259 78.9778 27.9367C78.9901 27.9433 79.0165 27.9302 79.039 27.9041C79.0716 27.8671 79.0736 27.8562 79.0491 27.8323C79.0247 27.8083 79.0247 27.7996 79.0512 27.7669C79.0777 27.7343 79.0858 27.7343 79.1123 27.7604C79.1286 27.7778 79.149 27.7931 79.1592 27.7931ZM78.9248 27.9237C78.933 27.9367 78.9228 27.9389 78.9024 27.9302C78.8739 27.9193 78.8698 27.9237 78.88 27.9542C78.8882 27.9759 78.8861 27.9868 78.8739 27.9781C78.8433 27.9585 78.8494 27.9019 78.882 27.9019C78.8984 27.9019 78.9187 27.9106 78.9248 27.9237ZM78.9432 28.0652C78.9534 28.0935 78.7313 28.3373 78.6946 28.3373C78.6823 28.3373 78.666 28.346 78.6599 28.3591C78.6518 28.3721 78.662 28.3743 78.6823 28.3656C78.7109 28.3547 78.7088 28.3612 78.6762 28.3961C78.6538 28.42 78.6253 28.4592 78.6131 28.481C78.6008 28.5027 78.5845 28.5136 78.5764 28.5049C78.5682 28.4962 78.5825 28.4636 78.611 28.4309C78.6559 28.3787 78.6559 28.3743 78.6192 28.3874C78.5866 28.4004 78.5886 28.3917 78.6334 28.3504C78.664 28.3221 78.6823 28.2916 78.6742 28.2829C78.666 28.2742 78.6701 28.272 78.6823 28.2763C78.6925 28.2785 78.7333 28.2459 78.772 28.2001C78.8209 28.1392 78.8433 28.124 78.8556 28.1457C78.8698 28.1675 78.8739 28.1653 78.8739 28.1348C78.8739 28.1152 78.8637 28.0978 78.8494 28.0978C78.8372 28.0978 78.8331 28.0913 78.8393 28.0848C78.8474 28.0761 78.8657 28.0826 78.882 28.0957C78.9024 28.1131 78.9147 28.1152 78.9248 28.0978C78.931 28.087 78.9289 28.0761 78.9187 28.0761C78.9065 28.0761 78.8943 28.0608 78.8882 28.0456C78.88 28.0238 78.8861 28.0173 78.9045 28.0238C78.9187 28.0304 78.9371 28.0478 78.9432 28.0652ZM78.7577 28.1196C78.7659 28.1196 78.7679 28.1109 78.7618 28.0978C78.7557 28.0848 78.7639 28.0826 78.7802 28.0891C78.7985 28.0957 78.8128 28.1109 78.8128 28.1218C78.8128 28.1566 78.7374 28.1436 78.7088 28.1022C78.6864 28.0717 78.6864 28.0695 78.7109 28.0913C78.7272 28.1065 78.7476 28.1196 78.7577 28.1196ZM77.2661 28.1174C77.2375 28.137 77.2518 28.1849 77.2864 28.1849C77.2987 28.1849 77.3007 28.174 77.2926 28.1588C77.2844 28.1436 77.2864 28.1414 77.3027 28.1501C77.315 28.1588 77.3394 28.1544 77.3557 28.1414C77.3822 28.1196 77.3863 28.124 77.3843 28.1762C77.3843 28.2306 77.3802 28.2328 77.3659 28.1958C77.3517 28.1588 77.3476 28.1566 77.3354 28.1871C77.3272 28.2089 77.3068 28.2197 77.2844 28.2132C77.264 28.2067 77.2416 28.2132 77.2355 28.2263C77.2273 28.2393 77.211 28.2502 77.2009 28.2502C77.1886 28.2502 77.1866 28.2393 77.1927 28.2284C77.1988 28.2154 77.1947 28.2067 77.1846 28.2067C77.1723 28.2067 77.1621 28.2176 77.1621 28.2328C77.1621 28.2459 77.156 28.2502 77.1479 28.2437C77.1418 28.235 77.152 28.2067 77.1744 28.1827C77.2131 28.1348 77.2131 28.1348 77.1683 28.1653C77.1418 28.1827 77.1214 28.2089 77.1214 28.2219C77.1214 28.2459 77.1132 28.2459 77.0806 28.2241C77.0399 28.1958 77.0399 28.1849 77.0847 28.1762C77.099 28.1718 77.1438 28.1544 77.1825 28.1348C77.2579 28.0978 77.3129 28.087 77.2661 28.1174ZM78.7516 28.1871C78.7516 28.2176 78.717 28.2089 78.7048 28.1762C78.6966 28.1544 78.7027 28.1479 78.7231 28.1566C78.7374 28.1631 78.7516 28.1762 78.7516 28.1871ZM77.0399 28.2437C77.0399 28.2546 77.0175 28.2633 76.9889 28.2633C76.9604 28.2655 76.9441 28.2589 76.9502 28.248C76.9624 28.2241 77.0399 28.2219 77.0399 28.2437ZM78.6151 28.2807C78.6232 28.3046 78.6171 28.309 78.5947 28.3003C78.5703 28.2894 78.5642 28.2959 78.5743 28.3221C78.5825 28.346 78.5784 28.3525 78.556 28.3438C78.5193 28.3286 78.5193 28.3264 78.5601 28.285C78.5988 28.2415 78.6008 28.2415 78.6151 28.2807ZM76.9095 28.3351C76.9013 28.3482 76.8809 28.3591 76.8626 28.3591C76.8361 28.3591 76.8341 28.3634 76.8585 28.3961C76.885 28.4309 76.883 28.4331 76.8524 28.4048C76.8218 28.3808 76.8157 28.3808 76.8137 28.4048C76.8137 28.4265 76.8096 28.4287 76.8014 28.407C76.7974 28.3939 76.7831 28.3808 76.7729 28.3808C76.7607 28.3808 76.7566 28.3895 76.7627 28.3982C76.7668 28.407 76.7362 28.4157 76.6914 28.4157L76.6099 28.4178L76.7077 28.3656C76.7607 28.3373 76.8157 28.3112 76.83 28.3068C76.8442 28.3046 76.8626 28.2959 76.8707 28.2872C76.8911 28.2655 76.9258 28.3068 76.9095 28.3351ZM76.9991 28.3373C76.9991 28.3482 76.991 28.3591 76.9787 28.3591C76.9685 28.3591 76.9584 28.3482 76.9584 28.3373C76.9584 28.3242 76.9685 28.3155 76.9787 28.3155C76.991 28.3155 76.9991 28.3242 76.9991 28.3373ZM78.5682 28.457C78.556 28.4723 78.554 28.5027 78.5621 28.5223C78.5703 28.5506 78.5682 28.5572 78.5519 28.5463C78.5254 28.5289 78.5193 28.4418 78.5397 28.4178C78.5642 28.3917 78.5906 28.4265 78.5682 28.457ZM76.5569 28.494C76.561 28.5093 76.5508 28.5354 76.5325 28.5506C76.5039 28.5746 76.5039 28.5746 76.5365 28.5637C76.5549 28.5572 76.5712 28.5615 76.5712 28.5746C76.5712 28.6029 76.4571 28.6072 76.4408 28.5789C76.4346 28.568 76.4489 28.555 76.4734 28.5485C76.4978 28.5397 76.5121 28.5289 76.506 28.5223C76.4999 28.5136 76.4734 28.518 76.4509 28.5332C76.4143 28.5528 76.4082 28.5767 76.4082 28.7095C76.4082 28.8402 76.4041 28.8619 76.3776 28.851C76.3511 28.8423 76.3511 28.8467 76.3674 28.8815C76.3776 28.9033 76.3796 28.9272 76.3715 28.9338C76.3613 28.9403 76.3552 28.9729 76.3572 29.0056C76.3654 29.1231 76.3674 29.134 76.3837 29.1057C76.3918 29.0927 76.398 29.1275 76.4 29.1819C76.4 29.2385 76.398 29.2712 76.3939 29.2559C76.3878 29.2429 76.3755 29.2342 76.3674 29.2407C76.3572 29.2472 76.3491 29.2342 76.3511 29.2146C76.3511 29.1928 76.3429 29.0927 76.3307 28.9904C76.2798 28.5463 76.2798 28.5593 76.3165 28.6203C76.3491 28.6747 76.3491 28.6747 76.3389 28.6246C76.3307 28.5811 76.3348 28.5789 76.3633 28.6029C76.3898 28.6268 76.3939 28.6268 76.3817 28.5942C76.3715 28.5637 76.3878 28.5441 76.4448 28.5136C76.5345 28.4614 76.5447 28.4592 76.5569 28.494ZM78.4867 28.6268C78.4867 28.6377 78.448 28.6965 78.4011 28.7596C78.3033 28.888 78.2707 28.925 78.289 28.8902C78.2952 28.8772 78.289 28.8663 78.2727 28.8663C78.2524 28.8663 78.2503 28.8772 78.2626 28.9033C78.287 28.9512 78.2177 29.0252 78.177 28.9991C78.1586 28.9882 78.1607 28.9947 78.181 29.023C78.1994 29.047 78.2014 29.0578 78.1872 29.047C78.1688 29.0361 78.1607 29.047 78.1607 29.0753C78.1607 29.1014 78.1525 29.121 78.1423 29.121C78.0995 29.121 78.1036 29.0774 78.1546 28.9991C78.1872 28.9468 78.2075 28.888 78.2055 28.8423C78.2035 28.7879 78.2116 28.7727 78.2401 28.7727C78.2605 28.7727 78.285 28.7879 78.2911 28.8075C78.3094 28.8619 78.3828 28.7553 78.3726 28.6899C78.3665 28.6616 78.3685 28.6312 78.3746 28.6203C78.3889 28.5942 78.4867 28.6007 78.4867 28.6268ZM78.1118 28.9904C78.1118 29.0078 78.1016 29.0448 78.0853 29.0709C78.0669 29.1057 78.0649 29.1231 78.0832 29.134C78.0975 29.1449 78.0995 29.1406 78.0893 29.1188C78.073 29.0927 78.0771 29.0927 78.1056 29.1188C78.1423 29.1493 78.1321 29.1972 78.0955 29.1732C78.0832 29.1645 78.0792 29.1667 78.0853 29.1797C78.0934 29.1928 78.0853 29.2189 78.071 29.2407C78.0486 29.2755 78.0445 29.2581 78.0404 29.1123C78.0364 28.9599 78.0404 28.9446 78.073 28.9512C78.0934 28.9555 78.1097 28.9729 78.1118 28.9904ZM76.4082 29.0121C76.4082 29.023 76.4041 29.0339 76.4 29.0339C76.3939 29.0339 76.3837 29.023 76.3776 29.0121C76.3715 28.9991 76.3755 28.9904 76.3857 28.9904C76.398 28.9904 76.4082 28.9991 76.4082 29.0121ZM78.016 29.3365C78.0058 29.3561 77.9752 29.4105 77.9487 29.4584C77.9222 29.5063 77.8835 29.5476 77.8631 29.5498C77.8285 29.5563 77.8285 29.5542 77.8652 29.5368C77.8937 29.5215 77.8978 29.515 77.8754 29.5128C77.8591 29.5085 77.8367 29.5085 77.8285 29.5106C77.8183 29.5128 77.8183 29.5019 77.8244 29.4889C77.8326 29.4758 77.857 29.4693 77.8774 29.4758C77.908 29.4845 77.9121 29.4802 77.8958 29.4475C77.8672 29.3909 77.8713 29.3735 77.9019 29.4018C77.9182 29.4148 77.9365 29.4192 77.9426 29.4105C77.9691 29.3822 77.9569 29.3452 77.9121 29.3234C77.8713 29.3017 77.8754 29.2995 77.9508 29.2995C78.0262 29.2995 78.0343 29.306 78.016 29.3365ZM76.4 29.3931C76.398 29.4649 76.3674 29.4649 76.3674 29.3931C76.3674 29.3626 76.3755 29.3387 76.3857 29.3387C76.3959 29.3387 76.402 29.3626 76.4 29.3931ZM77.7837 29.491C77.7776 29.5019 77.7592 29.5128 77.747 29.5128C77.7327 29.5128 77.7348 29.5041 77.7531 29.491C77.7918 29.4649 77.8 29.4649 77.7837 29.491ZM76.402 29.6042C76.3959 29.6195 76.3918 29.6086 76.3918 29.5781C76.3918 29.5476 76.3959 29.5368 76.402 29.5498C76.4061 29.5651 76.4061 29.5912 76.402 29.6042ZM77.7735 29.5781C77.7735 29.589 77.7694 29.5999 77.7653 29.5999C77.7592 29.5999 77.749 29.589 77.7429 29.5781C77.7368 29.5651 77.7409 29.5563 77.7511 29.5563C77.7633 29.5563 77.7735 29.5651 77.7735 29.5781ZM77.7857 29.6347C77.7348 29.6739 77.7123 29.6739 77.7123 29.6325C77.7123 29.6151 77.7246 29.6064 77.7409 29.6129C77.7572 29.6195 77.7755 29.6129 77.7837 29.5999C77.7918 29.5868 77.804 29.5825 77.8102 29.589C77.8183 29.5977 77.8061 29.6173 77.7857 29.6347ZM77.7572 29.7784C77.7409 29.8002 77.7348 29.8176 77.745 29.8176C77.7551 29.8176 77.745 29.8328 77.7246 29.8502C77.7022 29.8676 77.6899 29.8829 77.6981 29.8829C77.7164 29.8829 77.6533 30.02 77.6268 30.0374C77.6166 30.044 77.6064 30.0636 77.6023 30.081C77.584 30.192 77.5473 30.2377 77.5188 30.1876C77.5106 30.1746 77.5167 30.168 77.533 30.1702C77.5514 30.1746 77.5595 30.1528 77.5595 30.1006C77.5595 30.0483 77.5697 30.0222 77.5942 30.0178C77.6125 30.0135 77.6308 29.983 77.6349 29.9482C77.641 29.9003 77.6369 29.8894 77.6206 29.9046C77.6023 29.9199 77.586 29.9155 77.5677 29.8894C77.5412 29.8524 77.5412 29.8524 77.5779 29.8829C77.6145 29.9134 77.6166 29.9112 77.6064 29.8807C77.5962 29.8524 77.6023 29.8459 77.6349 29.8568C77.6634 29.8633 77.6736 29.8589 77.6634 29.8437C77.6533 29.8263 77.6594 29.8219 77.6797 29.8306C77.7042 29.8415 77.7123 29.8285 77.7123 29.7827C77.7123 29.7327 77.7164 29.7261 77.7327 29.7523C77.749 29.7806 77.7531 29.7784 77.7531 29.7457C77.7531 29.7261 77.7409 29.7087 77.7286 29.7087C77.7103 29.7087 77.7123 29.7022 77.7327 29.687C77.7776 29.6565 77.7979 29.7305 77.7572 29.7784ZM77.8346 29.6739C77.8346 29.6804 77.8265 29.6913 77.8142 29.6978C77.804 29.7044 77.7939 29.7 77.7939 29.6891C77.7939 29.6761 77.804 29.6652 77.8142 29.6652C77.8265 29.6652 77.8346 29.6695 77.8346 29.6739ZM76.4591 29.9046C76.4509 29.9612 76.453 29.9917 76.4672 29.9917C76.4795 29.9917 76.4876 29.9743 76.4856 29.9525C76.4795 29.8763 76.4897 29.8176 76.51 29.8176C76.5223 29.8176 76.5304 29.8372 76.5304 29.8611C76.5304 29.8851 76.5406 29.9046 76.5508 29.9046C76.5732 29.9046 76.5773 29.9895 76.5589 30.044C76.5528 30.0636 76.5386 30.0788 76.5304 30.0788C76.51 30.0788 76.5141 30.0353 76.5386 29.9961C76.5488 29.9787 76.5467 29.9569 76.5325 29.9417C76.51 29.9177 76.508 29.9199 76.4999 30.057C76.4978 30.1136 76.5243 30.1724 76.5488 30.1572C76.5549 30.1528 76.561 30.1963 76.563 30.2551C76.563 30.3226 76.5549 30.3596 76.5426 30.3553C76.5304 30.3509 76.5202 30.303 76.5202 30.2508C76.5202 30.1746 76.5141 30.1572 76.4876 30.1615C76.4611 30.1659 76.453 30.1397 76.4428 30.0396C76.4346 29.97 76.4346 29.8916 76.4428 29.8655C76.4611 29.7849 76.4734 29.811 76.4591 29.9046ZM77.5799 29.946C77.586 29.9569 77.584 29.9721 77.5738 29.9787C77.5636 29.9852 77.5554 29.9765 77.5554 29.9591C77.5554 29.9221 77.5616 29.9177 77.5799 29.946ZM77.4474 30.192C77.4474 30.2051 77.4535 30.2094 77.4597 30.2029C77.4678 30.1963 77.4902 30.1985 77.5126 30.2116C77.5514 30.2334 77.5514 30.2355 77.5147 30.2682C77.4943 30.2856 77.4882 30.2943 77.5025 30.2856C77.5208 30.2769 77.5228 30.2878 77.5065 30.34C77.4943 30.3749 77.476 30.3988 77.4637 30.3923C77.4535 30.3857 77.4454 30.3923 77.4495 30.4075C77.4556 30.4663 77.4474 30.4946 77.425 30.4793C77.4128 30.4728 77.4067 30.4467 77.4128 30.4249C77.4189 30.401 77.4148 30.3836 77.4046 30.3836C77.3945 30.3836 77.3863 30.3574 77.3863 30.3226C77.3863 30.2791 77.3924 30.2725 77.4046 30.2965C77.4169 30.3139 77.4209 30.3335 77.4148 30.3422C77.4108 30.3509 77.4148 30.364 77.4271 30.3727C77.4576 30.3923 77.4739 30.2856 77.4474 30.2334C77.4352 30.2072 77.4148 30.1942 77.4026 30.2007C77.3883 30.2094 77.3863 30.2072 77.3945 30.192C77.4128 30.1593 77.4474 30.1593 77.4474 30.192ZM76.4978 30.2965C76.5039 30.3596 76.4999 30.3814 76.4876 30.3596C76.4693 30.3291 76.4611 30.1724 76.4795 30.192C76.4856 30.1963 76.4937 30.2442 76.4978 30.2965ZM77.4372 30.2551C77.4597 30.29 77.4393 30.2965 77.4108 30.2617C77.3965 30.2442 77.3945 30.2312 77.4046 30.2312C77.4148 30.2312 77.4311 30.2421 77.4372 30.2551ZM76.5488 30.5751C76.5386 30.5795 76.5304 30.61 76.5304 30.6404C76.5304 30.6774 76.5365 30.6883 76.5467 30.6731C76.5569 30.6578 76.563 30.697 76.563 30.7623C76.561 30.9343 76.5263 30.8494 76.5223 30.6644C76.5223 30.5838 76.5141 30.5229 76.508 30.5272C76.5019 30.5316 76.4958 30.5033 76.4958 30.4641L76.4937 30.3944L76.5304 30.4815C76.5488 30.5294 76.5569 30.5708 76.5488 30.5751ZM77.264 30.5229C77.264 30.5294 77.2559 30.5403 77.2437 30.5468C77.2335 30.5534 77.2233 30.549 77.2233 30.5381C77.2233 30.5251 77.2335 30.5142 77.2437 30.5142C77.2559 30.5142 77.264 30.5185 77.264 30.5229ZM77.4067 30.5446C77.4067 30.586 77.372 30.6078 77.3557 30.5795C77.3496 30.5686 77.3557 30.5577 77.37 30.5577C77.3883 30.5577 77.3883 30.5512 77.3659 30.5359C77.3394 30.5185 77.3415 30.5142 77.372 30.5142C77.3904 30.5142 77.4067 30.5272 77.4067 30.5446ZM77.2844 30.61C77.2844 30.6557 77.3272 30.6774 77.3476 30.6426C77.3598 30.6208 77.3639 30.6274 77.3598 30.66C77.3578 30.6992 77.3476 30.7057 77.3068 30.6949C77.2722 30.6861 77.262 30.6905 77.2722 30.7079C77.2803 30.721 77.3027 30.7319 77.3211 30.734C77.3435 30.734 77.3455 30.7384 77.3292 30.7471C77.317 30.7514 77.3089 30.7667 77.315 30.7754C77.3211 30.7863 77.317 30.7993 77.3048 30.808C77.2946 30.8146 77.2844 30.8102 77.2844 30.7993C77.2844 30.7863 77.2742 30.7754 77.262 30.7754C77.2518 30.7754 77.2477 30.7841 77.2538 30.7972C77.2763 30.8363 77.2824 30.9125 77.2661 30.9452C77.2538 30.967 77.2457 30.9691 77.2355 30.9517C77.2273 30.9387 77.2294 30.9278 77.2375 30.9278C77.2477 30.9278 77.2559 30.9082 77.2559 30.8842C77.2559 30.8603 77.2477 30.8407 77.2375 30.8407C77.2294 30.8407 77.2273 30.7993 77.2335 30.7471C77.2416 30.697 77.2477 30.6383 77.2498 30.6165C77.2538 30.5729 77.2844 30.5664 77.2844 30.61ZM76.5651 31.0519C76.5589 31.0736 76.5549 31.0562 76.5549 31.0149C76.5549 30.9735 76.5589 30.9561 76.5651 30.9757C76.5691 30.9974 76.5691 31.0323 76.5651 31.0519ZM77.1886 31.0562C77.1968 31.0584 77.2029 31.078 77.2029 31.1041C77.2029 31.1302 77.1947 31.1411 77.1805 31.1324C77.1662 31.1237 77.1621 31.1324 77.1703 31.1629C77.1784 31.189 77.1723 31.2108 77.156 31.2173C77.1255 31.2282 77.1255 31.1781 77.152 31.091C77.1601 31.0606 77.156 31.0649 77.1336 31.1019C77.0929 31.1738 77.0929 31.226 77.1377 31.2521C77.1581 31.2652 77.1621 31.2761 77.1458 31.2761C77.1316 31.2761 77.1234 31.2848 77.1295 31.2957C77.1377 31.3066 77.1316 31.3436 77.1193 31.3784C77.1051 31.411 77.0929 31.4611 77.0888 31.4894C77.0867 31.5177 77.0745 31.5525 77.0643 31.5656C77.0541 31.5808 77.0338 31.6483 77.0195 31.7158C77.0052 31.7876 76.9808 31.8421 76.9665 31.8421C76.9522 31.8421 76.9461 31.8246 76.9522 31.8007C76.9584 31.7789 76.9522 31.7528 76.94 31.7463C76.9258 31.7354 76.9237 31.7441 76.9319 31.7702C76.938 31.792 76.9359 31.8029 76.9258 31.792C76.9156 31.7811 76.9074 31.7441 76.9054 31.7049L76.9013 31.6374L76.94 31.6919C76.9726 31.7354 76.9808 31.7398 76.9991 31.7115C77.0297 31.6614 77.0236 31.6461 76.9787 31.6461C76.9563 31.6461 76.9319 31.6309 76.9237 31.6135C76.9054 31.5591 76.938 31.5438 76.9726 31.5917C76.9991 31.6266 77.0032 31.6287 76.993 31.5961C76.9828 31.57 76.991 31.5591 77.0195 31.5591C77.0623 31.5591 77.0664 31.5417 77.0643 31.4002C77.0643 31.3479 77.0704 31.324 77.0847 31.3327C77.101 31.3436 77.103 31.3305 77.0929 31.2957C77.0602 31.1672 77.0562 31.1237 77.0786 31.1237C77.0969 31.1237 77.0969 31.1128 77.0806 31.0802C77.0602 31.0388 77.0623 31.0366 77.1153 31.0453C77.1458 31.0497 77.1784 31.0562 77.1886 31.0562ZM76.6792 31.226C76.6853 31.2369 76.6629 31.2434 76.6303 31.2434C76.5977 31.2434 76.5712 31.2369 76.5712 31.226C76.5712 31.2173 76.5936 31.2108 76.6201 31.2108C76.6486 31.2108 76.6751 31.2173 76.6792 31.226ZM76.6527 31.263C76.6527 31.2674 76.6384 31.2783 76.6201 31.2848C76.6038 31.2913 76.5956 31.2891 76.6017 31.2761C76.614 31.2543 76.6527 31.2456 76.6527 31.263ZM76.6731 31.411C76.6731 31.5199 76.6894 31.5134 76.6975 31.4002C76.7057 31.2739 76.726 31.3066 76.7301 31.4502C76.7322 31.5221 76.726 31.5808 76.7179 31.5808C76.7097 31.5808 76.7016 31.6004 76.6996 31.6244C76.6975 31.6483 76.7036 31.6636 76.7138 31.657C76.722 31.6505 76.7281 31.6636 76.724 31.6832C76.7199 31.7049 76.7159 31.731 76.7159 31.7398C76.7138 31.7506 76.7057 31.7506 76.6934 31.7441C76.6588 31.7223 76.671 31.7593 76.7097 31.792C76.7281 31.8094 76.7322 31.8181 76.7199 31.8094C76.7057 31.8029 76.6934 31.8051 76.6934 31.8138C76.6934 31.8246 76.7057 31.8464 76.7199 31.8617C76.7403 31.8856 76.7403 31.89 76.7199 31.8769C76.7057 31.8682 76.6934 31.8682 76.6914 31.8791C76.6914 31.8878 76.6873 31.9161 76.6833 31.9378C76.6792 31.9618 76.6853 31.9966 76.6955 32.014C76.7118 32.0423 76.7138 32.0402 76.7057 32.0053C76.6996 31.9814 76.7036 31.9466 76.7138 31.9291C76.7281 31.9074 76.7342 31.9466 76.7322 32.0598C76.7301 32.149 76.7383 32.247 76.7505 32.2774C76.7627 32.3079 76.7729 32.3166 76.7729 32.2992C76.775 32.2774 76.7974 32.2622 76.8381 32.26C76.8728 32.2579 76.8952 32.2622 76.8891 32.2731C76.883 32.284 76.8544 32.4189 76.8259 32.5713C76.7709 32.863 76.7566 32.9153 76.7525 32.8086C76.7505 32.7411 76.7464 32.7063 76.724 32.5691C76.7159 32.5125 76.7179 32.4734 76.7301 32.4647C76.7444 32.4559 76.7485 32.4712 76.7424 32.506C76.7383 32.5365 76.7403 32.5779 76.7505 32.5974C76.7668 32.6279 76.7709 32.6257 76.7811 32.5953C76.7892 32.5735 76.7872 32.5626 76.775 32.5713C76.7627 32.5779 76.7546 32.5735 76.7546 32.5626C76.7546 32.5496 76.7648 32.5387 76.779 32.5387C76.7974 32.5387 76.7974 32.5321 76.7811 32.5147C76.7525 32.4842 76.7709 32.4233 76.8014 32.4451C76.8137 32.4516 76.8157 32.4472 76.8076 32.4342C76.7994 32.4189 76.8014 32.4081 76.8116 32.4081C76.8218 32.4081 76.8361 32.3776 76.8402 32.3427C76.8524 32.2557 76.83 32.26 76.7953 32.3536C76.779 32.395 76.7607 32.4298 76.7525 32.4298C76.726 32.4298 76.6894 32.3667 76.6996 32.3384C76.7077 32.321 76.7118 32.3232 76.7118 32.3471C76.7138 32.3689 76.724 32.3863 76.7342 32.3863C76.7648 32.3863 76.7587 32.3515 76.722 32.3123C76.6975 32.2861 76.6975 32.2774 76.7179 32.2774C76.7383 32.2774 76.7362 32.2709 76.7138 32.2557C76.6975 32.2448 76.6914 32.2339 76.7016 32.2339C76.7118 32.2339 76.7097 32.2208 76.6996 32.2056C76.6873 32.1925 76.6771 32.1642 76.6771 32.1468C76.6731 32.0598 76.6527 31.8617 76.6323 31.7441C76.6099 31.6048 76.6058 31.4568 76.6221 31.4763C76.6282 31.4829 76.6364 31.5221 76.6384 31.5656C76.6425 31.6091 76.6507 31.6527 76.6588 31.6614C76.6731 31.6766 76.6568 31.3806 76.6405 31.324C76.6364 31.3087 76.6425 31.3022 76.6527 31.3087C76.6649 31.3153 76.6731 31.3632 76.6731 31.411ZM76.6058 31.4328C76.5997 31.4481 76.5956 31.4372 76.5956 31.4067C76.5956 31.3762 76.5997 31.3653 76.6058 31.3784C76.6099 31.3936 76.6099 31.4198 76.6058 31.4328ZM76.938 31.9509C76.9482 31.9574 76.9482 31.9966 76.94 32.038C76.9258 32.1142 76.9258 32.1142 76.9135 32.0532C76.9074 32.0184 76.9115 31.9944 76.9237 31.9944C76.938 31.9944 76.938 31.9857 76.9217 31.9683C76.9074 31.9531 76.8993 31.9226 76.8993 31.8965C76.9013 31.853 76.9013 31.853 76.9115 31.8965C76.9176 31.9204 76.9298 31.9444 76.938 31.9509ZM87.8708 35.3468C90.6932 35.5101 93.3403 36.3809 95.7306 37.9286C98.1128 39.4742 100.155 41.7164 101.553 44.3265C103.489 47.9379 104.175 52.1981 103.489 56.3211C102.993 59.3012 101.763 62.1595 99.9754 64.4844C99.47 65.1418 98.6528 66.0474 98.1006 66.5611C95.5167 68.9709 92.4864 70.4359 89.1648 70.8822C88.3701 70.991 87.9951 71.0128 87.0455 71.0128C85.8921 71.0128 85.1911 70.9519 84.1111 70.7538C81.4028 70.2553 78.8148 69.0144 76.6568 67.1793C75.7234 66.3848 74.7596 65.3638 74.0137 64.3777C72.0717 61.8046 70.8348 58.7047 70.4496 55.4394C70.3477 54.5904 70.3273 54.1899 70.3273 53.1755C70.3273 52.1611 70.3477 51.7605 70.4496 50.9115C70.8714 47.3284 72.2897 43.9999 74.5537 41.281C74.8574 40.9153 75.4483 40.2775 75.7785 39.9596C78.4643 37.3648 81.7778 35.7931 85.3643 35.4121C86.1652 35.3272 87.1046 35.3033 87.8708 35.3468Z" fill="#91B3FA"></path><path d="M79.3848 27.6102C79.3848 27.6212 79.3949 27.6256 79.405 27.619C79.4171 27.6124 79.4252 27.6014 79.4252 27.5948C79.4252 27.5904 79.4171 27.586 79.405 27.586C79.3949 27.586 79.3848 27.597 79.3848 27.6102Z" fill="#91B3FA"></path><path d="M79.0684 27.8039C79.0623 27.8126 79.0705 27.8366 79.0868 27.854C79.1112 27.878 79.1112 27.8911 79.0929 27.915C79.0786 27.9324 79.097 27.9216 79.1295 27.8911C79.1642 27.8606 79.1947 27.8323 79.2008 27.8279C79.207 27.8235 79.1947 27.8257 79.1764 27.8323C79.156 27.841 79.1397 27.8366 79.1397 27.8279C79.1397 27.7996 79.0827 27.78 79.0684 27.8039Z" fill="#91B3FA"></path><path d="M78.8047 28.2099C78.759 28.2595 78.7649 28.2746 78.8126 28.2293C78.8345 28.2078 78.8523 28.1862 78.8523 28.1819C78.8523 28.1668 78.8345 28.1776 78.8047 28.2099Z" fill="#91B3FA"></path><path d="M76.7971 28.3472C76.7809 28.3582 76.7789 28.3713 76.791 28.3801C76.8011 28.3867 76.8153 28.3779 76.8234 28.3604C76.8355 28.323 76.8355 28.3208 76.7971 28.3472Z" fill="#91B3FA"></path><path d="M76.3622 28.7845C76.3562 28.8082 76.3602 28.8276 76.3701 28.8276C76.3801 28.8276 76.388 28.8082 76.388 28.7845C76.388 28.7608 76.384 28.7414 76.3801 28.7414C76.3761 28.7414 76.3681 28.7608 76.3622 28.7845Z" fill="#91B3FA"></path><path d="M78.4106 28.6518C78.3886 28.667 78.3886 28.6714 78.4146 28.6823C78.4346 28.691 78.4466 28.6844 78.4466 28.6649C78.4466 28.6279 78.4446 28.6279 78.4106 28.6518Z" fill="#91B3FA"></path><path d="M86.1187 37.1235C83.0029 37.3303 80.0175 38.5559 77.6211 40.6131C77.0158 41.1312 76.2027 41.9584 75.7239 42.5418C72.2698 46.7432 71.098 52.5293 72.6182 57.8757C73.1094 59.6063 73.9061 61.2934 74.9087 62.7389C77.5885 66.5919 81.5927 68.9256 86.0881 69.2521C86.5263 69.2847 87.5757 69.2847 88.0037 69.2543C90.9911 69.0322 93.7401 67.9481 96.0836 66.063C98.6838 63.971 100.571 61.0648 101.484 57.7473C102.444 54.2534 102.279 50.5614 101.009 47.1785C100.479 45.7614 99.7027 44.3442 98.7959 43.1404C98.3109 42.4939 97.5365 41.6231 96.9904 41.1138C94.4431 38.7235 91.2927 37.3456 87.861 37.1214C87.4759 37.0974 86.51 37.0974 86.1187 37.1235ZM87.5146 40.9962C90.1006 41.129 92.44 42.1021 94.4024 43.8653C94.7386 44.1679 95.4987 44.9842 95.7759 45.3391C97.3796 47.4028 98.2661 49.7647 98.4393 52.4357C98.4678 52.8885 98.4515 53.9138 98.4067 54.3622C98.2579 55.8969 97.8789 57.301 97.2574 58.6289C96.8559 59.4888 96.375 60.2703 95.7799 61.0344C95.5069 61.3827 94.7447 62.1968 94.4024 62.5038C92.497 64.2148 90.2004 65.2009 87.7286 65.3707C87.2008 65.4077 86.3184 65.3838 85.7927 65.3206C82.8256 64.9593 80.1826 63.4485 78.2772 61.0235C76.7285 59.0512 75.8033 56.5761 75.6362 53.9595C75.6138 53.5982 75.624 52.4879 75.6525 52.1745C75.8135 50.4526 76.2129 48.9832 76.9017 47.5704C78.104 45.0996 80.1276 43.0925 82.5322 41.9802C83.7712 41.4055 85.1915 41.055 86.4753 41.0027C86.6608 40.9962 86.8156 40.9875 86.8197 40.9831C86.834 40.9701 87.0744 40.9744 87.5146 40.9962Z" fill="#91B3FA"></path><path d="M80.3373 26.9501C80.3514 26.9559 80.3697 26.954 80.3757 26.9482C80.3838 26.9424 80.3717 26.9366 80.3494 26.9386C80.3272 26.9386 80.3211 26.9443 80.3373 26.9501Z" fill="#91B3FA"></path><path d="M80.2552 26.9706C80.2694 26.9764 80.2876 26.9745 80.2937 26.9687C80.3018 26.9629 80.2896 26.9571 80.2674 26.9591C80.2451 26.9591 80.2391 26.9648 80.2552 26.9706Z" fill="#91B3FA"></path><path d="M79.7614 27.11C79.7534 27.1231 79.7514 27.1361 79.7574 27.1426C79.7614 27.1492 79.7714 27.1383 79.7774 27.1187C79.7915 27.0818 79.7794 27.0752 79.7614 27.11Z" fill="#91B3FA"></path><path d="M79.6797 27.1502C79.6877 27.1632 79.7018 27.1676 79.7118 27.1611C79.7398 27.1415 79.7338 27.1284 79.6978 27.1284C79.6817 27.1284 79.6737 27.1393 79.6797 27.1502Z" fill="#91B3FA"></path><path d="M79.2103 27.3057C79.2164 27.3167 79.2326 27.3276 79.2427 27.3276C79.2549 27.3276 79.2569 27.3167 79.2508 27.3057C79.2448 27.2925 79.2286 27.2837 79.2184 27.2837C79.2063 27.2837 79.2043 27.2925 79.2103 27.3057Z" fill="#91B3FA"></path><path d="M79.1091 27.3283C79.1011 27.3413 79.099 27.3544 79.1051 27.3609C79.1091 27.3674 79.1191 27.3565 79.1251 27.337C79.1391 27.3 79.1271 27.2935 79.1091 27.3283Z" fill="#91B3FA"></path><path d="M78.4222 27.6484C78.4143 27.6743 78.4182 27.6916 78.4282 27.6829C78.4381 27.6765 78.446 27.6829 78.446 27.6959C78.446 27.7088 78.456 27.7131 78.4679 27.7045C78.4818 27.6959 78.4818 27.6851 78.4718 27.6765C78.4599 27.67 78.448 27.6484 78.4421 27.6312C78.4361 27.6096 78.4301 27.6139 78.4222 27.6484Z" fill="#91B3FA"></path><path d="M110.495 14.8829C110.366 15.1477 110.236 15.4116 110.208 15.4701C110.08 15.7309 109.964 15.9672 109.91 16.0793C109.877 16.1459 109.85 16.202 109.849 16.2036C109.848 16.2052 109.497 16.215 108.747 16.2337C108.646 16.2361 108.428 16.2418 108.261 16.2467C108.094 16.2507 107.957 16.254 107.956 16.2523C107.954 16.2499 107.695 15.7812 107.494 15.4173C107.173 14.8357 106.985 14.4954 106.984 14.4946C106.983 14.4938 106.9 14.5149 106.801 14.5417C106.662 14.5783 106.616 14.5937 106.608 14.6059C106.602 14.614 106.594 14.6197 106.59 14.6172C106.586 14.614 106.583 14.6164 106.583 14.6213C106.583 14.627 106.578 14.6294 106.572 14.6262C106.566 14.6237 106.561 14.6262 106.561 14.6319C106.561 14.6392 106.559 14.6392 106.554 14.6319C106.546 14.6172 106.527 14.6156 106.526 14.6294C106.526 14.6359 106.523 14.6416 106.517 14.6416C106.512 14.6416 106.504 14.6465 106.499 14.6514C106.485 14.666 106.496 14.6644 106.524 14.6489C106.536 14.6416 106.545 14.64 106.542 14.644C106.54 14.6481 106.52 14.6619 106.498 14.6741C106.476 14.6863 106.447 14.7058 106.434 14.7163C106.414 14.7326 106.41 14.7334 106.405 14.7228C106.403 14.7155 106.404 14.7115 106.407 14.7139C106.411 14.7163 106.414 14.7131 106.414 14.7074C106.414 14.7009 106.408 14.6985 106.4 14.7001C106.389 14.7033 106.388 14.7001 106.391 14.6863C106.393 14.6765 106.398 14.6717 106.4 14.6765C106.406 14.6863 106.44 14.6952 106.434 14.6855C106.432 14.6814 106.434 14.6782 106.438 14.6782C106.442 14.6782 106.446 14.6822 106.448 14.6879C106.45 14.6952 106.453 14.6952 106.457 14.6879C106.46 14.6822 106.459 14.6782 106.455 14.6782C106.45 14.6782 106.446 14.6749 106.446 14.6709C106.446 14.666 106.453 14.6644 106.461 14.666C106.478 14.6692 106.488 14.6497 106.475 14.6408C106.471 14.6375 106.469 14.6384 106.472 14.6432C106.475 14.6481 106.472 14.6538 106.465 14.6562C106.459 14.6595 106.456 14.657 106.459 14.6489C106.462 14.6432 106.459 14.6375 106.455 14.6375C106.45 14.6375 106.446 14.6432 106.446 14.6497C106.446 14.6684 106.415 14.6798 106.403 14.6644C106.396 14.6546 106.394 14.6554 106.389 14.6692C106.387 14.679 106.38 14.6863 106.375 14.6863C106.369 14.6863 106.359 14.6944 106.352 14.7042C106.346 14.7147 106.342 14.7171 106.345 14.7098C106.347 14.7017 106.345 14.6936 106.339 14.6895C106.334 14.6863 106.332 14.6871 106.335 14.6912C106.337 14.6952 106.329 14.6993 106.316 14.6993C106.299 14.7001 106.296 14.6985 106.302 14.6903C106.309 14.6814 106.307 14.6806 106.294 14.6838C106.286 14.6863 106.277 14.6912 106.275 14.6952C106.273 14.6985 106.266 14.6993 106.258 14.6968C106.248 14.6936 106.248 14.6952 106.26 14.705C106.273 14.7163 106.274 14.718 106.262 14.7188C106.256 14.7188 106.247 14.7147 106.245 14.7098C106.241 14.7042 106.235 14.7058 106.227 14.7139C106.219 14.7212 106.21 14.7245 106.206 14.7212C106.202 14.7171 106.202 14.718 106.205 14.7228C106.209 14.7277 106.216 14.731 106.221 14.731C106.226 14.731 106.231 14.7383 106.232 14.7472C106.234 14.7594 106.233 14.7602 106.228 14.7529C106.222 14.744 106.22 14.744 106.216 14.7545C106.213 14.7618 106.208 14.7675 106.203 14.7675C106.199 14.7675 106.197 14.7634 106.199 14.7594C106.202 14.7545 106.2 14.7513 106.196 14.7513C106.192 14.7513 106.188 14.7561 106.188 14.761C106.188 14.7683 106.185 14.7675 106.18 14.7594C106.177 14.7529 106.173 14.7513 106.173 14.7561C106.173 14.761 106.155 14.7643 106.131 14.7643C106.104 14.7643 106.092 14.7618 106.098 14.757C106.105 14.7521 106.104 14.7513 106.094 14.7545C106.087 14.757 106.078 14.7594 106.076 14.7594C106.074 14.7594 106.076 14.7651 106.082 14.7716C106.089 14.7813 106.089 14.7838 106.079 14.7838C106.072 14.7838 106.065 14.7797 106.062 14.7756C106.059 14.7691 106.054 14.7699 106.047 14.7756C106.041 14.7813 106.034 14.7829 106.03 14.7813C106.027 14.7789 106.019 14.7805 106.013 14.7846C106.003 14.7919 106.003 14.7927 106.013 14.7894C106.03 14.7846 106.051 14.7984 106.05 14.8146C106.05 14.8236 106.049 14.8252 106.046 14.8179C106.043 14.8097 106.04 14.8106 106.032 14.8219C106.023 14.8341 106.019 14.8349 106.006 14.826C105.996 14.8203 105.99 14.8195 105.99 14.8244C105.99 14.8284 105.987 14.8325 105.983 14.8325C105.98 14.8325 105.977 14.826 105.979 14.8179C105.98 14.8089 105.986 14.8049 105.995 14.8065C106.005 14.8089 106.007 14.8065 106.002 14.8008C105.997 14.7959 105.986 14.7943 105.977 14.7976C105.964 14.8008 105.961 14.8049 105.967 14.8122C105.979 14.8268 105.966 14.8341 105.942 14.8284C105.929 14.8244 105.921 14.8284 105.911 14.8455C105.904 14.8569 105.901 14.8642 105.906 14.8617C105.911 14.8577 105.913 14.8634 105.913 14.8764C105.911 14.895 105.909 14.8967 105.872 14.895C105.837 14.8934 105.834 14.8918 105.847 14.8845C105.858 14.8788 105.86 14.8731 105.854 14.8699C105.85 14.8666 105.848 14.8601 105.85 14.8552C105.853 14.8496 105.852 14.8487 105.847 14.852C105.843 14.8552 105.84 14.8625 105.843 14.8682C105.845 14.8747 105.84 14.882 105.829 14.8853C105.804 14.8942 105.762 14.8967 105.767 14.8885C105.771 14.8804 105.748 14.8885 105.735 14.8983C105.73 14.9023 105.724 14.904 105.721 14.9015C105.719 14.8991 105.72 14.9023 105.724 14.9072C105.735 14.921 105.734 14.9324 105.723 14.9251C105.715 14.9202 105.715 14.9218 105.723 14.9308C105.736 14.947 105.733 14.9625 105.716 14.9625C105.707 14.9625 105.703 14.9584 105.705 14.9543C105.708 14.9495 105.714 14.9486 105.719 14.9519C105.724 14.9551 105.723 14.9519 105.717 14.9438C105.707 14.93 105.689 14.9243 105.697 14.9373C105.699 14.9413 105.696 14.9486 105.69 14.9543C105.681 14.9625 105.675 14.9625 105.661 14.9551C105.647 14.947 105.647 14.9462 105.66 14.9503C105.675 14.9543 105.675 14.9543 105.66 14.9421C105.646 14.9308 105.644 14.9308 105.639 14.9462C105.636 14.9551 105.629 14.9625 105.625 14.9625C105.618 14.9625 105.619 14.9584 105.626 14.9486C105.635 14.9365 105.635 14.9356 105.623 14.9405C105.615 14.9438 105.608 14.9462 105.607 14.9462C105.606 14.9462 105.606 14.9633 105.607 14.9852L105.61 15.0234L105.568 15.0258C105.542 15.0274 105.526 15.025 105.526 15.0201C105.526 15.0153 105.523 15.0112 105.518 15.0112C105.514 15.0112 105.512 15.0144 105.515 15.0185C105.517 15.0234 105.512 15.025 105.504 15.0234C105.495 15.0217 105.488 15.0242 105.488 15.0282C105.488 15.0331 105.485 15.0339 105.48 15.0307C105.469 15.0242 105.481 15.0112 105.501 15.0071C105.509 15.0055 105.517 15.0039 105.519 15.0031C105.521 15.0023 105.528 15.0006 105.534 14.9998C105.54 14.9998 105.545 14.9941 105.543 14.9884C105.542 14.9836 105.547 14.9787 105.553 14.9787C105.559 14.9787 105.564 14.9844 105.564 14.9925C105.564 15.0055 105.575 15.0006 105.577 14.986C105.579 14.9681 105.58 14.9673 105.587 14.9787C105.593 14.9884 105.594 14.9868 105.593 14.9722C105.593 14.9625 105.591 14.9543 105.59 14.9543C105.577 14.9543 105.179 15.1403 105.028 15.2167C104.966 15.2484 104.914 15.2744 104.913 15.2752C104.912 15.2752 104.923 15.3613 104.938 15.4661C104.988 15.8267 105.051 16.2873 105.142 16.9485C105.165 17.1182 105.187 17.2652 105.188 17.275C105.191 17.2904 105.093 17.3733 104.449 17.8996C104.04 18.2335 103.701 18.5096 103.696 18.5145C103.685 18.5234 103.705 18.5324 103.321 18.3553C102.586 18.0166 101.948 17.7217 101.941 17.7193C101.932 17.7152 101.792 17.8882 101.655 18.0734C101.313 18.534 101.027 18.9937 100.763 19.5063L100.688 19.6509L100.844 19.819C100.93 19.9108 101.23 20.2381 101.512 20.5452L102.023 21.1048L101.756 22.0682C101.61 22.5978 101.487 23.034 101.483 23.038C101.48 23.0413 101.062 23.1444 100.556 23.2663C100.049 23.3881 99.632 23.4896 99.6297 23.4921C99.6244 23.4978 99.613 23.6342 99.6069 23.7626C99.6039 23.8121 99.6008 23.8633 99.5985 23.8771C99.5894 23.9396 99.5864 24.6617 99.5947 24.8356C99.6024 24.998 99.6259 25.3294 99.6373 25.4407C99.6571 25.6348 99.6814 25.8274 99.6852 25.8314C99.6883 25.8338 99.848 25.8639 100.04 25.898C100.233 25.9329 100.583 25.9955 100.82 26.0377C101.056 26.0808 101.319 26.1279 101.404 26.1433C101.49 26.1588 101.56 26.1726 101.563 26.1742C101.564 26.1766 101.708 26.6047 101.881 27.127C102.153 27.9441 102.194 28.0773 102.185 28.0879C102.18 28.0952 101.896 28.4396 101.555 28.8547L100.935 29.6076L100.975 29.6791C101.319 30.2826 101.739 30.8691 102.199 31.3873L102.276 31.4734L103.13 31.0202C103.979 30.5694 103.986 30.5661 104.005 30.5791C104.016 30.5872 104.121 30.6628 104.238 30.7489C104.355 30.835 104.68 31.0722 104.96 31.2769C105.241 31.4815 105.485 31.6619 105.506 31.6781C105.537 31.7033 105.542 31.7106 105.542 31.7358C105.542 31.7683 105.523 31.9884 105.485 32.4303C105.47 32.6 105.443 32.9201 105.424 33.141C105.405 33.3619 105.384 33.5878 105.38 33.6422L105.37 33.7421L105.473 33.7868C105.884 33.9687 106.405 34.1498 106.854 34.2668C106.992 34.3026 107.347 34.3822 107.458 34.4017C107.477 34.4049 107.491 34.3773 107.821 33.6982C108.011 33.3092 108.209 32.9014 108.263 32.7917L108.361 32.5927L109.219 32.5667C109.691 32.5529 110.117 32.5407 110.165 32.5407L110.252 32.5399L110.336 32.6886C110.381 32.7698 110.6 33.1613 110.821 33.5593C111.041 33.9565 111.225 34.2847 111.228 34.2871C111.231 34.2904 111.3 34.2741 111.381 34.2522C111.902 34.1125 112.42 33.924 112.896 33.7007C113.005 33.6495 113.291 33.5082 113.296 33.5033C113.297 33.5017 113.25 33.1629 113.192 32.7503C113.069 31.8796 113.014 31.4832 113.018 31.4807C113.024 31.4759 114.417 30.3281 114.469 30.2843L114.512 30.2485L114.754 30.3582C114.888 30.4183 115.277 30.5962 115.62 30.7529C115.963 30.9105 116.249 31.0413 116.257 31.0429C116.286 31.0519 116.68 30.5223 116.922 30.1478C117.117 29.8465 117.394 29.3575 117.488 29.1512L117.505 29.113L117.35 28.9424C117.264 28.849 116.964 28.5225 116.682 28.2179C116.218 27.7159 116.17 27.6623 116.174 27.6428C116.179 27.62 116.696 25.7226 116.699 25.7201C116.701 25.7177 117.238 25.5861 117.518 25.5187C117.619 25.4943 117.99 25.405 118.434 25.2969C118.501 25.2807 118.557 25.2661 118.559 25.2653C118.564 25.2604 118.581 24.959 118.59 24.7097C118.607 24.2272 118.584 23.6757 118.524 23.1785C118.514 23.0892 118.503 22.999 118.501 22.9787C118.498 22.9576 118.494 22.9357 118.491 22.93C118.487 22.9235 118.352 22.8967 118.128 22.8569C117.377 22.7253 116.609 22.5888 116.608 22.5872C116.598 22.5734 115.975 20.6914 115.977 20.6841C115.979 20.6776 116.26 20.3315 116.601 19.914C116.942 19.4965 117.221 19.1521 117.221 19.1489C117.221 19.1464 117.197 19.101 117.166 19.049C116.828 18.465 116.43 17.9126 115.988 17.4131L115.881 17.2937L115.033 17.7485C114.565 17.9995 114.178 18.2026 114.171 18.201C114.162 18.1985 113.433 17.6714 112.921 17.2977C112.884 17.2701 112.799 17.2084 112.733 17.1605C112.593 17.0597 112.606 17.0906 112.625 16.8867C112.631 16.8177 112.644 16.6552 112.655 16.5261C112.666 16.3961 112.676 16.2718 112.678 16.2499C112.68 16.2272 112.687 16.1451 112.693 16.0671C112.7 15.9892 112.707 15.9063 112.708 15.8844C112.71 15.8616 112.726 15.6756 112.742 15.4701C112.759 15.2646 112.774 15.0835 112.777 15.0672L112.78 15.0388L112.612 14.9673C112.101 14.7505 111.601 14.588 111.089 14.471C110.925 14.4337 110.768 14.402 110.747 14.402C110.733 14.402 110.694 14.4783 110.495 14.8829ZM106.241 14.7188C106.241 14.7228 106.237 14.7269 106.233 14.7269C106.229 14.7269 106.228 14.7228 106.23 14.7188C106.232 14.7139 106.236 14.7107 106.238 14.7107C106.24 14.7107 106.241 14.7139 106.241 14.7188ZM106.389 14.7277C106.387 14.731 106.39 14.735 106.395 14.7366C106.403 14.7399 106.377 14.7618 106.363 14.7634C106.361 14.7634 106.348 14.7756 106.333 14.7903C106.319 14.8041 106.305 14.8138 106.304 14.8122C106.301 14.8097 106.295 14.8146 106.29 14.8227C106.281 14.8357 106.28 14.8349 106.279 14.8195C106.279 14.8097 106.285 14.7976 106.291 14.7919C106.297 14.7862 106.3 14.7781 106.297 14.774C106.294 14.7683 106.301 14.7667 106.316 14.7691C106.333 14.7716 106.34 14.7699 106.34 14.7618C106.34 14.7553 106.343 14.7521 106.347 14.7545C106.35 14.757 106.359 14.7521 106.367 14.7431C106.382 14.7253 106.373 14.7204 106.355 14.7366C106.346 14.7456 106.346 14.7448 106.354 14.7334C106.364 14.7204 106.396 14.7155 106.389 14.7277ZM106.268 14.7496C106.261 14.7513 106.258 14.7561 106.26 14.7602C106.262 14.7643 106.259 14.7651 106.253 14.7626C106.242 14.7578 106.242 14.7561 106.253 14.7423C106.264 14.7301 106.268 14.7285 106.273 14.7366C106.276 14.7431 106.275 14.748 106.268 14.7496ZM106.291 14.7748C106.293 14.7789 106.291 14.7846 106.287 14.7878C106.283 14.7903 106.279 14.787 106.279 14.7805C106.279 14.7659 106.284 14.7634 106.291 14.7748ZM106.059 14.7838C106.059 14.7878 106.055 14.7919 106.05 14.7919C106.047 14.7919 106.045 14.7878 106.047 14.7838C106.05 14.7789 106.053 14.7756 106.056 14.7756C106.057 14.7756 106.059 14.7789 106.059 14.7838ZM106.085 14.8146C106.078 14.8162 106.075 14.8211 106.078 14.8252C106.08 14.8292 106.077 14.8301 106.07 14.8276C106.059 14.8227 106.059 14.8211 106.071 14.8073C106.082 14.7951 106.085 14.7935 106.091 14.8016C106.094 14.8081 106.092 14.813 106.085 14.8146ZM106.256 14.8528C106.237 14.8755 106.222 14.8755 106.221 14.852C106.22 14.8357 106.224 14.8333 106.246 14.8341L106.272 14.8349L106.256 14.8528ZM106.15 14.9218C106.154 14.9218 106.161 14.9153 106.164 14.9072C106.17 14.8983 106.172 14.8967 106.173 14.9048C106.173 14.9137 106.175 14.9137 106.184 14.9056C106.191 14.8999 106.196 14.8991 106.196 14.904C106.196 14.9088 106.177 14.9283 106.156 14.9478C106.134 14.9665 106.111 14.9884 106.106 14.9949C106.1 15.0014 106.097 15.0023 106.101 14.9974C106.104 14.9909 106.101 14.9884 106.094 14.9917C106.088 14.9941 106.082 14.9901 106.078 14.9828C106.076 14.9746 106.077 14.9714 106.082 14.9755C106.087 14.9779 106.097 14.973 106.105 14.9633C106.117 14.9495 106.118 14.9454 106.109 14.9365C106.1 14.9275 106.1 14.9243 106.11 14.9121C106.12 14.8999 106.123 14.8999 106.132 14.9097C106.139 14.9162 106.146 14.9218 106.15 14.9218ZM106.062 14.9706C106.066 14.9755 106.062 14.9763 106.054 14.973C106.043 14.969 106.042 14.9706 106.046 14.9819C106.049 14.9901 106.048 14.9941 106.043 14.9909C106.032 14.9836 106.034 14.9625 106.047 14.9625C106.053 14.9625 106.06 14.9657 106.062 14.9706ZM106.069 15.0234C106.073 15.0339 105.99 15.1249 105.977 15.1249C105.972 15.1249 105.966 15.1282 105.964 15.133C105.961 15.1379 105.964 15.1387 105.972 15.1355C105.983 15.1314 105.982 15.1338 105.97 15.1468C105.961 15.1558 105.951 15.1704 105.946 15.1785C105.942 15.1866 105.936 15.1907 105.932 15.1875C105.929 15.1842 105.935 15.172 105.945 15.1598C105.962 15.1403 105.962 15.1387 105.948 15.1436C105.936 15.1485 105.937 15.1452 105.954 15.1298C105.965 15.1192 105.972 15.1079 105.969 15.1046C105.966 15.1014 105.967 15.1005 105.972 15.1022C105.976 15.103 105.991 15.0908 106.005 15.0737C106.024 15.051 106.032 15.0453 106.037 15.0534C106.042 15.0616 106.043 15.0607 106.043 15.0494C106.043 15.0421 106.04 15.0356 106.034 15.0356C106.03 15.0356 106.028 15.0331 106.031 15.0307C106.034 15.0274 106.04 15.0299 106.047 15.0347C106.054 15.0412 106.059 15.0421 106.062 15.0356C106.065 15.0315 106.064 15.0274 106.06 15.0274C106.056 15.0274 106.051 15.0217 106.049 15.0161C106.046 15.0079 106.048 15.0055 106.055 15.0079C106.06 15.0104 106.067 15.0169 106.069 15.0234ZM106 15.0437C106.003 15.0437 106.004 15.0404 106.002 15.0356C105.999 15.0307 106.002 15.0299 106.009 15.0323C106.015 15.0347 106.021 15.0404 106.021 15.0445C106.021 15.0575 105.993 15.0526 105.982 15.0372C105.974 15.0258 105.974 15.025 105.983 15.0331C105.989 15.0388 105.996 15.0437 106 15.0437ZM105.444 15.0429C105.433 15.0502 105.438 15.0681 105.451 15.0681C105.456 15.0681 105.456 15.064 105.453 15.0583C105.45 15.0526 105.451 15.0518 105.457 15.0551C105.462 15.0583 105.471 15.0567 105.477 15.0518C105.487 15.0437 105.488 15.0453 105.488 15.0648C105.488 15.0851 105.486 15.0859 105.481 15.0721C105.475 15.0583 105.474 15.0575 105.469 15.0689C105.466 15.077 105.459 15.081 105.45 15.0786C105.443 15.0762 105.434 15.0786 105.432 15.0835C105.429 15.0884 105.423 15.0924 105.419 15.0924C105.415 15.0924 105.414 15.0884 105.416 15.0843C105.418 15.0794 105.417 15.0762 105.413 15.0762C105.409 15.0762 105.405 15.0802 105.405 15.0859C105.405 15.0908 105.402 15.0924 105.399 15.09C105.397 15.0867 105.401 15.0762 105.409 15.0672C105.424 15.0494 105.424 15.0494 105.407 15.0607C105.397 15.0672 105.39 15.077 105.39 15.0819C105.39 15.0908 105.387 15.0908 105.374 15.0827C105.359 15.0721 105.359 15.0681 105.376 15.0648C105.381 15.0632 105.398 15.0567 105.412 15.0494C105.441 15.0356 105.461 15.0315 105.444 15.0429ZM105.998 15.0689C105.998 15.0802 105.985 15.077 105.98 15.0648C105.977 15.0567 105.98 15.0542 105.987 15.0575C105.993 15.0599 105.998 15.0648 105.998 15.0689ZM105.359 15.09C105.359 15.094 105.351 15.0973 105.34 15.0973C105.329 15.0981 105.323 15.0957 105.326 15.0916C105.33 15.0827 105.359 15.0819 105.359 15.09ZM105.947 15.1038C105.95 15.1127 105.948 15.1143 105.939 15.1111C105.93 15.107 105.928 15.1095 105.932 15.1192C105.935 15.1282 105.933 15.1306 105.925 15.1273C105.911 15.1217 105.911 15.1208 105.926 15.1054C105.941 15.0892 105.942 15.0892 105.947 15.1038ZM105.31 15.1241C105.307 15.129 105.3 15.133 105.293 15.133C105.283 15.133 105.282 15.1347 105.291 15.1468C105.301 15.1598 105.301 15.1606 105.289 15.1501C105.278 15.1412 105.276 15.1412 105.275 15.1501C105.275 15.1582 105.273 15.159 105.27 15.1509C105.269 15.146 105.263 15.1412 105.26 15.1412C105.255 15.1412 105.253 15.1444 105.256 15.1477C105.257 15.1509 105.246 15.1542 105.229 15.1542L105.199 15.155L105.235 15.1355C105.255 15.1249 105.276 15.1152 105.281 15.1135C105.286 15.1127 105.293 15.1095 105.296 15.1062C105.304 15.0981 105.317 15.1135 105.31 15.1241ZM105.344 15.1249C105.344 15.129 105.341 15.133 105.336 15.133C105.333 15.133 105.329 15.129 105.329 15.1249C105.329 15.12 105.333 15.1168 105.336 15.1168C105.341 15.1168 105.344 15.12 105.344 15.1249ZM105.929 15.1696C105.925 15.1753 105.924 15.1866 105.927 15.194C105.93 15.2045 105.929 15.2069 105.923 15.2029C105.913 15.1964 105.911 15.1639 105.919 15.155C105.928 15.1452 105.938 15.1582 105.929 15.1696ZM105.179 15.1834C105.18 15.1891 105.177 15.1988 105.17 15.2045C105.159 15.2134 105.159 15.2134 105.171 15.2094C105.178 15.2069 105.184 15.2086 105.184 15.2134C105.184 15.224 105.142 15.2256 105.136 15.2151C105.133 15.211 105.139 15.2061 105.148 15.2037C105.157 15.2004 105.162 15.1964 105.16 15.194C105.158 15.1907 105.148 15.1923 105.139 15.198C105.126 15.2053 105.123 15.2143 105.123 15.2638C105.123 15.3125 105.122 15.3207 105.112 15.3166C105.102 15.3134 105.102 15.315 105.108 15.328C105.112 15.3361 105.113 15.345 105.11 15.3475C105.106 15.3499 105.104 15.3621 105.104 15.3743C105.107 15.4181 105.108 15.4222 105.114 15.4116C105.117 15.4068 105.12 15.4198 105.12 15.4401C105.12 15.4612 105.12 15.4734 105.118 15.4677C105.116 15.4628 105.111 15.4596 105.108 15.462C105.104 15.4644 105.101 15.4596 105.102 15.4523C105.102 15.4441 105.099 15.4068 105.095 15.3686C105.076 15.2029 105.076 15.2078 105.089 15.2305C105.101 15.2508 105.101 15.2508 105.098 15.2321C105.095 15.2159 105.096 15.2151 105.107 15.224C105.117 15.2329 105.118 15.2329 105.114 15.2208C105.11 15.2094 105.116 15.2021 105.137 15.1907C105.171 15.1712 105.174 15.1704 105.179 15.1834ZM105.899 15.2329C105.899 15.237 105.885 15.2589 105.867 15.2825C105.831 15.3304 105.818 15.3442 105.825 15.3312C105.828 15.3264 105.825 15.3223 105.819 15.3223C105.812 15.3223 105.811 15.3264 105.815 15.3361C105.825 15.354 105.799 15.3816 105.783 15.3718C105.777 15.3678 105.777 15.3702 105.785 15.3808C105.792 15.3897 105.793 15.3938 105.787 15.3897C105.78 15.3856 105.777 15.3897 105.777 15.4003C105.777 15.41 105.774 15.4173 105.771 15.4173C105.755 15.4173 105.756 15.4011 105.775 15.3718C105.787 15.3523 105.795 15.3304 105.794 15.3134C105.793 15.293 105.796 15.2874 105.807 15.2874C105.815 15.2874 105.824 15.293 105.826 15.3004C105.833 15.3207 105.86 15.2809 105.856 15.2565C105.854 15.2459 105.855 15.2346 105.857 15.2305C105.863 15.2208 105.899 15.2232 105.899 15.2329ZM105.759 15.3686C105.759 15.3751 105.755 15.3889 105.749 15.3986C105.742 15.4116 105.742 15.4181 105.748 15.4222C105.754 15.4263 105.755 15.4246 105.751 15.4165C105.745 15.4068 105.746 15.4068 105.757 15.4165C105.771 15.4279 105.767 15.4458 105.753 15.4368C105.748 15.4336 105.747 15.4344 105.749 15.4393C105.752 15.4441 105.749 15.4539 105.744 15.462C105.736 15.475 105.734 15.4685 105.732 15.4141C105.731 15.3572 105.732 15.3515 105.745 15.354C105.752 15.3556 105.758 15.3621 105.759 15.3686ZM105.123 15.3767C105.123 15.3808 105.122 15.3848 105.12 15.3848C105.118 15.3848 105.114 15.3808 105.112 15.3767C105.11 15.3718 105.111 15.3686 105.115 15.3686C105.12 15.3686 105.123 15.3718 105.123 15.3767ZM105.723 15.4977C105.72 15.505 105.708 15.5254 105.698 15.5432C105.688 15.5611 105.674 15.5765 105.666 15.5773C105.653 15.5798 105.653 15.579 105.667 15.5725C105.678 15.5668 105.679 15.5643 105.671 15.5635C105.665 15.5619 105.656 15.5619 105.653 15.5627C105.65 15.5635 105.65 15.5595 105.652 15.5546C105.655 15.5497 105.664 15.5473 105.672 15.5497C105.683 15.553 105.685 15.5513 105.679 15.5392C105.668 15.518 105.669 15.5115 105.681 15.5221C105.687 15.527 105.694 15.5286 105.696 15.5254C105.706 15.5148 105.701 15.501 105.685 15.4929C105.669 15.4847 105.671 15.4839 105.699 15.4839C105.727 15.4839 105.73 15.4864 105.723 15.4977ZM105.12 15.5189C105.12 15.5457 105.108 15.5457 105.108 15.5189C105.108 15.5075 105.111 15.4986 105.115 15.4986C105.119 15.4986 105.121 15.5075 105.12 15.5189ZM105.637 15.5554C105.634 15.5595 105.628 15.5635 105.623 15.5635C105.618 15.5635 105.618 15.5603 105.625 15.5554C105.64 15.5457 105.643 15.5457 105.637 15.5554ZM105.121 15.5976C105.119 15.6033 105.117 15.5993 105.117 15.5879C105.117 15.5765 105.119 15.5725 105.121 15.5773C105.123 15.583 105.123 15.5928 105.121 15.5976ZM105.633 15.5879C105.633 15.592 105.631 15.596 105.63 15.596C105.628 15.596 105.624 15.592 105.621 15.5879C105.619 15.583 105.621 15.5798 105.625 15.5798C105.629 15.5798 105.633 15.583 105.633 15.5879ZM105.637 15.609C105.618 15.6236 105.61 15.6236 105.61 15.6082C105.61 15.6017 105.615 15.5985 105.621 15.6009C105.627 15.6033 105.634 15.6009 105.637 15.596C105.64 15.5912 105.644 15.5895 105.647 15.592C105.65 15.5952 105.645 15.6025 105.637 15.609ZM105.627 15.6626C105.621 15.6708 105.618 15.6772 105.622 15.6772C105.626 15.6772 105.622 15.6829 105.615 15.6894C105.606 15.6959 105.602 15.7016 105.605 15.7016C105.612 15.7016 105.588 15.7528 105.578 15.7593C105.574 15.7617 105.571 15.769 105.569 15.7755C105.562 15.817 105.548 15.834 105.538 15.8153C105.535 15.8105 105.537 15.808 105.543 15.8088C105.55 15.8105 105.553 15.8023 105.553 15.7828C105.553 15.7634 105.557 15.7536 105.566 15.752C105.573 15.7504 105.58 15.739 105.581 15.726C105.583 15.7081 105.582 15.7041 105.576 15.7097C105.569 15.7154 105.563 15.7138 105.556 15.7041C105.546 15.6902 105.546 15.6902 105.56 15.7016C105.574 15.713 105.574 15.7122 105.571 15.7008C105.567 15.6902 105.569 15.6878 105.581 15.6919C105.592 15.6943 105.596 15.6927 105.592 15.687C105.588 15.6805 105.59 15.6789 105.598 15.6821C105.607 15.6862 105.61 15.6813 105.61 15.6643C105.61 15.6456 105.612 15.6431 105.618 15.6529C105.624 15.6634 105.625 15.6626 105.625 15.6504C105.625 15.6431 105.621 15.6366 105.616 15.6366C105.609 15.6366 105.61 15.6342 105.618 15.6285C105.634 15.6171 105.642 15.6448 105.627 15.6626ZM105.656 15.6236C105.656 15.6261 105.653 15.6301 105.648 15.6326C105.644 15.635 105.64 15.6334 105.64 15.6293C105.64 15.6245 105.644 15.6204 105.648 15.6204C105.653 15.6204 105.656 15.622 105.656 15.6236ZM105.142 15.7097C105.139 15.7309 105.14 15.7422 105.145 15.7422C105.15 15.7422 105.153 15.7357 105.152 15.7276C105.15 15.6992 105.154 15.6772 105.161 15.6772C105.166 15.6772 105.169 15.6846 105.169 15.6935C105.169 15.7024 105.173 15.7097 105.177 15.7097C105.185 15.7097 105.187 15.7414 105.18 15.7617C105.177 15.769 105.172 15.7747 105.169 15.7747C105.161 15.7747 105.163 15.7585 105.172 15.7439C105.176 15.7374 105.175 15.7292 105.17 15.7235C105.161 15.7146 105.161 15.7154 105.158 15.7666C105.157 15.7877 105.167 15.8097 105.176 15.804C105.178 15.8023 105.18 15.8186 105.181 15.8405C105.181 15.8657 105.178 15.8795 105.174 15.8779C105.169 15.8763 105.165 15.8584 105.165 15.8389C105.165 15.8105 105.163 15.804 105.153 15.8056C105.143 15.8072 105.14 15.7975 105.136 15.7601C105.133 15.7341 105.133 15.7049 105.136 15.6951C105.143 15.6651 105.148 15.6748 105.142 15.7097ZM105.561 15.7252C105.563 15.7292 105.562 15.7349 105.558 15.7374C105.555 15.7398 105.552 15.7365 105.552 15.73C105.552 15.7162 105.554 15.7146 105.561 15.7252ZM105.511 15.817C105.511 15.8218 105.514 15.8235 105.516 15.821C105.519 15.8186 105.527 15.8194 105.536 15.8243C105.55 15.8324 105.55 15.8332 105.536 15.8454C105.529 15.8519 105.526 15.8551 105.532 15.8519C105.539 15.8486 105.539 15.8527 105.533 15.8722C105.529 15.8852 105.522 15.8941 105.517 15.8917C105.514 15.8893 105.51 15.8917 105.512 15.8974C105.514 15.9193 105.511 15.9299 105.503 15.9242C105.498 15.9217 105.496 15.912 105.498 15.9039C105.501 15.8949 105.499 15.8884 105.495 15.8884C105.491 15.8884 105.488 15.8787 105.488 15.8657C105.488 15.8495 105.491 15.847 105.495 15.8559C105.5 15.8624 105.501 15.8698 105.499 15.873C105.498 15.8763 105.499 15.8811 105.504 15.8844C105.515 15.8917 105.521 15.8519 105.511 15.8324C105.507 15.8226 105.499 15.8178 105.494 15.8202C105.489 15.8235 105.488 15.8226 105.491 15.817C105.498 15.8048 105.511 15.8048 105.511 15.817ZM105.157 15.8559C105.159 15.8795 105.158 15.8876 105.153 15.8795C105.146 15.8681 105.143 15.8097 105.15 15.817C105.152 15.8186 105.155 15.8365 105.157 15.8559ZM105.507 15.8405C105.516 15.8535 105.508 15.8559 105.498 15.843C105.492 15.8365 105.491 15.8316 105.495 15.8316C105.499 15.8316 105.505 15.8356 105.507 15.8405ZM105.176 15.9599C105.172 15.9615 105.169 15.9729 105.169 15.9843C105.169 15.9981 105.171 16.0022 105.175 15.9965C105.179 15.9908 105.181 16.0054 105.181 16.0298C105.18 16.0939 105.168 16.0623 105.166 15.9932C105.166 15.9632 105.163 15.9404 105.161 15.942C105.158 15.9437 105.156 15.9331 105.156 15.9185L105.155 15.8925L105.169 15.925C105.176 15.9429 105.179 15.9583 105.176 15.9599ZM105.443 15.9404C105.443 15.9429 105.44 15.9469 105.435 15.9494C105.431 15.9518 105.428 15.9502 105.428 15.9461C105.428 15.9412 105.431 15.9372 105.435 15.9372C105.44 15.9372 105.443 15.9388 105.443 15.9404ZM105.496 15.9485C105.496 15.964 105.483 15.9721 105.477 15.9615C105.475 15.9575 105.477 15.9534 105.482 15.9534C105.489 15.9534 105.489 15.951 105.481 15.9453C105.471 15.9388 105.472 15.9372 105.483 15.9372C105.49 15.9372 105.496 15.942 105.496 15.9485ZM105.45 15.9729C105.45 15.99 105.466 15.9981 105.474 15.9851C105.479 15.977 105.48 15.9794 105.479 15.9916C105.478 16.0062 105.474 16.0087 105.459 16.0046C105.446 16.0013 105.442 16.003 105.446 16.0095C105.449 16.0143 105.457 16.0184 105.464 16.0192C105.472 16.0192 105.473 16.0208 105.467 16.0241C105.463 16.0257 105.46 16.0314 105.462 16.0346C105.464 16.0387 105.463 16.0436 105.458 16.0468C105.454 16.0493 105.45 16.0476 105.45 16.0436C105.45 16.0387 105.447 16.0346 105.442 16.0346C105.438 16.0346 105.437 16.0379 105.439 16.0428C105.447 16.0574 105.45 16.0858 105.444 16.098C105.439 16.1061 105.436 16.1069 105.432 16.1004C105.429 16.0956 105.43 16.0915 105.433 16.0915C105.437 16.0915 105.44 16.0842 105.44 16.0753C105.44 16.0663 105.437 16.059 105.433 16.059C105.43 16.059 105.429 16.0436 105.431 16.0241C105.434 16.0054 105.437 15.9835 105.437 15.9754C105.439 15.9591 105.45 15.9567 105.45 15.9729ZM105.182 16.1378C105.18 16.1459 105.178 16.1394 105.178 16.124C105.178 16.1086 105.18 16.1021 105.182 16.1094C105.184 16.1175 105.184 16.1305 105.182 16.1378ZM105.415 16.1394C105.418 16.1402 105.42 16.1476 105.42 16.1573C105.42 16.167 105.417 16.1711 105.412 16.1679C105.406 16.1646 105.405 16.1679 105.408 16.1792C105.411 16.189 105.409 16.1971 105.402 16.1995C105.391 16.2036 105.391 16.1849 105.401 16.1524C105.404 16.1411 105.402 16.1427 105.394 16.1565C105.379 16.1833 105.379 16.2028 105.396 16.2125C105.403 16.2174 105.405 16.2215 105.399 16.2215C105.393 16.2215 105.39 16.2247 105.393 16.2288C105.396 16.2328 105.393 16.2467 105.389 16.2596C105.383 16.2718 105.379 16.2905 105.377 16.3011C105.377 16.3116 105.372 16.3246 105.368 16.3295C105.364 16.3352 105.357 16.3604 105.352 16.3855C105.346 16.4124 105.337 16.4327 105.332 16.4327C105.326 16.4327 105.324 16.4262 105.326 16.4172C105.329 16.4091 105.326 16.3994 105.322 16.3969C105.317 16.3929 105.316 16.3961 105.319 16.4059C105.321 16.414 105.32 16.418 105.317 16.414C105.313 16.4099 105.31 16.3961 105.309 16.3815L105.307 16.3563L105.322 16.3766C105.334 16.3929 105.337 16.3945 105.344 16.3839C105.355 16.3652 105.353 16.3596 105.336 16.3596C105.328 16.3596 105.319 16.3539 105.316 16.3474C105.309 16.3271 105.321 16.3214 105.334 16.3392C105.344 16.3522 105.345 16.3531 105.342 16.3409C105.338 16.3311 105.341 16.3271 105.352 16.3271C105.368 16.3271 105.369 16.3206 105.368 16.2678C105.368 16.2483 105.371 16.2393 105.376 16.2426C105.382 16.2467 105.383 16.2418 105.379 16.2288C105.367 16.1809 105.365 16.1646 105.374 16.1646C105.38 16.1646 105.38 16.1605 105.374 16.1484C105.367 16.1329 105.368 16.1321 105.387 16.1354C105.399 16.137 105.411 16.1394 105.415 16.1394ZM105.225 16.2028C105.227 16.2069 105.218 16.2093 105.206 16.2093C105.194 16.2093 105.184 16.2069 105.184 16.2028C105.184 16.1995 105.193 16.1971 105.203 16.1971C105.213 16.1971 105.223 16.1995 105.225 16.2028ZM105.215 16.2166C105.215 16.2182 105.209 16.2223 105.203 16.2247C105.196 16.2272 105.193 16.2263 105.196 16.2215C105.2 16.2133 105.215 16.2101 105.215 16.2166ZM105.222 16.2718C105.222 16.3124 105.228 16.31 105.231 16.2678C105.234 16.2207 105.242 16.2328 105.244 16.2865C105.244 16.3133 105.242 16.3352 105.239 16.3352C105.236 16.3352 105.233 16.3425 105.232 16.3514C105.231 16.3604 105.234 16.3661 105.237 16.3636C105.241 16.3612 105.243 16.3661 105.241 16.3734C105.24 16.3815 105.238 16.3912 105.238 16.3945C105.237 16.3985 105.234 16.3985 105.23 16.3961C105.217 16.388 105.222 16.4018 105.236 16.414C105.243 16.4205 105.244 16.4237 105.24 16.4205C105.234 16.418 105.23 16.4189 105.23 16.4221C105.23 16.4262 105.234 16.4343 105.24 16.44C105.247 16.4489 105.247 16.4505 105.24 16.4457C105.234 16.4424 105.23 16.4424 105.229 16.4465C105.229 16.4497 105.228 16.4603 105.226 16.4684C105.225 16.4773 105.227 16.4903 105.231 16.4968C105.237 16.5074 105.237 16.5066 105.234 16.4936C105.232 16.4846 105.234 16.4716 105.237 16.4652C105.243 16.457 105.245 16.4716 105.244 16.5139C105.244 16.5472 105.247 16.5837 105.251 16.5951C105.256 16.6065 105.26 16.6097 105.26 16.6032C105.26 16.5951 105.269 16.5894 105.284 16.5886C105.297 16.5878 105.305 16.5894 105.303 16.5935C105.301 16.5975 105.29 16.6479 105.279 16.7048C105.259 16.8136 105.253 16.8331 105.252 16.7933C105.251 16.7681 105.25 16.7551 105.241 16.704C105.238 16.6828 105.239 16.6682 105.244 16.665C105.249 16.6617 105.25 16.6674 105.248 16.6804C105.247 16.6918 105.247 16.7072 105.251 16.7145C105.257 16.7259 105.259 16.7251 105.263 16.7137C105.266 16.7056 105.265 16.7015 105.26 16.7048C105.256 16.7072 105.253 16.7056 105.253 16.7015C105.253 16.6966 105.257 16.6926 105.262 16.6926C105.269 16.6926 105.269 16.6901 105.263 16.6837C105.252 16.6723 105.259 16.6495 105.27 16.6577C105.275 16.6601 105.276 16.6585 105.272 16.6536C105.269 16.6479 105.27 16.6438 105.274 16.6438C105.278 16.6438 105.283 16.6325 105.285 16.6195C105.289 16.587 105.281 16.5886 105.268 16.6235C105.262 16.639 105.255 16.652 105.252 16.652C105.242 16.652 105.228 16.6284 105.232 16.6179C105.235 16.6114 105.237 16.6122 105.237 16.6211C105.237 16.6292 105.241 16.6357 105.245 16.6357C105.257 16.6357 105.254 16.6227 105.241 16.6081C105.231 16.5984 105.231 16.5951 105.239 16.5951C105.247 16.5951 105.246 16.5927 105.237 16.587C105.231 16.5829 105.229 16.5789 105.233 16.5789C105.237 16.5789 105.236 16.574 105.232 16.5683C105.228 16.5634 105.224 16.5529 105.224 16.5464C105.222 16.5139 105.215 16.44 105.207 16.3961C105.199 16.3441 105.197 16.2889 105.203 16.2962C105.206 16.2986 105.209 16.3133 105.209 16.3295C105.211 16.3457 105.214 16.362 105.217 16.3652C105.222 16.3709 105.216 16.2605 105.21 16.2393C105.209 16.2337 105.211 16.2312 105.215 16.2337C105.219 16.2361 105.222 16.254 105.222 16.2718ZM105.197 16.28C105.195 16.2856 105.193 16.2816 105.193 16.2702C105.193 16.2588 105.195 16.2548 105.197 16.2596C105.199 16.2653 105.199 16.2751 105.197 16.28ZM105.321 16.4733C105.325 16.4757 105.325 16.4903 105.322 16.5058C105.317 16.5342 105.317 16.5342 105.312 16.5114C105.31 16.4985 105.311 16.4895 105.316 16.4895C105.321 16.4895 105.321 16.4863 105.315 16.4798C105.31 16.4741 105.307 16.4627 105.307 16.453C105.307 16.4367 105.307 16.4367 105.311 16.453C105.314 16.4619 105.318 16.4708 105.321 16.4733ZM109.401 17.7404C110.454 17.8013 111.441 18.1262 112.333 18.7038C113.222 19.2805 113.984 20.1171 114.506 21.091C115.228 22.4386 115.484 24.0282 115.228 25.5666C115.043 26.6786 114.584 27.7451 113.917 28.6126C113.729 28.8579 113.424 29.1958 113.218 29.3875C112.253 30.2867 111.123 30.8334 109.883 30.9999C109.587 31.0405 109.447 31.0486 109.093 31.0486C108.662 31.0486 108.401 31.0259 107.998 30.952C106.987 30.7659 106.021 30.3029 105.216 29.6182C104.868 29.3217 104.508 28.9408 104.23 28.5728C103.505 27.6127 103.044 26.456 102.9 25.2376C102.862 24.9209 102.854 24.7714 102.854 24.3929C102.854 24.0144 102.862 23.8649 102.9 23.5481C103.057 22.2111 103.587 20.9692 104.431 19.9547C104.545 19.8182 104.765 19.5802 104.888 19.4616C105.891 18.4934 107.127 17.9069 108.465 17.7648C108.764 17.7331 109.115 17.7242 109.401 17.7404Z" fill="#91B3FA"></path><path d="M106.234 14.8537C106.234 14.8571 106.238 14.8585 106.242 14.8565C106.246 14.8544 106.249 14.851 106.249 14.849C106.249 14.8476 106.246 14.8462 106.242 14.8462C106.238 14.8462 106.234 14.8496 106.234 14.8537Z" fill="#91B3FA"></path><path d="M106.118 14.9276C106.116 14.9308 106.119 14.9396 106.125 14.9461C106.133 14.9549 106.133 14.9598 106.127 14.9686C106.122 14.975 106.128 14.971 106.14 14.9598C106.153 14.9485 106.164 14.938 106.166 14.9364C106.168 14.9348 106.164 14.9356 106.157 14.938C106.15 14.9413 106.144 14.9396 106.144 14.9364C106.144 14.926 106.123 14.9187 106.118 14.9276Z" fill="#91B3FA"></path><path d="M106.018 15.0766C106 15.0944 106.003 15.0998 106.02 15.0836C106.029 15.0759 106.035 15.0681 106.035 15.0666C106.035 15.0612 106.029 15.065 106.018 15.0766Z" fill="#91B3FA"></path><path d="M105.269 15.1302C105.263 15.1336 105.262 15.1377 105.266 15.1404C105.27 15.1425 105.275 15.1398 105.278 15.1343C105.282 15.1227 105.282 15.122 105.269 15.1302Z" fill="#91B3FA"></path><path d="M105.107 15.2917C105.104 15.3002 105.106 15.3071 105.109 15.3071C105.113 15.3071 105.116 15.3002 105.116 15.2917C105.116 15.2832 105.115 15.2762 105.113 15.2762C105.112 15.2762 105.109 15.2832 105.107 15.2917Z" fill="#91B3FA"></path><path d="M105.871 15.2437C105.863 15.2484 105.863 15.2498 105.872 15.2532C105.88 15.2559 105.884 15.2539 105.884 15.2477C105.884 15.2361 105.883 15.2361 105.871 15.2437Z" fill="#91B3FA"></path><path d="M108.746 18.4034C107.584 18.4805 106.47 18.9378 105.575 19.7054C105.35 19.8988 105.046 20.2074 104.867 20.4251C103.579 21.9928 103.141 24.1518 103.709 26.1467C103.892 26.7925 104.189 27.422 104.563 27.9613C105.563 29.399 107.057 30.2698 108.735 30.3916C108.898 30.4038 109.29 30.4038 109.449 30.3924C110.564 30.3096 111.59 29.9051 112.464 29.2017C113.435 28.4211 114.139 27.3367 114.479 26.0988C114.838 24.7951 114.776 23.4175 114.302 22.1552C114.104 21.6265 113.815 21.0977 113.476 20.6485C113.295 20.4072 113.007 20.0823 112.803 19.8923C111.852 19.0004 110.677 18.4862 109.396 18.4026C109.253 18.3936 108.892 18.3936 108.746 18.4034ZM109.267 19.8484C110.232 19.8979 111.105 20.261 111.837 20.919C111.963 21.0319 112.246 21.3365 112.35 21.4689C112.948 22.2389 113.279 23.1202 113.343 24.1169C113.354 24.2858 113.348 24.6684 113.331 24.8357C113.276 25.4084 113.134 25.9323 112.902 26.4278C112.753 26.7486 112.573 27.0402 112.351 27.3253C112.249 27.4553 111.965 27.7591 111.837 27.8736C111.126 28.512 110.269 28.88 109.347 28.9434C109.15 28.9572 108.821 28.9482 108.624 28.9247C107.517 28.7898 106.531 28.2261 105.82 27.3213C105.242 26.5853 104.897 25.6618 104.835 24.6855C104.826 24.5506 104.83 24.1364 104.841 24.0194C104.901 23.3769 105.05 22.8286 105.307 22.3014C105.756 21.3795 106.511 20.6306 107.408 20.2155C107.87 20.0011 108.4 19.8703 108.879 19.8508C108.948 19.8484 109.006 19.8451 109.008 19.8435C109.013 19.8386 109.103 19.8403 109.267 19.8484Z" fill="#91B3FA"></path><path d="M106.589 14.6074C106.595 14.6098 106.601 14.609 106.604 14.6066C106.607 14.6042 106.602 14.6018 106.594 14.6026C106.586 14.6026 106.583 14.605 106.589 14.6074Z" fill="#91B3FA"></path><path d="M106.558 14.6153C106.563 14.6176 106.57 14.6168 106.572 14.6145C106.575 14.6121 106.571 14.6097 106.563 14.6105C106.554 14.6105 106.552 14.6129 106.558 14.6153Z" fill="#91B3FA"></path><path d="M106.374 14.6684C106.371 14.6725 106.37 14.6766 106.372 14.6786C106.374 14.6807 106.377 14.6772 106.38 14.6711C106.385 14.6595 106.38 14.6574 106.374 14.6684Z" fill="#91B3FA"></path><path d="M106.344 14.6827C106.347 14.6868 106.352 14.6881 106.356 14.6861C106.366 14.6799 106.364 14.6758 106.351 14.6758C106.345 14.6758 106.342 14.6792 106.344 14.6827Z" fill="#91B3FA"></path><path d="M106.169 14.7402C106.171 14.7437 106.177 14.7471 106.181 14.7471C106.185 14.7471 106.186 14.7437 106.183 14.7402C106.181 14.7362 106.176 14.7334 106.172 14.7334C106.168 14.7334 106.167 14.7362 106.169 14.7402Z" fill="#91B3FA"></path><path d="M106.132 14.7489C106.129 14.753 106.128 14.7571 106.13 14.7592C106.132 14.7612 106.135 14.7578 106.137 14.7517C106.142 14.7401 106.138 14.738 106.132 14.7489Z" fill="#91B3FA"></path><path d="M105.875 14.868C105.872 14.8777 105.873 14.8841 105.877 14.8809C105.881 14.8785 105.884 14.8809 105.884 14.8857C105.884 14.8906 105.887 14.8922 105.892 14.889C105.897 14.8857 105.897 14.8817 105.893 14.8785C105.889 14.8761 105.884 14.868 105.882 14.8616C105.88 14.8536 105.878 14.8552 105.875 14.868Z" fill="#91B3FA"></path><path d="M54.8105 127.509C54.8105 127.509 59.1758 124.999 58.2014 112.106L67.2193 110.292C67.2193 110.292 66.203 121.851 70.7693 125.522L54.8105 127.509Z" fill="#FFCCC6"></path><g opacity="0.15"><path opacity="0.15" d="M68.9229 123.106L61.4316 116.889L67.3167 116.823C67.4862 119.008 68.0309 121.139 68.9229 123.106Z" fill="#141226"></path></g><path d="M53.0831 107.106C53.7075 111.018 55.6756 114.722 58.8569 115.984C62.6339 117.484 65.4314 117.585 69.7859 117.585C75.728 117.585 75.5316 110.865 75.6987 104.091C75.868 97.2912 75.3678 89.9975 73.0192 87.6279C68.3333 82.8979 54.5724 85.8933 52.899 93.8042C52.0318 97.8949 52.4886 103.381 53.0831 107.106Z" fill="#FFCCC6"></path><path d="M78.8848 91.5603C78.8848 91.5603 81.3186 90.9707 80.6519 88.339C80.2104 86.594 78.1486 86.9815 78.1486 86.9815C78.1486 86.9815 80.1009 86.594 80.1009 84.7454C80.1009 83.5821 79.2755 81.6074 76.7863 82.7353C73.8652 84.0584 70.5342 83.8882 68.001 83.4265C66.5681 83.0863 65.1136 82.8637 63.6498 82.7604H63.6419C61.9592 82.7284 60.2816 82.9717 58.6658 83.4823C54.1379 84.9518 47.2857 89.3548 48.7423 99.3365C50.3683 110.477 55.1886 114.737 57.3091 116.104C57.4179 116.175 57.5384 116.222 57.6639 116.242C57.7895 116.263 57.9175 116.256 58.0407 116.223C58.1639 116.19 58.2798 116.131 58.382 116.049C58.4841 115.967 58.5704 115.865 58.6359 115.747C58.6757 115.675 58.7075 115.598 58.7307 115.518C59.332 113.43 60.368 108.177 60.0784 97.3441C73.9962 96.6032 78.0007 96.3791 78.0007 96.3791C78.0007 96.3791 81.2752 96.512 81.2752 93.9164C81.2752 91.3209 78.8848 91.5603 78.8848 91.5603Z" fill="#0F1011"></path><path d="M67.2126 104.092C67.6644 104.092 68.0307 103.695 68.0307 103.205C68.0307 102.715 67.6644 102.317 67.2126 102.317C66.7608 102.317 66.3945 102.715 66.3945 103.205C66.3945 103.695 66.7608 104.092 67.2126 104.092Z" fill="#0F1011"></path><path d="M73.6618 103.518C74.1136 103.518 74.4799 103.121 74.4799 102.631C74.4799 102.141 74.1136 101.744 73.6618 101.744C73.21 101.744 72.8438 102.141 72.8438 102.631C72.8438 103.121 73.21 103.518 73.6618 103.518Z" fill="#0F1011"></path><path d="M75.0809 100.74H75.0758L72.9084 100.711C72.8091 100.706 72.7153 100.66 72.6468 100.581C72.5783 100.503 72.5404 100.399 72.541 100.291C72.5417 100.184 72.5809 100.08 72.6503 100.003C72.7198 99.9258 72.8141 99.8808 72.9135 99.8774H72.9186L75.0854 99.9062C75.1874 99.9069 75.2849 99.9514 75.3566 100.03C75.4283 100.109 75.4682 100.215 75.4676 100.326C75.467 100.436 75.426 100.542 75.3534 100.62C75.2809 100.698 75.1829 100.741 75.0809 100.74Z" fill="#0F1011"></path><path d="M65.4406 101.597C65.3461 101.597 65.2549 101.56 65.1842 101.492C65.1135 101.424 65.0683 101.33 65.0573 101.228C65.0463 101.127 65.0702 101.024 65.1244 100.94C65.1786 100.856 65.2594 100.797 65.3514 100.774L67.4877 100.217C67.537 100.203 67.5884 100.2 67.6387 100.208C67.6891 100.216 67.7375 100.235 67.7811 100.263C67.8247 100.292 67.8626 100.33 67.8927 100.374C67.9228 100.419 67.9444 100.469 67.9563 100.523C67.9683 100.577 67.9702 100.632 67.9621 100.687C67.9541 100.741 67.9361 100.794 67.9092 100.84C67.8824 100.887 67.8472 100.928 67.8058 100.96C67.7643 100.992 67.7174 101.015 67.6678 101.027L65.5309 101.585C65.5013 101.592 65.471 101.596 65.4406 101.597Z" fill="#0F1011"></path><path d="M62.9547 105.376C62.9982 105.868 62.952 106.364 62.8187 106.836C62.6853 107.308 62.4675 107.748 62.1777 108.129C61.8879 108.51 61.5317 108.825 61.1295 109.057C60.7272 109.288 60.2869 109.432 59.8335 109.479C59.3801 109.526 58.9226 109.476 58.4871 109.332C58.0516 109.187 57.6467 108.951 57.2953 108.636C56.944 108.322 56.6532 107.936 56.4395 107.5C56.2259 107.063 56.0935 106.586 56.05 106.094C56.0466 106.059 56.0444 106.024 56.0421 105.988C55.9978 105.505 56.0417 105.017 56.1713 104.552C56.3009 104.087 56.5137 103.655 56.7975 103.279C57.0813 102.903 57.4305 102.592 57.8253 102.363C58.22 102.133 58.6525 101.991 59.0981 101.943C59.1371 101.938 59.1761 101.935 59.215 101.932C61.6856 101.847 62.7955 103.306 62.9547 105.376Z" fill="#FFCCC6"></path><g opacity="0.15"><path opacity="0.15" d="M70.8393 108.126C70.7719 108.126 70.707 108.1 70.6561 108.052C70.6052 108.004 70.5718 107.938 70.5617 107.866C70.5517 107.794 70.5658 107.72 70.6015 107.658C70.6372 107.596 70.692 107.55 70.7563 107.528L72.4201 106.973L71.2553 104.163C71.2246 104.089 71.2222 104.005 71.2487 103.929C71.2752 103.853 71.3285 103.791 71.3968 103.758C71.465 103.725 71.5428 103.722 71.6128 103.751C71.6828 103.78 71.7395 103.837 71.7702 103.911L73.0687 107.039C73.0852 107.079 73.0936 107.122 73.0936 107.165C73.0935 107.208 73.085 107.251 73.0685 107.291C73.052 107.33 73.0279 107.366 72.9979 107.394C72.9679 107.423 72.9325 107.444 72.8943 107.457L70.9245 108.113C70.8969 108.122 70.8681 108.127 70.8393 108.126Z" fill="#141226"></path></g><path d="M67.5859 110.192C67.5859 110.192 70.6058 110.537 72.7235 109.735C72.7235 109.735 72.7066 111.892 70.3168 112.104C67.9269 112.317 67.5859 110.192 67.5859 110.192Z" fill="white"></path><path d="M115.658 127.552C115.658 127.552 115.743 120.198 120.59 120.58C123.647 120.822 138.177 120.09 138.393 121.526C138.928 125.077 125.638 125.945 124.432 129.255L115.658 127.552Z" fill="#FFCCC6"></path><path d="M118.873 120.816C118.873 120.816 125.619 118.431 127.277 118.856C128.745 119.234 125.685 121.826 125.685 121.826L118.873 120.816Z" fill="#FFCCC6"></path><path d="M115.086 123.257L102.921 147.893L84.7193 129.427C83.8828 128.013 82.7343 126.848 81.3776 126.037L81.2907 125.949L81.2704 125.973C79.2143 124.852 76.9493 124.257 74.6485 124.231C74.2928 124.213 73.7226 124.2 72.9887 124.188C72.8419 127.556 53.6126 127.543 53.2061 124.108C47.7749 124.115 43.3204 125.921 40.7403 128.719C31.8484 138.363 42.7615 154.797 42.7615 167.655C42.7615 180.513 37.3981 186.281 37.7933 192.882C38.4143 203.254 84.8955 200.805 87.2605 194.909C88.6453 191.46 87.6483 188.759 86.5677 183.434L97.5972 183.067L97.2223 169.722L85.0247 170.125C84.9722 168.603 84.9491 166.972 84.9683 165.21C85.0248 160.018 85.8298 154.254 86.3893 148.727L100.454 162.994C101.117 163.667 101.915 164.165 102.784 164.451C103.654 164.737 104.572 164.802 105.468 164.641C106.365 164.481 107.215 164.099 107.954 163.526C108.692 162.952 109.3 162.202 109.729 161.334L125.537 129.323L115.086 123.257Z" fill="#2F3235"></path><path d="M72.9896 124.187C72.8428 127.554 71.1547 132.508 65.9438 132.881C58.9995 133.377 53.6135 127.542 53.207 124.107H53.224C60.0609 124.107 69.0037 124.12 72.9896 124.187Z" fill="#FFCCC6"></path><path d="M94.6923 137.892L87.8367 169.101C87.7302 169.587 87.7264 170.092 87.8257 170.58C87.925 171.067 88.1248 171.524 88.4101 171.916C88.6954 172.308 89.0588 172.624 89.473 172.842C89.8872 173.06 90.3415 173.173 90.8018 173.173H131.216C131.884 173.173 132.533 172.935 133.064 172.496C133.595 172.057 133.978 171.441 134.155 170.742L142.054 139.533C142.178 139.042 142.196 138.527 142.107 138.028C142.017 137.529 141.822 137.058 141.538 136.654C141.254 136.25 140.887 135.922 140.467 135.696C140.047 135.47 139.584 135.353 139.115 135.353H97.6574C96.9719 135.353 96.3065 135.603 95.7685 136.064C95.2305 136.525 94.8514 137.169 94.6923 137.892Z" fill="#FE7062"></path><path d="M73.451 169.286H122.297C122.772 169.286 123.228 169.49 123.563 169.854C123.899 170.219 124.088 170.713 124.088 171.228C124.088 171.743 123.899 172.237 123.563 172.601C123.228 172.965 122.772 173.17 122.297 173.17H73.451C72.976 173.17 72.5205 172.965 72.1847 172.601C71.8488 172.237 71.6602 171.743 71.6602 171.228C71.6602 170.713 71.8488 170.219 72.1847 169.854C72.5205 169.49 72.976 169.286 73.451 169.286Z" fill="#FE7062"></path><path d="M116.602 159.14C119.242 159.14 121.382 156.82 121.382 153.957C121.382 151.094 119.242 148.773 116.602 148.773C113.962 148.773 111.822 151.094 111.822 153.957C111.822 156.82 113.962 159.14 116.602 159.14Z" fill="white"></path><path d="M107.396 177.267C104.862 178.963 100.938 179.765 97.5162 180.059L97.3242 173.299C98.9338 173.25 101.407 173.066 103.828 173.17C104.923 172.202 105.553 171.915 106.676 170.697C107.872 169.4 111.01 168.621 111.602 170.697C112.194 172.772 109.621 175.775 107.396 177.267Z" fill="#FFCCC6"></path><path d="M179.415 0.000163078C176.896 0.000163078 174.854 2.14917 174.854 4.80012C174.854 7.45107 176.896 9.6001 179.415 9.6001C181.934 9.6001 183.977 7.45107 183.977 4.80012C183.977 2.14917 181.934 0.000163078 179.415 0.000163078Z" fill="#E5534B"></path><path d="M183.216 5.52952C183.216 4.24281 181.514 3.19971 179.414 3.19971C177.315 3.19971 175.613 4.24281 175.613 5.52952V197.669C175.613 198.955 177.315 199.998 179.414 199.998C181.514 199.998 183.216 198.955 183.216 197.669V5.52952Z" fill="#FE766A"></path><path d="M149.006 56.0015H217.1L237.953 65.5898L219.853 77.6013C218.819 77.529 214.833 77.6013 214.015 77.6013H152.091C151.273 77.6013 150.488 77.346 149.91 76.8916C149.331 76.4371 159.269 66.2441 159.269 65.6014L149.006 56.0015Z" fill="#4F52FF"></path><path d="M172.96 70.6396C174.854 70.6396 176.389 68.9747 176.389 66.9209C176.389 64.8671 174.854 63.2021 172.96 63.2021C171.066 63.2021 169.531 64.8671 169.531 66.9209C169.531 68.9747 171.066 70.6396 172.96 70.6396Z" fill="#E5534B"></path><path d="M181.588 64.0005H209.933C210.308 64.0005 210.667 64.0274 210.932 64.0754C211.197 64.1234 211.345 64.1885 211.345 64.2564V65.6005H180.176V64.2564C180.176 64.1885 180.325 64.1234 180.589 64.0754C180.854 64.0274 181.213 64.0005 181.588 64.0005Z" fill="#CFDEFD"></path><path d="M181.588 68.002H209.933C210.308 68.002 210.667 68.0289 210.932 68.0769C211.197 68.1249 211.345 68.19 211.345 68.2578V69.6019H180.176V68.2578C180.176 68.19 180.325 68.1249 180.589 68.0769C180.854 68.0289 181.213 68.002 181.588 68.002Z" fill="#CFDEFD"></path><path d="M204.502 43.1992L136.408 43.1992L115.555 33.6109L133.654 21.5994C134.689 21.6717 138.675 21.5994 139.493 21.5994L201.417 21.5994C202.235 21.5994 203.02 21.8547 203.598 22.3091C204.177 22.7636 194.239 32.9566 194.239 33.5993L204.502 43.1992Z" fill="#FE786C"></path><path d="M180.548 28.5615C178.654 28.5615 177.119 30.2265 177.119 32.2803C177.119 34.3341 178.654 35.999 180.548 35.999C182.441 35.999 183.977 34.3341 183.977 32.2803C183.977 30.2265 182.441 28.5615 180.548 28.5615Z" fill="#E5534B"></path><path d="M171.92 35.1987L143.575 35.1987C143.2 35.1987 142.841 35.1718 142.576 35.1238C142.311 35.0758 142.162 35.0107 142.162 34.9428V33.5987L173.332 33.5987V34.9428C173.332 35.0107 173.183 35.0758 172.918 35.1238C172.654 35.1718 172.294 35.1987 171.92 35.1987Z" fill="#FEC2BC"></path><path d="M171.92 31.1982L143.575 31.1982C143.2 31.1982 142.841 31.1713 142.576 31.1233C142.311 31.0753 142.162 31.0102 142.162 30.9424V29.5983L173.332 29.5983V30.9424C173.332 31.0102 173.183 31.0753 172.918 31.1233C172.654 31.1713 172.294 31.1982 171.92 31.1982Z" fill="#FEC2BC"></path><path d="M194.619 111.998L126.525 111.998L105.672 102.409L123.772 90.3977C124.806 90.47 128.792 90.3977 129.61 90.3977H191.534C192.352 90.3977 193.137 90.653 193.715 91.1075C194.294 91.5619 184.356 101.755 184.356 102.398L194.619 111.998Z" fill="#C1D8ED"></path><path d="M170.665 97.3594C168.771 97.3594 167.236 99.0243 167.236 101.078C167.236 103.132 168.771 104.797 170.665 104.797C172.559 104.797 174.094 103.132 174.094 101.078C174.094 99.0243 172.559 97.3594 170.665 97.3594Z" fill="#FE766A"></path><path d="M162.037 103.997H133.692C133.317 103.997 132.958 103.97 132.693 103.922C132.428 103.874 132.28 103.809 132.28 103.741V102.397H163.449V103.741C163.449 103.809 163.3 103.874 163.036 103.922C162.771 103.97 162.412 103.997 162.037 103.997Z" fill="#CFDEFD"></path><path d="M162.037 99.998H133.692C133.317 99.998 132.958 99.9711 132.693 99.9231C132.428 99.8751 132.28 99.81 132.28 99.7422V98.3981H163.449V99.7422C163.449 99.81 163.3 99.8751 163.036 99.9231C162.771 99.9711 162.412 99.998 162.037 99.998Z" fill="#CFDEFD"></path></svg>