<svg width="260" height="200" viewBox="0 0 260 200" fill="none" xmlns="http://www.w3.org/2000/svg"><path d="M15.1263 199.999C5.1818 199.999 -2.03585 186.802 0.517299 173.347C3.87191 155.669 8.40884 143.356 28.568 129.122C46.0443 116.769 60.0539 98.665 68.8627 77.0518C81.317 46.5096 87.3678 18.1196 110.768 18.1196C145.395 18.1196 145.577 55.2613 155.901 59.0384C166.225 62.8155 200.832 51.5984 208.562 84.7082C222.852 145.912 242.033 116.407 256.919 163.538C257.849 166.51 258.65 169.536 259.319 172.603C262.318 186.214 255.037 199.998 244.862 199.998L15.1263 199.999Z" fill="#ECF3F9"></path><path d="M91.4998 48.0306C91.4116 48.2403 91.3228 48.4493 91.3036 48.4956C91.2164 48.7021 91.137 48.8893 91.1001 48.978C91.0778 49.0308 91.0591 49.0752 91.0586 49.0764C91.0575 49.0777 90.8182 49.0854 90.3059 49.1002C90.2374 49.1022 90.0884 49.1067 89.9742 49.1105C89.8605 49.1137 89.7671 49.1163 89.766 49.115C89.765 49.1131 89.588 48.742 89.4509 48.4538C89.2319 47.9933 89.1031 47.7237 89.1026 47.7231C89.1021 47.7225 89.0455 47.7392 88.9775 47.7604C88.8825 47.7894 88.8514 47.8016 88.8457 47.8112C88.842 47.8177 88.8363 47.8222 88.8337 47.8202C88.8311 47.8177 88.8291 47.8196 88.8291 47.8234C88.8291 47.8279 88.8254 47.8299 88.8213 47.8273C88.8171 47.8254 88.8135 47.8273 88.8135 47.8318C88.8135 47.8376 88.8124 47.8376 88.8093 47.8318C88.8036 47.8202 88.7906 47.8189 88.7901 47.8299C88.7901 47.835 88.7875 47.8395 88.7839 47.8395C88.7803 47.8395 88.7745 47.8434 88.7714 47.8472C88.7621 47.8588 88.7694 47.8575 88.7886 47.8453C88.7969 47.8395 88.8026 47.8382 88.801 47.8415C88.7995 47.8447 88.786 47.8556 88.7709 47.8653C88.7559 47.8749 88.7361 47.8903 88.7273 47.8987C88.7133 47.9116 88.7107 47.9122 88.7076 47.9038C88.706 47.8981 88.7065 47.8948 88.7086 47.8968C88.7112 47.8987 88.7133 47.8961 88.7133 47.8916C88.7133 47.8865 88.7091 47.8846 88.704 47.8858C88.6967 47.8884 88.6956 47.8858 88.6977 47.8749C88.6993 47.8672 88.7024 47.8633 88.704 47.8672C88.7081 47.8749 88.7315 47.882 88.7273 47.8743C88.7258 47.871 88.7268 47.8685 88.7299 47.8685C88.7325 47.8685 88.7356 47.8717 88.7367 47.8762C88.7382 47.882 88.7398 47.882 88.7429 47.8762C88.745 47.8717 88.7439 47.8685 88.7413 47.8685C88.7382 47.8685 88.7356 47.8659 88.7356 47.8627C88.7356 47.8588 88.7403 47.8575 88.7455 47.8588C88.7569 47.8614 88.7642 47.846 88.7553 47.8389C88.7522 47.8363 88.7512 47.837 88.7527 47.8408C88.7548 47.8447 88.7527 47.8492 88.7486 47.8511C88.7439 47.8537 88.7424 47.8517 88.7444 47.8453C88.746 47.8408 88.7444 47.8363 88.7413 47.8363C88.7382 47.8363 88.7356 47.8408 88.7356 47.846C88.7356 47.8608 88.7138 47.8698 88.706 47.8575C88.7008 47.8498 88.6998 47.8505 88.6967 47.8614C88.6951 47.8691 88.6905 47.8749 88.6868 47.8749C88.6827 47.8749 88.6759 47.8813 88.6712 47.8891C88.6671 47.8974 88.6645 47.8993 88.6661 47.8936C88.6676 47.8871 88.6661 47.8807 88.6624 47.8775C88.6588 47.8749 88.6572 47.8755 88.6593 47.8788C88.6609 47.882 88.6552 47.8852 88.6469 47.8852C88.6349 47.8858 88.6328 47.8846 88.637 47.8781C88.6417 47.871 88.6406 47.8704 88.6318 47.873C88.6261 47.8749 88.6199 47.8788 88.6188 47.882C88.6173 47.8846 88.6121 47.8852 88.6069 47.8833C88.6001 47.8807 88.6001 47.882 88.6084 47.8897C88.6173 47.8987 88.6178 47.9 88.61 47.9006C88.6053 47.9006 88.5996 47.8974 88.5981 47.8936C88.5955 47.8891 88.5913 47.8903 88.5856 47.8968C88.5804 47.9026 88.5742 47.9051 88.5716 47.9026C88.569 47.8993 88.569 47.9 88.5711 47.9038C88.5737 47.9077 88.5783 47.9103 88.5814 47.9103C88.5851 47.9103 88.5882 47.9161 88.5892 47.9231C88.5903 47.9328 88.5898 47.9334 88.5861 47.9276C88.5825 47.9206 88.5809 47.9206 88.5783 47.9289C88.5763 47.9347 88.5726 47.9392 88.5695 47.9392C88.5664 47.9392 88.5654 47.936 88.5669 47.9328C88.5685 47.9289 88.5674 47.9264 88.5648 47.9264C88.5617 47.9264 88.5591 47.9302 88.5591 47.9341C88.5591 47.9399 88.557 47.9392 88.5539 47.9328C88.5513 47.9276 88.5487 47.9264 88.5487 47.9302C88.5487 47.9341 88.5368 47.9367 88.5202 47.9367C88.5015 47.9367 88.4937 47.9347 88.4979 47.9309C88.5025 47.927 88.5015 47.9264 88.4953 47.9289C88.4901 47.9309 88.4844 47.9328 88.4828 47.9328C88.4813 47.9328 88.4828 47.9373 88.4865 47.9424C88.4916 47.9502 88.4916 47.9521 88.4849 47.9521C88.4802 47.9521 88.475 47.9489 88.4735 47.9457C88.4709 47.9405 88.4678 47.9412 88.4631 47.9457C88.4589 47.9502 88.4537 47.9514 88.4512 47.9502C88.4491 47.9482 88.4439 47.9495 88.4397 47.9527C88.433 47.9585 88.433 47.9592 88.4397 47.9566C88.4512 47.9527 88.4657 47.9637 88.4652 47.9765C88.4652 47.9836 88.4641 47.9849 88.4621 47.9791C88.46 47.9727 88.4579 47.9733 88.4527 47.9823C88.4465 47.992 88.4439 47.9926 88.4351 47.9855C88.4283 47.981 88.4242 47.9804 88.4242 47.9843C88.4242 47.9875 88.4221 47.9907 88.4195 47.9907C88.4169 47.9907 88.4153 47.9855 88.4164 47.9791C88.4169 47.972 88.421 47.9688 88.4273 47.9701C88.434 47.972 88.4356 47.9701 88.4319 47.9656C88.4288 47.9617 88.4216 47.9605 88.4148 47.963C88.406 47.9656 88.4044 47.9688 88.4086 47.9746C88.4164 47.9862 88.4075 47.992 88.3915 47.9875C88.3821 47.9843 88.3769 47.9875 88.3702 48.001C88.365 48.01 88.3634 48.0158 88.3665 48.0138C88.3702 48.0106 88.3717 48.0151 88.3712 48.0254C88.3702 48.0402 88.3686 48.0415 88.3432 48.0402C88.3198 48.0389 88.3172 48.0376 88.3266 48.0318C88.3338 48.0273 88.3354 48.0228 88.3312 48.0203C88.3281 48.0177 88.3271 48.0126 88.3286 48.0087C88.3307 48.0042 88.3297 48.0035 88.3266 48.0061C88.3235 48.0087 88.3219 48.0145 88.3235 48.019C88.325 48.0241 88.3214 48.0299 88.3141 48.0325C88.297 48.0396 88.2684 48.0415 88.2715 48.0351C88.2747 48.0286 88.2586 48.0351 88.2497 48.0428C88.2466 48.046 88.2425 48.0473 88.2404 48.0454C88.2388 48.0434 88.2394 48.046 88.2425 48.0499C88.2497 48.0608 88.2492 48.0698 88.2414 48.064C88.2362 48.0602 88.2362 48.0614 88.2414 48.0685C88.2508 48.0814 88.2487 48.0936 88.2368 48.0936C88.2311 48.0936 88.2279 48.0904 88.2295 48.0872C88.2316 48.0833 88.2357 48.0827 88.2388 48.0852C88.2425 48.0878 88.242 48.0852 88.2378 48.0788C88.2305 48.0679 88.2186 48.0634 88.2238 48.0737C88.2253 48.0769 88.2233 48.0827 88.2191 48.0872C88.2129 48.0936 88.2087 48.0936 88.1994 48.0878C88.19 48.0814 88.1895 48.0807 88.1984 48.084C88.2087 48.0872 88.2087 48.0872 88.1984 48.0775C88.189 48.0685 88.188 48.0685 88.1843 48.0807C88.1823 48.0878 88.1776 48.0936 88.1745 48.0936C88.1703 48.0936 88.1708 48.0904 88.1755 48.0827C88.1817 48.073 88.1817 48.0724 88.1734 48.0762C88.1682 48.0788 88.1631 48.0807 88.1625 48.0807C88.1615 48.0807 88.1615 48.0942 88.1625 48.1116L88.1646 48.1418L88.1361 48.1438C88.1184 48.1451 88.1075 48.1431 88.1075 48.1393C88.1075 48.1354 88.1049 48.1322 88.1018 48.1322C88.0992 48.1322 88.0976 48.1348 88.0997 48.138C88.1013 48.1418 88.0976 48.1431 88.0919 48.1418C88.0862 48.1406 88.0816 48.1425 88.0816 48.1457C88.0816 48.1496 88.079 48.1502 88.0758 48.1476C88.0686 48.1425 88.0764 48.1322 88.0899 48.129C88.0956 48.1277 88.1008 48.1264 88.1023 48.1258C88.1039 48.1251 88.1085 48.1238 88.1127 48.1232C88.1169 48.1232 88.12 48.1187 88.1189 48.1142C88.1184 48.1103 88.1215 48.1065 88.1257 48.1065C88.1298 48.1065 88.1335 48.111 88.1335 48.1174C88.1335 48.1277 88.1407 48.1238 88.1418 48.1123C88.1433 48.0981 88.1444 48.0975 88.149 48.1065C88.1527 48.1142 88.1537 48.1129 88.1527 48.1013C88.1527 48.0936 88.1516 48.0872 88.1511 48.0872C88.1423 48.0872 87.8703 48.2345 87.7675 48.2949C87.7249 48.32 87.6891 48.3406 87.6886 48.3412C87.6881 48.3412 87.6959 48.4094 87.7057 48.4924C87.74 48.778 87.7831 49.1427 87.8454 49.6663C87.8609 49.8007 87.8755 49.9171 87.8765 49.9248C87.8786 49.9371 87.8116 50.0027 87.3719 50.4195C87.0927 50.6838 86.8612 50.9025 86.858 50.9064C86.8503 50.9135 86.8643 50.9206 86.6021 50.7803C86.1002 50.5121 85.6646 50.2786 85.66 50.2767C85.6537 50.2735 85.5582 50.4105 85.4648 50.5571C85.2312 50.9218 85.0355 51.2859 84.8559 51.6918L84.8045 51.8063L84.9109 51.9394C84.9696 52.0121 85.1746 52.2713 85.3667 52.5145L85.716 52.9576L85.5338 53.7205C85.4336 54.1399 85.3495 54.4853 85.347 54.4885C85.3449 54.4911 85.0599 54.5728 84.7142 54.6692C84.3679 54.7657 84.0835 54.8461 84.0819 54.8481C84.0783 54.8526 84.0705 54.9606 84.0663 55.0622C84.0643 55.1015 84.0622 55.142 84.0606 55.1529C84.0544 55.2025 84.0523 55.7743 84.058 55.9119C84.0632 56.0406 84.0793 56.303 84.0871 56.3911C84.1006 56.5449 84.1172 56.6973 84.1198 56.7005C84.1219 56.7025 84.2309 56.7263 84.3622 56.7533C84.4936 56.7809 84.7329 56.8305 84.8943 56.8639C85.0557 56.898 85.2353 56.9353 85.2935 56.9475C85.3516 56.9597 85.3999 56.9707 85.4015 56.972C85.4025 56.9739 85.5006 57.3129 85.619 57.7265C85.8043 58.3735 85.8328 58.479 85.8266 58.4874C85.823 58.4932 85.6288 58.7659 85.3963 59.0946L84.9727 59.6909L85.0002 59.7475C85.2348 60.2254 85.5219 60.6898 85.8359 61.1002L85.8884 61.1683L86.4718 60.8094C87.0511 60.4524 87.0558 60.4499 87.0688 60.4602C87.0761 60.4666 87.1477 60.5264 87.2276 60.5946C87.3076 60.6628 87.5298 60.8506 87.7208 61.0127C87.9123 61.1748 88.0795 61.3176 88.0935 61.3304C88.1148 61.3504 88.1179 61.3562 88.1179 61.3761C88.1179 61.4018 88.1054 61.5761 88.0795 61.926C88.0691 62.0605 88.0504 62.3139 88.0374 62.4889C88.0245 62.6638 88.0104 62.8426 88.0073 62.8857L88.0006 62.9648L88.0712 63.0002C88.3515 63.1443 88.7076 63.2877 89.0139 63.3804C89.1078 63.4087 89.3502 63.4717 89.426 63.4871C89.439 63.4897 89.4489 63.4678 89.6741 62.9301C89.8034 62.622 89.9389 62.2991 89.9757 62.2123L90.0427 62.0547L90.6282 62.0341C90.9506 62.0232 91.2413 62.0135 91.274 62.0135L91.3337 62.0129L91.3908 62.1306C91.4219 62.1949 91.5709 62.5049 91.722 62.8201C91.8725 63.1347 91.9976 63.3945 91.9997 63.3965C92.0018 63.399 92.049 63.3862 92.1046 63.3688C92.4601 63.2582 92.8136 63.1089 93.1386 62.932C93.2128 62.8915 93.408 62.7796 93.4116 62.7757C93.4122 62.7745 93.38 62.5062 93.3405 62.1795C93.2564 61.4899 93.2191 61.1761 93.2217 61.1741C93.2258 61.1703 94.1768 60.2614 94.2126 60.2267L94.2417 60.1984L94.4073 60.2852C94.4986 60.3328 94.7644 60.4737 94.9985 60.5978C95.2326 60.7226 95.4278 60.8261 95.433 60.8274C95.4527 60.8345 95.7216 60.4151 95.8872 60.1186C96.0201 59.88 96.2096 59.4927 96.2734 59.3294L96.2848 59.2991L96.1789 59.1641C96.1208 59.0901 95.9158 58.8315 95.7232 58.5903C95.4065 58.1928 95.3738 58.1503 95.3764 58.1349C95.3795 58.1169 95.7325 56.6143 95.7346 56.6124C95.7362 56.6105 96.1032 56.5063 96.2937 56.4529C96.3627 56.4336 96.616 56.3628 96.9192 56.2773C96.9649 56.2644 97.0033 56.2528 97.0043 56.2522C97.0079 56.2483 97.0199 56.0097 97.0261 55.8122C97.0375 55.4302 97.0214 54.9934 96.981 54.5998C96.9737 54.529 96.9664 54.4576 96.9649 54.4415C96.9633 54.4248 96.9602 54.4074 96.9581 54.4029C96.9555 54.3978 96.8631 54.3766 96.7105 54.3451C96.1976 54.2409 95.6733 54.1328 95.6728 54.1315C95.6661 54.1206 95.2404 52.6302 95.242 52.6244C95.2435 52.6193 95.4351 52.3453 95.6682 52.0147C95.9007 51.6841 96.0912 51.4113 96.0912 51.4088C96.0912 51.4068 96.0746 51.3708 96.0538 51.3296C95.8228 50.8672 95.5514 50.4298 95.2492 50.0342L95.1766 49.9396L94.5973 50.2998C94.278 50.4986 94.0138 50.6594 94.0091 50.6581C94.0029 50.6562 93.5051 50.2387 93.1557 49.9429C93.1303 49.921 93.0722 49.8721 93.0275 49.8342C92.932 49.7544 92.9408 49.7788 92.9533 49.6174C92.9574 49.5627 92.9668 49.4341 92.974 49.3318C92.9813 49.2289 92.9886 49.1305 92.9896 49.1131C92.9912 49.0951 92.9958 49.0301 93 48.9684C93.0047 48.9066 93.0093 48.841 93.0104 48.8237C93.0119 48.8056 93.0223 48.6583 93.0337 48.4956C93.0452 48.3329 93.0555 48.1894 93.0571 48.1766L93.0597 48.1541L92.9445 48.0975C92.5961 47.9257 92.2546 47.7971 91.9047 47.7044C91.7931 47.6749 91.6862 47.6498 91.6716 47.6498C91.6623 47.6498 91.6353 47.7102 91.4998 48.0306ZM88.5955 47.9006C88.5955 47.9038 88.5929 47.9071 88.5898 47.9071C88.5872 47.9071 88.5861 47.9038 88.5877 47.9006C88.5892 47.8968 88.5918 47.8942 88.5934 47.8942C88.5944 47.8942 88.5955 47.8968 88.5955 47.9006ZM88.6962 47.9077C88.6951 47.9103 88.6972 47.9135 88.7003 47.9148C88.706 47.9174 88.6879 47.9347 88.6785 47.936C88.677 47.936 88.6681 47.9457 88.6583 47.9572C88.6484 47.9682 88.6391 47.9759 88.638 47.9746C88.6365 47.9727 88.6323 47.9765 88.6287 47.983C88.6225 47.9933 88.6219 47.9926 88.6214 47.9804C88.6214 47.9727 88.625 47.963 88.6292 47.9585C88.6334 47.954 88.6354 47.9476 88.6334 47.9444C88.6313 47.9399 88.6365 47.9386 88.6469 47.9405C88.6583 47.9424 88.6629 47.9412 88.6629 47.9347C88.6629 47.9296 88.665 47.927 88.6676 47.9289C88.6697 47.9309 88.6759 47.927 88.6811 47.9199C88.6915 47.9058 88.6853 47.9019 88.6733 47.9148C88.6671 47.9219 88.6671 47.9212 88.6728 47.9122C88.679 47.9019 88.7014 47.8981 88.6962 47.9077ZM88.6136 47.9251C88.609 47.9264 88.6069 47.9302 88.6084 47.9334C88.61 47.9367 88.6079 47.9373 88.6032 47.9354C88.596 47.9315 88.596 47.9302 88.6038 47.9193C88.611 47.9096 88.6136 47.9084 88.6173 47.9148C88.6193 47.9199 88.6183 47.9238 88.6136 47.9251ZM88.6292 47.945C88.6308 47.9482 88.6297 47.9527 88.6266 47.9553C88.624 47.9572 88.6214 47.9547 88.6214 47.9495C88.6214 47.9379 88.6245 47.936 88.6292 47.945ZM88.4709 47.9521C88.4709 47.9553 88.4683 47.9585 88.4652 47.9585C88.4626 47.9585 88.4615 47.9553 88.4631 47.9521C88.4646 47.9482 88.4672 47.9457 88.4688 47.9457C88.4698 47.9457 88.4709 47.9482 88.4709 47.9521ZM88.489 47.9765C88.4844 47.9778 88.4823 47.9817 88.4839 47.9849C88.4854 47.9881 88.4833 47.9888 88.4787 47.9868C88.4714 47.983 88.4714 47.9817 88.4792 47.9707C88.4865 47.9611 88.489 47.9598 88.4927 47.9662C88.4948 47.9714 88.4937 47.9752 88.489 47.9765ZM88.6058 48.0068C88.5923 48.0248 88.5825 48.0248 88.582 48.0061C88.5809 47.9933 88.5835 47.9913 88.5986 47.992L88.6162 47.9926L88.6058 48.0068ZM88.5332 48.0614C88.5358 48.0614 88.5404 48.0563 88.543 48.0499C88.5467 48.0428 88.5482 48.0415 88.5487 48.0479C88.5487 48.055 88.5503 48.055 88.5565 48.0486C88.5612 48.0441 88.5643 48.0434 88.5643 48.0473C88.5643 48.0511 88.5519 48.0666 88.5373 48.082C88.5223 48.0968 88.5067 48.1142 88.5031 48.1193C88.4989 48.1245 88.4974 48.1251 88.4994 48.1213C88.5015 48.1161 88.4999 48.1142 88.4953 48.1168C88.4911 48.1187 88.4865 48.1155 88.4844 48.1097C88.4828 48.1032 88.4833 48.1007 88.487 48.1039C88.4901 48.1058 88.4968 48.102 88.5025 48.0942C88.5108 48.0833 88.5114 48.0801 88.5051 48.073C88.4989 48.0659 88.4989 48.0634 88.5057 48.0537C88.5124 48.0441 88.5145 48.0441 88.5212 48.0518C88.5254 48.0569 88.5306 48.0614 88.5332 48.0614ZM88.4735 48.1C88.4755 48.1039 88.473 48.1045 88.4678 48.102C88.4605 48.0987 88.4595 48.1 88.4621 48.109C88.4641 48.1155 88.4636 48.1187 88.4605 48.1161C88.4527 48.1103 88.4543 48.0936 88.4626 48.0936C88.4667 48.0936 88.4719 48.0962 88.4735 48.1ZM88.4781 48.1418C88.4807 48.1502 88.4242 48.2222 88.4148 48.2222C88.4117 48.2222 88.4075 48.2248 88.406 48.2287C88.4039 48.2325 88.4065 48.2332 88.4117 48.2306C88.419 48.2274 88.4184 48.2293 88.4101 48.2396C88.4044 48.2467 88.3972 48.2583 88.3941 48.2647C88.3909 48.2711 88.3868 48.2743 88.3847 48.2718C88.3826 48.2692 88.3863 48.2595 88.3935 48.2499C88.405 48.2345 88.405 48.2332 88.3956 48.237C88.3873 48.2409 88.3878 48.2383 88.3992 48.2261C88.407 48.2177 88.4117 48.2087 88.4096 48.2062C88.4075 48.2036 88.4086 48.2029 88.4117 48.2042C88.4143 48.2049 88.4247 48.1952 88.4345 48.1817C88.447 48.1637 88.4527 48.1592 88.4558 48.1656C88.4595 48.1721 88.4605 48.1714 88.4605 48.1624C88.4605 48.1566 88.4579 48.1515 88.4543 48.1515C88.4512 48.1515 88.4501 48.1496 88.4517 48.1476C88.4537 48.1451 88.4584 48.147 88.4626 48.1508C88.4678 48.156 88.4709 48.1566 88.4735 48.1515C88.475 48.1483 88.4745 48.1451 88.4719 48.1451C88.4688 48.1451 88.4657 48.1406 88.4641 48.1361C88.4621 48.1296 88.4636 48.1277 88.4683 48.1296C88.4719 48.1315 88.4766 48.1367 88.4781 48.1418ZM88.4309 48.1579C88.433 48.1579 88.4335 48.1553 88.4319 48.1515C88.4304 48.1476 88.4325 48.147 88.4366 48.1489C88.4413 48.1508 88.4449 48.1553 88.4449 48.1586C88.4449 48.1689 88.4257 48.165 88.4184 48.1528C88.4127 48.1438 88.4127 48.1431 88.419 48.1496C88.4231 48.1541 88.4283 48.1579 88.4309 48.1579ZM88.0509 48.1573C88.0437 48.1631 88.0473 48.1772 88.0561 48.1772C88.0592 48.1772 88.0598 48.174 88.0577 48.1695C88.0556 48.165 88.0561 48.1644 88.0603 48.1669C88.0634 48.1695 88.0696 48.1682 88.0738 48.1644C88.0805 48.1579 88.0816 48.1592 88.081 48.1746C88.081 48.1907 88.08 48.1914 88.0764 48.1804C88.0727 48.1695 88.0717 48.1689 88.0686 48.1779C88.0665 48.1843 88.0613 48.1875 88.0556 48.1856C88.0504 48.1836 88.0447 48.1856 88.0431 48.1894C88.0411 48.1933 88.0369 48.1965 88.0343 48.1965C88.0312 48.1965 88.0307 48.1933 88.0322 48.1901C88.0338 48.1862 88.0328 48.1836 88.0302 48.1836C88.027 48.1836 88.0245 48.1869 88.0245 48.1914C88.0245 48.1952 88.0229 48.1965 88.0208 48.1946C88.0193 48.192 88.0219 48.1836 88.0276 48.1766C88.0374 48.1624 88.0374 48.1624 88.026 48.1714C88.0193 48.1766 88.0141 48.1843 88.0141 48.1882C88.0141 48.1952 88.012 48.1952 88.0037 48.1888C87.9933 48.1804 87.9933 48.1772 88.0047 48.1746C88.0084 48.1734 88.0198 48.1682 88.0296 48.1624C88.0489 48.1515 88.0629 48.1483 88.0509 48.1573ZM88.4293 48.1779C88.4293 48.1869 88.4205 48.1843 88.4174 48.1746C88.4153 48.1682 88.4169 48.1663 88.4221 48.1689C88.4257 48.1708 88.4293 48.1746 88.4293 48.1779ZM87.9933 48.1946C87.9933 48.1978 87.9876 48.2004 87.9803 48.2004C87.9731 48.201 87.9689 48.1991 87.9705 48.1959C87.9736 48.1888 87.9933 48.1882 87.9933 48.1946ZM88.3946 48.2055C88.3966 48.2126 88.3951 48.2139 88.3894 48.2113C88.3832 48.2081 88.3816 48.21 88.3842 48.2177C88.3863 48.2248 88.3852 48.2267 88.3795 48.2242C88.3702 48.2197 88.3702 48.219 88.3806 48.2068C88.3904 48.1939 88.3909 48.1939 88.3946 48.2055ZM87.9601 48.2216C87.958 48.2255 87.9528 48.2287 87.9481 48.2287C87.9414 48.2287 87.9409 48.23 87.9471 48.2396C87.9539 48.2499 87.9533 48.2505 87.9456 48.2422C87.9378 48.2351 87.9362 48.2351 87.9357 48.2422C87.9357 48.2486 87.9347 48.2493 87.9326 48.2428C87.9315 48.239 87.9279 48.2351 87.9253 48.2351C87.9222 48.2351 87.9212 48.2377 87.9227 48.2403C87.9237 48.2428 87.916 48.2454 87.9045 48.2454L87.8838 48.246L87.9087 48.2306C87.9222 48.2222 87.9362 48.2145 87.9398 48.2132C87.9435 48.2126 87.9481 48.21 87.9502 48.2074C87.9554 48.201 87.9642 48.2132 87.9601 48.2216ZM87.9829 48.2222C87.9829 48.2255 87.9808 48.2287 87.9777 48.2287C87.9751 48.2287 87.9725 48.2255 87.9725 48.2222C87.9725 48.2184 87.9751 48.2158 87.9777 48.2158C87.9808 48.2158 87.9829 48.2184 87.9829 48.2222ZM88.3826 48.2576C88.3795 48.2621 88.379 48.2711 88.3811 48.2769C88.3832 48.2853 88.3826 48.2872 88.3785 48.284C88.3717 48.2788 88.3702 48.2531 88.3754 48.246C88.3816 48.2383 88.3883 48.2486 88.3826 48.2576ZM87.8703 48.2686C87.8713 48.2731 87.8687 48.2808 87.8641 48.2853C87.8568 48.2924 87.8568 48.2924 87.8651 48.2891C87.8698 48.2872 87.8739 48.2885 87.8739 48.2924C87.8739 48.3007 87.8448 48.302 87.8407 48.2936C87.8391 48.2904 87.8428 48.2866 87.849 48.2846C87.8552 48.2821 87.8589 48.2788 87.8573 48.2769C87.8557 48.2743 87.849 48.2756 87.8433 48.2801C87.8339 48.2859 87.8324 48.293 87.8324 48.3322C87.8324 48.3708 87.8314 48.3773 87.8246 48.374C87.8179 48.3715 87.8179 48.3728 87.822 48.383C87.8246 48.3895 87.8251 48.3966 87.823 48.3985C87.8204 48.4004 87.8189 48.4101 87.8194 48.4197C87.8215 48.4544 87.822 48.4577 87.8262 48.4493C87.8282 48.4454 87.8298 48.4557 87.8303 48.4718C87.8303 48.4885 87.8298 48.4982 87.8288 48.4937C87.8272 48.4898 87.8241 48.4872 87.822 48.4892C87.8194 48.4911 87.8173 48.4872 87.8179 48.4815C87.8179 48.475 87.8158 48.4454 87.8127 48.4152C87.7997 48.284 87.7997 48.2879 87.809 48.3059C87.8173 48.3219 87.8173 48.3219 87.8147 48.3071C87.8127 48.2943 87.8137 48.2936 87.821 48.3007C87.8277 48.3078 87.8288 48.3078 87.8256 48.2981C87.823 48.2891 87.8272 48.2833 87.8417 48.2743C87.8646 48.2589 87.8672 48.2583 87.8703 48.2686ZM88.3619 48.3078C88.3619 48.311 88.352 48.3284 88.3401 48.347C88.3151 48.385 88.3068 48.3959 88.3115 48.3856C88.3131 48.3818 88.3115 48.3785 88.3074 48.3785C88.3022 48.3785 88.3017 48.3818 88.3048 48.3895C88.311 48.4036 88.2933 48.4255 88.283 48.4178C88.2783 48.4146 88.2788 48.4165 88.284 48.4249C88.2887 48.4319 88.2892 48.4351 88.2856 48.4319C88.2809 48.4287 88.2788 48.4319 88.2788 48.4403C88.2788 48.448 88.2767 48.4538 88.2741 48.4538C88.2632 48.4538 88.2643 48.4409 88.2773 48.4178C88.2856 48.4023 88.2908 48.385 88.2902 48.3715C88.2897 48.3554 88.2918 48.3509 88.2991 48.3509C88.3042 48.3509 88.3105 48.3554 88.312 48.3612C88.3167 48.3773 88.3354 48.3457 88.3328 48.3264C88.3312 48.3181 88.3318 48.3091 88.3333 48.3059C88.337 48.2981 88.3619 48.3001 88.3619 48.3078ZM88.2664 48.4152C88.2664 48.4204 88.2638 48.4313 88.2596 48.439C88.2549 48.4493 88.2544 48.4544 88.2591 48.4577C88.2627 48.4609 88.2632 48.4596 88.2606 48.4532C88.2565 48.4454 88.2575 48.4454 88.2648 48.4532C88.2741 48.4622 88.2715 48.4763 88.2622 48.4692C88.2591 48.4667 88.258 48.4673 88.2596 48.4712C88.2617 48.475 88.2596 48.4827 88.256 48.4892C88.2503 48.4995 88.2492 48.4943 88.2482 48.4512C88.2471 48.4062 88.2482 48.4017 88.2565 48.4036C88.2617 48.4049 88.2658 48.4101 88.2664 48.4152ZM87.8324 48.4216C87.8324 48.4249 87.8314 48.4281 87.8303 48.4281C87.8288 48.4281 87.8262 48.4249 87.8246 48.4216C87.823 48.4178 87.8241 48.4152 87.8267 48.4152C87.8298 48.4152 87.8324 48.4178 87.8324 48.4216ZM88.242 48.5175C88.2394 48.5233 88.2316 48.5393 88.2248 48.5535C88.2181 48.5677 88.2082 48.5799 88.203 48.5805C88.1942 48.5824 88.1942 48.5818 88.2035 48.5767C88.2108 48.5722 88.2118 48.5702 88.2061 48.5696C88.202 48.5683 88.1963 48.5683 88.1942 48.5689C88.1916 48.5696 88.1916 48.5664 88.1932 48.5625C88.1952 48.5586 88.2015 48.5567 88.2067 48.5586C88.2144 48.5612 88.2155 48.5599 88.2113 48.5503C88.2041 48.5336 88.2051 48.5284 88.2129 48.5368C88.217 48.5406 88.2217 48.5419 88.2233 48.5393C88.23 48.531 88.2269 48.5201 88.2155 48.5136C88.2051 48.5072 88.2061 48.5065 88.2253 48.5065C88.2446 48.5065 88.2466 48.5085 88.242 48.5175ZM87.8303 48.5342C87.8298 48.5554 87.822 48.5554 87.822 48.5342C87.822 48.5252 87.8241 48.5181 87.8267 48.5181C87.8293 48.5181 87.8308 48.5252 87.8303 48.5342ZM88.1828 48.5631C88.1812 48.5664 88.1765 48.5696 88.1734 48.5696C88.1698 48.5696 88.1703 48.567 88.175 48.5631C88.1849 48.5554 88.1869 48.5554 88.1828 48.5631ZM87.8308 48.5966C87.8293 48.6011 87.8282 48.5979 87.8282 48.5889C87.8282 48.5799 87.8293 48.5767 87.8308 48.5805C87.8319 48.585 87.8319 48.5927 87.8308 48.5966ZM88.1802 48.5889C88.1802 48.5921 88.1791 48.5953 88.1781 48.5953C88.1765 48.5953 88.174 48.5921 88.1724 48.5889C88.1708 48.585 88.1719 48.5824 88.1745 48.5824C88.1776 48.5824 88.1802 48.585 88.1802 48.5889ZM88.1833 48.6056C88.1703 48.6172 88.1646 48.6172 88.1646 48.605C88.1646 48.5998 88.1677 48.5972 88.1719 48.5992C88.176 48.6011 88.1807 48.5992 88.1828 48.5953C88.1849 48.5915 88.188 48.5902 88.1895 48.5921C88.1916 48.5947 88.1885 48.6005 88.1833 48.6056ZM88.176 48.6481C88.1719 48.6545 88.1703 48.6596 88.1729 48.6596C88.1755 48.6596 88.1729 48.6641 88.1677 48.6693C88.162 48.6744 88.1589 48.6789 88.161 48.6789C88.1656 48.6789 88.1496 48.7195 88.1428 48.7246C88.1402 48.7265 88.1376 48.7323 88.1366 48.7375C88.1319 48.7703 88.1226 48.7838 88.1153 48.769C88.1132 48.7651 88.1148 48.7632 88.1189 48.7638C88.1236 48.7651 88.1257 48.7587 88.1257 48.7432C88.1257 48.7278 88.1283 48.7201 88.1345 48.7188C88.1392 48.7175 88.1438 48.7085 88.1449 48.6982C88.1464 48.6841 88.1454 48.6809 88.1413 48.6854C88.1366 48.6899 88.1324 48.6886 88.1278 48.6809C88.121 48.6699 88.121 48.6699 88.1303 48.6789C88.1397 48.6879 88.1402 48.6873 88.1376 48.6783C88.135 48.6699 88.1366 48.668 88.1449 48.6712C88.1522 48.6731 88.1547 48.6719 88.1522 48.6674C88.1496 48.6622 88.1511 48.6609 88.1563 48.6635C88.1625 48.6667 88.1646 48.6628 88.1646 48.6493C88.1646 48.6345 88.1656 48.6326 88.1698 48.6403C88.174 48.6487 88.175 48.6481 88.175 48.6384C88.175 48.6326 88.1719 48.6275 88.1688 48.6275C88.1641 48.6275 88.1646 48.6255 88.1698 48.621C88.1812 48.612 88.1864 48.6339 88.176 48.6481ZM88.1958 48.6172C88.1958 48.6191 88.1937 48.6223 88.1906 48.6243C88.188 48.6262 88.1854 48.6249 88.1854 48.6217C88.1854 48.6178 88.188 48.6146 88.1906 48.6146C88.1937 48.6146 88.1958 48.6159 88.1958 48.6172ZM87.8454 48.6854C87.8433 48.7021 87.8438 48.7111 87.8474 48.7111C87.8506 48.7111 87.8526 48.7059 87.8521 48.6995C87.8506 48.677 87.8532 48.6596 87.8583 48.6596C87.8615 48.6596 87.8635 48.6654 87.8635 48.6725C87.8635 48.6796 87.8661 48.6854 87.8687 48.6854C87.8744 48.6854 87.8755 48.7104 87.8708 48.7265C87.8692 48.7323 87.8656 48.7368 87.8635 48.7368C87.8583 48.7368 87.8594 48.724 87.8656 48.7124C87.8682 48.7072 87.8677 48.7008 87.8641 48.6963C87.8583 48.6892 87.8578 48.6899 87.8557 48.7304C87.8552 48.7471 87.862 48.7645 87.8682 48.76C87.8698 48.7587 87.8713 48.7716 87.8718 48.7889C87.8718 48.8089 87.8698 48.8198 87.8666 48.8185C87.8635 48.8172 87.8609 48.8031 87.8609 48.7876C87.8609 48.7651 87.8594 48.76 87.8526 48.7613C87.8459 48.7625 87.8438 48.7548 87.8412 48.7252C87.8391 48.7047 87.8391 48.6815 87.8412 48.6738C87.8459 48.65 87.849 48.6577 87.8454 48.6854ZM88.1309 48.6976C88.1324 48.7008 88.1319 48.7053 88.1293 48.7072C88.1267 48.7092 88.1246 48.7066 88.1246 48.7014C88.1246 48.6905 88.1262 48.6892 88.1309 48.6976ZM88.0971 48.7703C88.0971 48.7741 88.0987 48.7754 88.1002 48.7735C88.1023 48.7716 88.108 48.7722 88.1137 48.7761C88.1236 48.7825 88.1236 48.7831 88.1143 48.7928C88.1091 48.7979 88.1075 48.8005 88.1111 48.7979C88.1158 48.7954 88.1163 48.7986 88.1122 48.814C88.1091 48.8243 88.1044 48.8314 88.1013 48.8294C88.0987 48.8275 88.0966 48.8294 88.0976 48.8339C88.0992 48.8513 88.0971 48.8597 88.0914 48.8552C88.0883 48.8532 88.0867 48.8455 88.0883 48.8391C88.0899 48.832 88.0888 48.8269 88.0862 48.8269C88.0836 48.8269 88.0816 48.8191 88.0816 48.8089C88.0816 48.796 88.0831 48.7941 88.0862 48.8011C88.0893 48.8063 88.0904 48.8121 88.0888 48.8146C88.0878 48.8172 88.0888 48.8211 88.0919 48.8237C88.0997 48.8294 88.1039 48.7979 88.0971 48.7825C88.094 48.7748 88.0888 48.7709 88.0857 48.7728C88.0821 48.7754 88.0816 48.7748 88.0836 48.7703C88.0883 48.7606 88.0971 48.7606 88.0971 48.7703ZM87.8552 48.8011C87.8568 48.8198 87.8557 48.8262 87.8526 48.8198C87.848 48.8108 87.8459 48.7645 87.8506 48.7703C87.8521 48.7716 87.8542 48.7857 87.8552 48.8011ZM88.0945 48.7889C88.1002 48.7992 88.0951 48.8011 88.0878 48.7908C88.0842 48.7857 88.0836 48.7818 88.0862 48.7818C88.0888 48.7818 88.093 48.7851 88.0945 48.7889ZM87.8682 48.8835C87.8656 48.8848 87.8635 48.8938 87.8635 48.9028C87.8635 48.9137 87.8651 48.9169 87.8677 48.9124C87.8703 48.9079 87.8718 48.9195 87.8718 48.9388C87.8713 48.9896 87.8625 48.9645 87.8615 48.9098C87.8615 48.886 87.8594 48.868 87.8578 48.8693C87.8563 48.8706 87.8547 48.8622 87.8547 48.8507L87.8542 48.8301L87.8635 48.8558C87.8682 48.87 87.8703 48.8822 87.8682 48.8835ZM88.0504 48.868C88.0504 48.87 88.0483 48.8732 88.0452 48.8751C88.0426 48.877 88.04 48.8758 88.04 48.8725C88.04 48.8687 88.0426 48.8655 88.0452 48.8655C88.0483 48.8655 88.0504 48.8667 88.0504 48.868ZM88.0867 48.8745C88.0867 48.8867 88.0779 48.8931 88.0738 48.8848C88.0722 48.8815 88.0738 48.8783 88.0774 48.8783C88.0821 48.8783 88.0821 48.8764 88.0764 48.8719C88.0696 48.8667 88.0701 48.8655 88.0779 48.8655C88.0826 48.8655 88.0867 48.8693 88.0867 48.8745ZM88.0556 48.8938C88.0556 48.9073 88.0665 48.9137 88.0717 48.9034C88.0748 48.897 88.0758 48.8989 88.0748 48.9086C88.0743 48.9201 88.0717 48.9221 88.0613 48.9188C88.0525 48.9163 88.0499 48.9176 88.0525 48.9227C88.0546 48.9266 88.0603 48.9298 88.0649 48.9304C88.0707 48.9304 88.0712 48.9317 88.067 48.9343C88.0639 48.9356 88.0618 48.9401 88.0634 48.9426C88.0649 48.9459 88.0639 48.9497 88.0608 48.9523C88.0582 48.9542 88.0556 48.9529 88.0556 48.9497C88.0556 48.9459 88.053 48.9426 88.0499 48.9426C88.0473 48.9426 88.0463 48.9452 88.0478 48.9491C88.0535 48.9607 88.0551 48.9832 88.0509 48.9928C88.0478 48.9993 88.0457 48.9999 88.0431 48.9947C88.0411 48.9909 88.0416 48.9877 88.0437 48.9877C88.0463 48.9877 88.0483 48.9819 88.0483 48.9748C88.0483 48.9677 88.0463 48.9619 88.0437 48.9619C88.0416 48.9619 88.0411 48.9497 88.0426 48.9343C88.0447 48.9195 88.0463 48.9021 88.0468 48.8957C88.0478 48.8828 88.0556 48.8809 88.0556 48.8938ZM87.8724 49.0243C87.8708 49.0308 87.8698 49.0256 87.8698 49.0134C87.8698 49.0012 87.8708 48.996 87.8724 49.0018C87.8734 49.0083 87.8734 49.0185 87.8724 49.0243ZM88.0312 49.0256C88.0333 49.0263 88.0348 49.0321 88.0348 49.0398C88.0348 49.0475 88.0328 49.0507 88.0291 49.0481C88.0255 49.0456 88.0245 49.0481 88.0265 49.0571C88.0286 49.0649 88.027 49.0713 88.0229 49.0732C88.0151 49.0764 88.0151 49.0616 88.0219 49.0359C88.0239 49.0269 88.0229 49.0282 88.0172 49.0391C88.0068 49.0604 88.0068 49.0758 88.0182 49.0835C88.0234 49.0874 88.0245 49.0906 88.0203 49.0906C88.0167 49.0906 88.0146 49.0932 88.0161 49.0964C88.0182 49.0996 88.0167 49.1105 88.0136 49.1208C88.0099 49.1305 88.0068 49.1453 88.0058 49.1536C88.0052 49.162 88.0021 49.1723 87.9995 49.1761C87.9969 49.1806 87.9918 49.2006 87.9881 49.2205C87.9845 49.2417 87.9783 49.2578 87.9746 49.2578C87.971 49.2578 87.9694 49.2527 87.971 49.2456C87.9725 49.2392 87.971 49.2315 87.9679 49.2295C87.9642 49.2263 87.9637 49.2289 87.9658 49.2366C87.9674 49.243 87.9668 49.2462 87.9642 49.243C87.9616 49.2398 87.9596 49.2289 87.959 49.2173L87.958 49.1974L87.9679 49.2134C87.9762 49.2263 87.9783 49.2276 87.9829 49.2192C87.9907 49.2044 87.9892 49.1999 87.9777 49.1999C87.972 49.1999 87.9658 49.1954 87.9637 49.1903C87.959 49.1742 87.9674 49.1697 87.9762 49.1839C87.9829 49.1941 87.984 49.1948 87.9814 49.1851C87.9788 49.1774 87.9808 49.1742 87.9881 49.1742C87.999 49.1742 88.0001 49.1691 87.9995 49.1273C87.9995 49.1118 88.0011 49.1047 88.0047 49.1073C88.0089 49.1105 88.0094 49.1067 88.0068 49.0964C87.9985 49.0584 87.9975 49.0456 88.0032 49.0456C88.0078 49.0456 88.0078 49.0423 88.0037 49.0327C87.9985 49.0205 87.999 49.0198 88.0125 49.0224C88.0203 49.0237 88.0286 49.0256 88.0312 49.0256ZM87.9014 49.0758C87.903 49.079 87.8973 49.0809 87.889 49.0809C87.8807 49.0809 87.8739 49.079 87.8739 49.0758C87.8739 49.0732 87.8796 49.0713 87.8864 49.0713C87.8936 49.0713 87.9004 49.0732 87.9014 49.0758ZM87.8947 49.0867C87.8947 49.088 87.891 49.0912 87.8864 49.0932C87.8822 49.0951 87.8801 49.0944 87.8817 49.0906C87.8848 49.0842 87.8947 49.0816 87.8947 49.0867ZM87.8999 49.1305C87.8999 49.1626 87.904 49.1607 87.9061 49.1273C87.9082 49.0899 87.9134 49.0996 87.9144 49.142C87.9149 49.1633 87.9134 49.1806 87.9113 49.1806C87.9092 49.1806 87.9071 49.1864 87.9066 49.1935C87.9061 49.2006 87.9077 49.2051 87.9103 49.2032C87.9123 49.2012 87.9139 49.2051 87.9128 49.2109C87.9118 49.2173 87.9108 49.225 87.9108 49.2276C87.9103 49.2308 87.9082 49.2308 87.9051 49.2289C87.8962 49.2224 87.8994 49.2334 87.9092 49.243C87.9139 49.2482 87.9149 49.2508 87.9118 49.2482C87.9082 49.2462 87.9051 49.2469 87.9051 49.2495C87.9051 49.2527 87.9082 49.2591 87.9118 49.2636C87.917 49.2707 87.917 49.272 87.9118 49.2681C87.9082 49.2655 87.9051 49.2655 87.9045 49.2688C87.9045 49.2713 87.9035 49.2797 87.9025 49.2861C87.9014 49.2932 87.903 49.3035 87.9056 49.3086C87.9097 49.317 87.9103 49.3164 87.9082 49.3061C87.9066 49.299 87.9077 49.2887 87.9103 49.2836C87.9139 49.2771 87.9154 49.2887 87.9149 49.3221C87.9144 49.3485 87.9165 49.3775 87.9196 49.3865C87.9227 49.3955 87.9253 49.398 87.9253 49.3929C87.9258 49.3865 87.9315 49.382 87.9419 49.3813C87.9507 49.3807 87.9565 49.382 87.9549 49.3852C87.9533 49.3884 87.9461 49.4283 87.9388 49.4733C87.9248 49.5595 87.9212 49.5749 87.9201 49.5434C87.9196 49.5235 87.9186 49.5132 87.9128 49.4727C87.9108 49.4559 87.9113 49.4444 87.9144 49.4418C87.918 49.4392 87.9191 49.4437 87.9175 49.454C87.9165 49.463 87.917 49.4752 87.9196 49.481C87.9237 49.49 87.9248 49.4894 87.9274 49.4804C87.9295 49.4739 87.9289 49.4707 87.9258 49.4733C87.9227 49.4752 87.9206 49.4739 87.9206 49.4707C87.9206 49.4669 87.9232 49.4637 87.9269 49.4637C87.9315 49.4637 87.9315 49.4617 87.9274 49.4566C87.9201 49.4476 87.9248 49.4296 87.9326 49.436C87.9357 49.4379 87.9362 49.4366 87.9341 49.4328C87.9321 49.4283 87.9326 49.4251 87.9352 49.4251C87.9378 49.4251 87.9414 49.4161 87.9424 49.4058C87.9456 49.38 87.9398 49.3813 87.931 49.409C87.9269 49.4212 87.9222 49.4315 87.9201 49.4315C87.9134 49.4315 87.904 49.4128 87.9066 49.4045C87.9087 49.3993 87.9097 49.4 87.9097 49.4071C87.9103 49.4135 87.9128 49.4186 87.9154 49.4186C87.9232 49.4186 87.9217 49.4083 87.9123 49.3968C87.9061 49.389 87.9061 49.3865 87.9113 49.3865C87.9165 49.3865 87.916 49.3845 87.9103 49.38C87.9061 49.3768 87.9045 49.3736 87.9071 49.3736C87.9097 49.3736 87.9092 49.3697 87.9066 49.3652C87.9035 49.3614 87.9009 49.353 87.9009 49.3479C87.8999 49.3221 87.8947 49.2636 87.8895 49.2289C87.8838 49.1877 87.8827 49.144 87.8869 49.1498C87.8885 49.1517 87.8905 49.1633 87.891 49.1761C87.8921 49.189 87.8942 49.2019 87.8962 49.2044C87.8999 49.2089 87.8957 49.1215 87.8916 49.1047C87.8905 49.1002 87.8921 49.0983 87.8947 49.1002C87.8978 49.1022 87.8999 49.1163 87.8999 49.1305ZM87.8827 49.1369C87.8812 49.1414 87.8801 49.1382 87.8801 49.1292C87.8801 49.1202 87.8812 49.117 87.8827 49.1208C87.8838 49.1253 87.8838 49.133 87.8827 49.1369ZM87.9674 49.29C87.9699 49.2919 87.9699 49.3035 87.9679 49.3157C87.9642 49.3382 87.9642 49.3382 87.9611 49.3202C87.9596 49.3099 87.9606 49.3029 87.9637 49.3029C87.9674 49.3029 87.9674 49.3003 87.9632 49.2951C87.9596 49.2906 87.9575 49.2816 87.9575 49.2739C87.958 49.261 87.958 49.261 87.9606 49.2739C87.9622 49.281 87.9653 49.2881 87.9674 49.29ZM90.7523 50.2934C91.4713 50.3417 92.1456 50.5989 92.7545 51.0563C93.3613 51.513 93.8814 52.1755 94.2375 52.9467C94.7307 54.0138 94.9056 55.2726 94.7307 56.4908C94.6045 57.3714 94.291 58.216 93.8357 58.9029C93.707 59.0972 93.4988 59.3647 93.3582 59.5165C92.7 60.2286 91.9281 60.6615 91.0819 60.7933C90.8795 60.8255 90.784 60.8319 90.5421 60.8319C90.2483 60.8319 90.0697 60.8139 89.7946 60.7554C89.1047 60.6081 88.4454 60.2415 87.8957 59.6992C87.658 59.4644 87.4124 59.1628 87.2224 58.8714C86.7278 58.1111 86.4127 57.1952 86.3145 56.2303C86.2886 55.9795 86.2834 55.8611 86.2834 55.5614C86.2834 55.2616 86.2886 55.1433 86.3145 54.8924C86.422 53.8337 86.7833 52.8502 87.36 52.0468C87.4374 51.9388 87.5879 51.7503 87.672 51.6564C88.3562 50.8897 89.2002 50.4253 90.1138 50.3127C90.3178 50.2876 90.5571 50.2805 90.7523 50.2934Z" fill="#91B3FA"></path><path d="M88.5898 48.0074C88.5898 48.0105 88.5926 48.0117 88.5953 48.0099C88.5985 48.008 88.6007 48.005 88.6007 48.0031C88.6007 48.0019 88.5985 48.0007 88.5953 48.0007C88.5926 48.0007 88.5898 48.0038 88.5898 48.0074Z" fill="#91B3FA"></path><path d="M88.5103 48.0641C88.5087 48.0667 88.5108 48.074 88.5149 48.0792C88.521 48.0864 88.521 48.0904 88.5164 48.0976C88.5128 48.1028 88.5174 48.0996 88.5256 48.0904C88.5343 48.0812 88.542 48.0727 88.5435 48.0713C88.5451 48.07 88.542 48.0707 88.5374 48.0727C88.5323 48.0753 88.5282 48.074 88.5282 48.0713C88.5282 48.0628 88.5139 48.0569 88.5103 48.0641Z" fill="#91B3FA"></path><path d="M88.4417 48.1842C88.4298 48.1982 88.4314 48.2024 88.4437 48.1896C88.4494 48.1836 88.454 48.1775 88.454 48.1763C88.454 48.172 88.4494 48.175 88.4417 48.1842Z" fill="#91B3FA"></path><path d="M87.9313 48.2261C87.9271 48.229 87.9266 48.2324 87.9297 48.2348C87.9323 48.2365 87.9359 48.2342 87.938 48.2295C87.9411 48.2197 87.9411 48.2191 87.9313 48.2261Z" fill="#91B3FA"></path><path d="M87.821 48.3535C87.8195 48.3605 87.8205 48.3662 87.8231 48.3662C87.8257 48.3662 87.8277 48.3605 87.8277 48.3535C87.8277 48.3466 87.8267 48.3409 87.8257 48.3409C87.8246 48.3409 87.8226 48.3466 87.821 48.3535Z" fill="#91B3FA"></path><path d="M88.342 48.316C88.3363 48.3201 88.3363 48.3213 88.3431 48.3242C88.3482 48.3265 88.3513 48.3248 88.3513 48.3195C88.3513 48.3096 88.3508 48.3096 88.342 48.316Z" fill="#91B3FA"></path><path d="M90.3047 50.8187C89.511 50.8798 88.7505 51.242 88.14 51.8498C87.9859 52.0029 87.7788 52.2473 87.6568 52.4197C86.7769 53.6611 86.4784 55.3708 86.8657 56.9505C86.9908 57.4619 87.1937 57.9604 87.4491 58.3875C88.1317 59.526 89.1518 60.2155 90.2969 60.312C90.4085 60.3217 90.6758 60.3217 90.7848 60.3127C91.5458 60.2471 92.2461 59.9267 92.8431 59.3697C93.5054 58.7516 93.9861 57.8929 94.2187 56.9126C94.4632 55.8802 94.4211 54.7893 94.0977 53.7898C93.9628 53.371 93.765 52.9523 93.534 52.5966C93.4104 52.4056 93.2132 52.1483 93.0741 51.9978C92.4252 51.2915 91.6227 50.8843 90.7485 50.8181C90.6504 50.811 90.4043 50.811 90.3047 50.8187ZM90.6603 51.963C91.319 52.0023 91.9149 52.2898 92.4148 52.8108C92.5005 52.9002 92.6941 53.1414 92.7647 53.2462C93.1732 53.856 93.399 54.5539 93.4431 55.3431C93.4504 55.4769 93.4463 55.7799 93.4348 55.9124C93.3969 56.3659 93.3004 56.7807 93.1421 57.1731C93.0398 57.4272 92.9173 57.6581 92.7657 57.8839C92.6962 57.9868 92.502 58.2273 92.4148 58.318C91.9295 58.8236 91.3444 59.115 90.7148 59.1652C90.5803 59.1761 90.3556 59.169 90.2216 59.1504C89.4658 59.0436 88.7925 58.5972 88.3072 57.8806C87.9127 57.2979 87.677 56.5665 87.6344 55.7934C87.6287 55.6866 87.6313 55.3586 87.6386 55.266C87.6796 54.7572 87.7813 54.323 87.9568 53.9055C88.2631 53.1755 88.7785 52.5824 89.3911 52.2538C89.7067 52.0839 90.0685 51.9804 90.3955 51.9649C90.4428 51.963 90.4822 51.9604 90.4832 51.9592C90.4869 51.9553 90.5481 51.9566 90.6603 51.963Z" fill="#91B3FA"></path><path d="M88.8325 47.8125C88.8363 47.8141 88.8412 47.8136 88.8429 47.8119C88.8451 47.8103 88.8418 47.8086 88.8358 47.8092C88.8298 47.8092 88.8282 47.8108 88.8325 47.8125Z" fill="#91B3FA"></path><path d="M88.8111 47.8183C88.8149 47.82 88.8198 47.8194 88.8214 47.8178C88.8236 47.8161 88.8203 47.8145 88.8143 47.815C88.8083 47.815 88.8067 47.8167 88.8111 47.8183Z" fill="#91B3FA"></path><path d="M88.6855 47.8599C88.6835 47.8634 88.6829 47.8669 88.6845 47.8686C88.6855 47.8704 88.6881 47.8675 88.6897 47.8622C88.6933 47.8524 88.6902 47.8506 88.6855 47.8599Z" fill="#91B3FA"></path><path d="M88.6646 47.8713C88.6666 47.8748 88.6703 47.8759 88.6728 47.8742C88.6801 47.869 88.6785 47.8655 88.6692 47.8655C88.6651 47.8655 88.663 47.8684 88.6646 47.8713Z" fill="#91B3FA"></path><path d="M88.5458 47.917C88.5473 47.9199 88.5515 47.9229 88.554 47.9229C88.5571 47.9229 88.5577 47.9199 88.5561 47.917C88.5546 47.9135 88.5504 47.9112 88.5478 47.9112C88.5447 47.9112 88.5442 47.9135 88.5458 47.917Z" fill="#91B3FA"></path><path d="M88.5195 47.9239C88.5174 47.9274 88.5169 47.9309 88.5185 47.9326C88.5195 47.9343 88.5221 47.9314 88.5236 47.9262C88.5273 47.9163 88.5242 47.9146 88.5195 47.9239Z" fill="#91B3FA"></path><path d="M88.3448 48.0176C88.3428 48.0255 88.3438 48.0308 88.3464 48.0282C88.349 48.0262 88.351 48.0282 88.351 48.0321C88.351 48.0361 88.3536 48.0374 88.3567 48.0348C88.3603 48.0321 88.3603 48.0288 88.3577 48.0262C88.3546 48.0242 88.3515 48.0176 88.35 48.0123C88.3484 48.0057 88.3469 48.007 88.3448 48.0176Z" fill="#91B3FA"></path><rect x="96.4668" y="88.5894" width="67.1315" height="111.409" rx="2.21477" fill="#BDD0F8"></rect><rect x="153.443" y="127.517" width="60.9261" height="72.4832" rx="2.21477" fill="#4649EE"></rect><rect x="40.6172" y="127.517" width="60.9261" height="72.4832" rx="2.21477" fill="#4B4EF7"></rect><path d="M49.3984 81.8715C49.3984 81.8715 51.5814 80.4153 51.0941 72.9368L55.6037 71.8848C55.6037 71.8848 55.0955 78.5897 57.379 80.7186L49.3984 81.8715Z" fill="#FFCCC6"></path><g opacity="0.15"><path opacity="0.15" d="M56.4572 79.3173L52.7109 75.7112L55.6539 75.6729C55.7387 76.94 56.0111 78.1761 56.4572 79.3173Z" fill="#141226"></path></g><path d="M48.5357 70.0357C48.848 72.3049 49.8322 74.4534 51.4231 75.1857C53.3119 76.0555 54.7108 76.1145 56.8884 76.1145C59.8599 76.1145 59.7617 72.2161 59.8452 68.2872C59.9299 64.3427 59.6798 60.1119 58.5053 58.7374C56.162 55.9936 49.2805 57.7312 48.4437 62.32C48.01 64.6929 48.2384 67.8752 48.5357 70.0357Z" fill="#FFCCC6"></path><path d="M61.4369 61.0188C61.4369 61.0188 62.654 60.6768 62.3206 59.1502C62.0998 58.138 61.0687 58.3628 61.0687 58.3628C61.0687 58.3628 62.045 58.138 62.045 57.0657C62.045 56.3909 61.6322 55.2455 60.3875 55.8997C58.9267 56.6672 57.261 56.5685 55.9941 56.3007C55.2776 56.1033 54.5502 55.9742 53.8182 55.9142H53.8143C52.9728 55.8957 52.1339 56.0369 51.3259 56.333C49.0616 57.1854 45.635 59.7395 46.3634 65.5295C47.1765 71.9915 49.587 74.4628 50.6474 75.2555C50.7018 75.2967 50.7621 75.3241 50.8248 75.336C50.8876 75.3478 50.9516 75.3441 51.0132 75.3248C51.0749 75.3056 51.1328 75.2713 51.1839 75.2239C51.235 75.1765 51.2781 75.1168 51.3109 75.0484C51.3308 75.0067 51.3467 74.9621 51.3583 74.9156C51.659 73.7048 52.1771 70.6574 52.0322 64.3737C58.9922 63.944 60.9947 63.814 60.9947 63.814C60.9947 63.814 62.6322 63.8911 62.6322 62.3855C62.6322 60.8799 61.4369 61.0188 61.4369 61.0188Z" fill="#0F1011"></path><path d="M55.5985 68.2881C55.8245 68.2881 56.0076 68.0577 56.0076 67.7734C56.0076 67.4892 55.8245 67.2588 55.5985 67.2588C55.3726 67.2588 55.1895 67.4892 55.1895 67.7734C55.1895 68.0577 55.3726 68.2881 55.5985 68.2881Z" fill="#0F1011"></path><path d="M58.8232 67.9556C59.0491 67.9556 59.2323 67.7251 59.2323 67.4409C59.2323 67.1567 59.0491 66.9263 58.8232 66.9263C58.5972 66.9263 58.4141 67.1567 58.4141 67.4409C58.4141 67.7251 58.5972 67.9556 58.8232 67.9556Z" fill="#0F1011"></path><path d="M59.5338 66.3437H59.5313L58.4474 66.3267C58.3977 66.3239 58.3508 66.297 58.3166 66.2516C58.2823 66.2063 58.2633 66.146 58.2637 66.0834C58.264 66.0208 58.2836 65.9609 58.3183 65.9161C58.3531 65.8713 58.4002 65.8452 58.45 65.8433H58.4525L59.5361 65.86C59.5871 65.8603 59.6358 65.8862 59.6717 65.9318C59.7075 65.9774 59.7275 66.0391 59.7272 66.1033C59.7269 66.1674 59.7064 66.2288 59.6701 66.2739C59.6338 66.319 59.5848 66.3441 59.5338 66.3437Z" fill="#0F1011"></path><path d="M54.7125 66.8403C54.6653 66.8405 54.6196 66.8188 54.5843 66.7794C54.5489 66.74 54.5264 66.6856 54.5208 66.6266C54.5153 66.5676 54.5273 66.5081 54.5544 66.4595C54.5815 66.4109 54.6219 66.3765 54.6679 66.3629L55.7362 66.0397C55.7609 66.0318 55.7866 66.0301 55.8117 66.0348C55.8369 66.0395 55.8611 66.0504 55.8829 66.067C55.9047 66.0835 55.9237 66.1053 55.9387 66.1311C55.9538 66.157 55.9646 66.1863 55.9706 66.2174C55.9765 66.2486 55.9775 66.2809 55.9735 66.3125C55.9694 66.3441 55.9604 66.3744 55.947 66.4016C55.9336 66.4288 55.916 66.4524 55.8953 66.471C55.8746 66.4896 55.8511 66.5028 55.8263 66.5099L54.7577 66.8335C54.7429 66.8379 54.7277 66.8401 54.7125 66.8403Z" fill="#0F1011"></path><path d="M53.4711 69.0318C53.4928 69.317 53.4697 69.6048 53.403 69.8788C53.3363 70.1527 53.2274 70.4075 53.0825 70.6285C52.9375 70.8495 52.7594 71.0325 52.5583 71.1669C52.3571 71.3013 52.1369 71.3846 51.9102 71.412C51.6835 71.4393 51.4547 71.4102 51.2369 71.3263C51.0191 71.2425 50.8166 71.1055 50.6409 70.9231C50.4652 70.7408 50.3198 70.5167 50.213 70.2637C50.1061 70.0106 50.0399 69.7336 50.0182 69.4484C50.0165 69.4281 50.0154 69.4075 50.0142 69.3869C49.9921 69.1066 50.014 68.8235 50.0788 68.5539C50.1437 68.2843 50.2501 68.0333 50.392 67.8154C50.5339 67.5975 50.7085 67.4169 50.9059 67.2839C51.1033 67.1509 51.3196 67.0681 51.5425 67.0403C51.5619 67.0378 51.5814 67.0357 51.6009 67.0343C52.8364 66.9849 53.3914 67.8309 53.4711 69.0318Z" fill="#FFCCC6"></path><g opacity="0.15"><path opacity="0.15" d="M57.4138 70.6273C57.3801 70.6271 57.3476 70.6117 57.3222 70.584C57.2968 70.5563 57.28 70.518 57.275 70.4761C57.27 70.4343 57.2771 70.3915 57.2949 70.3556C57.3127 70.3197 57.3402 70.293 57.3723 70.2803L58.2043 69.9585L57.6219 68.3283C57.6065 68.2853 57.6053 68.2364 57.6185 68.1924C57.6318 68.1483 57.6584 68.1127 57.6926 68.0933C57.7267 68.074 57.7656 68.0725 57.8006 68.0891C57.8356 68.1058 57.864 68.1393 57.8793 68.1823L58.5287 69.9965C58.5369 70.0195 58.5411 70.0444 58.5411 70.0696C58.5411 70.0947 58.5368 70.1196 58.5286 70.1426C58.5203 70.1655 58.5083 70.186 58.4933 70.2026C58.4783 70.2193 58.4606 70.2317 58.4415 70.2391L57.4564 70.6195C57.4426 70.6249 57.4282 70.6275 57.4138 70.6273Z" fill="#141226"></path></g><path d="M55.7871 71.826C55.7871 71.826 57.2973 72.0263 58.3563 71.561C58.3563 71.561 58.3478 72.8123 57.1527 72.9355C55.9576 73.0588 55.7871 71.826 55.7871 71.826Z" fill="white"></path><path d="M79.8262 81.8961C79.8262 81.8961 79.8685 77.6305 82.2923 77.8521C83.8214 77.992 91.0871 77.568 91.1952 78.4005C91.4629 80.4605 84.8169 80.9641 84.2138 82.8838L79.8262 81.8961Z" fill="#FFCCC6"></path><path d="M81.4336 77.9887C81.4336 77.9887 84.8071 76.6057 85.6363 76.8522C86.3704 77.0713 84.8402 78.5748 84.8402 78.5748L81.4336 77.9887Z" fill="#FFCCC6"></path><path d="M79.5403 79.4058L73.4567 93.6958L64.3545 82.9848C63.9362 82.1645 63.3618 81.4885 62.6834 81.0179L62.6399 80.9671L62.6297 80.9809C61.6015 80.331 60.4689 79.9854 59.3183 79.9705C59.1404 79.9598 58.8553 79.9527 58.4882 79.9456C58.4148 81.8991 48.7987 81.892 48.5955 79.8995C45.8795 79.903 43.6519 80.9508 42.3616 82.5739C37.915 88.1679 43.3724 97.7007 43.3724 105.159C43.3724 112.618 40.6903 115.964 40.8879 119.792C41.1985 125.809 64.4425 124.388 65.6252 120.968C66.3178 118.968 65.8192 117.401 65.2788 114.312L70.7944 114.099L70.6069 106.358L64.5072 106.592C64.4809 105.709 64.4694 104.763 64.479 103.741C64.5072 100.729 64.9098 97.386 65.1896 94.1799L72.2229 102.455C72.5548 102.846 72.9534 103.135 73.3882 103.301C73.823 103.466 74.2823 103.504 74.7305 103.411C75.1788 103.318 75.604 103.097 75.9734 102.764C76.3428 102.431 76.6465 101.996 76.861 101.492L84.7662 82.9241L79.5403 79.4058Z" fill="#2F3235"></path><path d="M58.4904 79.9436C58.417 81.8971 57.5729 84.7704 54.967 84.9871C51.4943 85.2748 48.8009 81.89 48.5977 79.8975H48.6061C52.0251 79.8975 56.4972 79.9053 58.4904 79.9436Z" fill="#FFCCC6"></path><path d="M69.3428 87.8962L65.9145 106C65.8612 106.281 65.8593 106.575 65.9089 106.857C65.9586 107.14 66.0585 107.405 66.2012 107.632C66.3439 107.86 66.5256 108.043 66.7327 108.17C66.9399 108.296 67.1671 108.362 67.3972 108.362H87.6074C87.9414 108.362 88.266 108.224 88.5316 107.969C88.7971 107.714 88.9888 107.357 89.0772 106.952L93.0273 88.8481C93.0893 88.5635 93.0982 88.2649 93.0535 87.9752C93.0087 87.6856 92.9114 87.4129 92.7692 87.1783C92.627 86.9437 92.4437 86.7535 92.2335 86.6226C92.0234 86.4916 91.792 86.4235 91.5575 86.4233H70.8256C70.4828 86.4234 70.15 86.5688 69.8809 86.836C69.6119 87.1033 69.4223 87.4768 69.3428 87.8962Z" fill="#898BFC"></path><path d="M58.7198 106.107H83.1465C83.384 106.107 83.6118 106.226 83.7798 106.437C83.9477 106.648 84.0421 106.935 84.0421 107.234C84.0421 107.532 83.9477 107.819 83.7798 108.03C83.6118 108.241 83.384 108.36 83.1465 108.36H58.7198C58.4822 108.36 58.2545 108.241 58.0865 108.03C57.9186 107.819 57.8242 107.532 57.8242 107.234C57.8242 106.935 57.9186 106.648 58.0865 106.437C58.2545 106.226 58.4822 106.107 58.7198 106.107Z" fill="#898BFC"></path><path d="M80.2984 100.22C81.6185 100.22 82.6886 98.8741 82.6886 97.2134C82.6886 95.5528 81.6185 94.2065 80.2984 94.2065C78.9783 94.2065 77.9082 95.5528 77.9082 97.2134C77.9082 98.8741 78.9783 100.22 80.2984 100.22Z" fill="white"></path><path d="M75.6949 110.736C74.4276 111.72 72.4654 112.185 70.7542 112.355L70.6582 108.434C71.4631 108.406 72.6997 108.299 73.9106 108.36C74.4581 107.798 74.7731 107.632 75.3347 106.925C75.9329 106.173 77.5021 105.721 77.7983 106.925C78.0944 108.129 76.8076 109.871 75.6949 110.736Z" fill="#FFCCC6"></path><path d="M112.467 24.2137L110.143 27.0527L111.064 28.1208L113.389 25.2818L112.467 24.2137Z" fill="#FE786D"></path><path d="M162.553 20.5911L161.471 21.4189L163.119 24.4682L164.201 23.6404L162.553 20.5911Z" fill="#FE786D"></path><path d="M142.486 72.3346C133.702 67.6438 132.87 48.703 133.282 46.9035C133.434 46.238 133.166 46.0654 132.769 46.1115C132.239 46.0381 131.255 46.6308 130.935 46.8351C130.614 46.6305 129.631 46.0379 129.101 46.1115C128.703 46.0654 128.436 46.238 128.588 46.9035C128.999 48.703 128.168 67.6438 119.384 72.3346C117.538 73.3202 118.174 74.4938 118.174 74.4938H143.696C143.696 74.4938 144.331 73.3202 142.486 72.3346Z" fill="#FE786D"></path><path d="M166.036 23.5295C163.478 28.262 160.383 29.584 156.929 30.7501C153.534 31.8967 150.602 32.886 148.745 36.6028C148.291 37.4851 147.955 38.446 147.749 39.4512V39.454C147.701 39.6942 147.664 39.9372 147.637 40.182C147.606 40.5023 147.511 40.809 147.359 41.0759C147.229 41.3013 147.054 41.4837 146.849 41.6058C146.643 41.7279 146.415 41.7857 146.186 41.7736C145.496 41.7736 145.093 41.4415 144.858 41.0285C144.649 40.6482 144.565 40.19 144.62 39.7405C144.631 39.6444 144.643 39.5479 144.656 39.4512C144.894 37.7888 145.394 36.1951 146.131 34.7548C148.605 29.7997 152.586 28.4555 156.099 27.2685C159.32 26.1817 161.542 25.1548 163.478 21.5731C164.441 19.7891 165.467 15.6939 164.24 12.4392C163.284 9.90663 161.72 8.42188 159.593 8.02391C153.784 6.93853 151.055 13.6707 150.942 13.9573C150.768 14.383 150.46 14.7104 150.085 14.8692C149.71 15.028 149.297 15.0056 148.936 14.8066C148.575 14.6077 148.294 14.2482 148.153 13.8053C148.012 13.3624 148.023 12.8714 148.183 12.4378C148.896 10.7463 149.849 9.21434 151.002 7.90981C153.56 5.01547 156.694 3.82016 160.064 4.45051C163.182 5.03216 165.65 7.34347 167.014 10.9586C168.568 15.0803 167.682 20.4849 166.036 23.5295Z" fill="#FE786D"></path><path d="M95.8384 23.5295C98.3964 28.262 101.725 29.584 105.179 30.7501C108.575 31.8967 111.507 32.886 113.363 36.6028C113.817 37.4851 114.154 38.446 114.36 39.4512V39.454C114.408 39.6942 114.445 39.9372 114.472 40.182C114.502 40.5023 114.598 40.8089 114.75 41.0759C114.879 41.3013 115.055 41.4837 115.26 41.6058C115.465 41.7279 115.693 41.7857 115.922 41.7736C116.612 41.7736 117.016 41.4415 117.25 41.0285C117.459 40.6481 117.544 40.19 117.488 39.7405C117.477 39.6444 117.465 39.5479 117.452 39.4512C117.215 37.7888 116.714 36.1951 115.977 34.7548C113.504 29.7997 109.522 28.4555 106.01 27.2685C102.788 26.1817 100.332 25.1548 98.3964 21.5731C97.4338 19.7891 96.642 15.6939 97.8689 12.4392C98.8245 9.90663 100.388 8.42188 102.516 8.02391C108.324 6.93853 111.053 13.6707 111.167 13.9573C111.341 14.383 111.649 14.7104 112.024 14.8692C112.399 15.028 112.811 15.0056 113.172 14.8066C113.533 14.6077 113.815 14.2482 113.956 13.8053C114.097 13.3624 114.086 12.8714 113.926 12.4378C113.213 10.7463 112.259 9.21434 111.107 7.90981C108.549 5.01547 105.414 3.82016 102.045 4.45051C98.9263 5.03216 96.4583 7.34347 95.0945 10.9586C93.5404 15.0803 94.1927 20.4849 95.8384 23.5295Z" fill="#FE786D"></path><path d="M150.394 2.27011C150.334 1.64524 150.083 1.06847 149.689 0.649787C149.294 0.231106 148.784 -0.000192208 148.255 1.19846e-07H113.822C113.294 -0.000192208 112.783 0.231106 112.389 0.649787C111.994 1.06847 111.743 1.64524 111.683 2.27011C111.129 8.09456 110.139 23.7133 114.349 32.3309C119.592 43.0648 127.55 46.9034 129.264 46.9034H132.813C134.527 46.9034 142.485 43.0648 147.728 32.3309C151.938 23.7136 150.948 8.09456 150.394 2.27011Z" fill="#FE786D"></path><path d="M143.694 74.4927H118.184V81.7452H143.694V74.4927Z" fill="#0F1011"></path><path d="M145.25 81.7461H116.631V83.4903H145.25V81.7461Z" fill="#0F1011"></path><path d="M146.72 83.4912H115.16V85.2355H146.72V83.4912Z" fill="#0F1011"></path><path d="M136.367 27.398L131.018 24.0513L125.664 27.398L126.689 20.3127L122.359 15.2931L128.341 14.2615L131.018 7.81348L133.688 14.2615L139.671 15.2931L135.342 20.3127L136.367 27.398Z" fill="white"></path><path d="M213.59 55.5093C213.59 55.5093 214.06 50.089 218.059 50.089C222.807 50.089 219.565 65.6316 217.487 75.1362C217.266 76.1526 217.227 77.2132 217.373 78.2488C217.518 79.2843 217.846 80.2716 218.334 81.1461C218.822 82.0206 219.459 82.7626 220.205 83.3237C220.95 83.8848 221.786 84.2524 222.658 84.4025C223.499 84.5482 224.356 84.4887 225.177 84.2277C225.998 83.9666 226.766 83.5095 227.434 82.884C228.102 82.2585 228.657 81.4777 229.064 80.589C229.47 79.7004 229.722 78.7225 229.801 77.7147C230.762 65.5273 230.539 43.0402 219.775 43.473C212.782 43.7546 212.782 52.0582 212.782 52.0582L213.59 55.5093Z" fill="#0F1011"></path><path d="M213.59 74.1419C213.59 74.1419 210.697 72.3147 211.343 62.9313L205.366 61.6113C205.366 61.6113 206.038 70.0241 203.014 72.6953L213.59 74.1419Z" fill="#FFCCC6"></path><g opacity="0.15"><path opacity="0.15" d="M204.238 70.9374L209.203 66.4124L205.303 66.3643C205.191 67.9544 204.829 69.5054 204.238 70.9374Z" fill="#141226"></path></g><path d="M214.734 59.2932C214.32 62.1404 213.016 64.8361 210.908 65.755C208.61 66.8413 206.123 67.2413 203.666 66.9204C197.123 66.2813 198.417 48.5599 201.523 45.1169C204.629 41.6739 213.747 43.8544 214.856 49.6121C215.429 52.5908 215.128 56.5815 214.734 59.2932Z" fill="#FFCCC6"></path><path d="M205.374 57.1015C205.075 57.1015 204.832 56.8124 204.832 56.4558C204.832 56.0992 205.075 55.8101 205.374 55.8101C205.673 55.8101 205.916 56.0992 205.916 56.4558C205.916 56.8124 205.673 57.1015 205.374 57.1015Z" fill="#0F1011"></path><path d="M201.099 56.6845C200.799 56.6845 200.556 56.3954 200.556 56.0388C200.556 55.6822 200.799 55.3931 201.099 55.3931C201.398 55.3931 201.641 55.6822 201.641 56.0388C201.641 56.3954 201.398 56.6845 201.099 56.6845Z" fill="#0F1011"></path><path d="M200.159 54.6616H200.162L201.598 54.6402C201.666 54.6392 201.73 54.6062 201.777 54.5487C201.824 54.4911 201.85 54.4136 201.85 54.3332C201.848 54.2531 201.82 54.177 201.771 54.1212C201.723 54.0653 201.659 54.0339 201.591 54.0337L200.155 54.0546C200.088 54.0552 200.023 54.0877 199.976 54.1449C199.928 54.2022 199.902 54.2796 199.902 54.3601C199.903 54.4406 199.93 54.5176 199.978 54.5741C200.026 54.6307 200.091 54.6621 200.159 54.6616Z" fill="#0F1011"></path><path d="M206.545 55.2859C206.607 55.2857 206.667 55.2583 206.714 55.209C206.76 55.1596 206.79 55.0916 206.797 55.0179C206.804 54.9442 206.789 54.8698 206.753 54.809C206.717 54.7481 206.664 54.7048 206.604 54.6874L205.188 54.2819C205.156 54.2725 205.122 54.2709 205.089 54.2771C205.056 54.2834 205.024 54.2973 204.995 54.3181C204.967 54.3389 204.942 54.3662 204.922 54.3985C204.903 54.4307 204.889 54.4673 204.881 54.506C204.873 54.5448 204.872 54.585 204.877 54.6244C204.882 54.6638 204.894 54.7016 204.911 54.7356C204.929 54.7696 204.951 54.7992 204.979 54.8227C205.006 54.8461 205.036 54.863 205.069 54.8724L206.484 55.2779C206.504 55.2832 206.524 55.2859 206.545 55.2859Z" fill="#0F1011"></path><path d="M205.123 61.5395C205.123 61.5395 203.122 61.7908 201.719 61.207C201.719 61.207 201.73 62.777 203.313 62.9317C204.897 63.0863 205.123 61.5395 205.123 61.5395Z" fill="white"></path><path d="M210.331 51.9159C209.76 64.905 211.257 66.246 211.257 66.246C211.257 66.246 216.705 62.3426 217.416 54.5421C218.083 47.23 213.56 42.9108 210.503 42.0984C198.889 39.0048 197.607 51.6004 197.607 51.6004C203.42 53.3803 211.588 52.1757 211.588 52.1757" fill="#0F1011"></path><path d="M208.194 58.0347C208.164 58.3958 208.196 58.7602 208.286 59.1067C208.376 59.4532 208.523 59.7749 208.719 60.0531C208.914 60.3313 209.154 60.5604 209.425 60.7272C209.695 60.894 209.991 60.9951 210.294 61.0246C210.598 61.0541 210.903 61.0115 211.193 60.8992C211.482 60.7869 211.75 60.6072 211.981 60.3704C212.212 60.1337 212.401 59.8447 212.537 59.5202C212.673 59.1957 212.754 58.8423 212.774 58.4803C212.804 58.1208 212.773 57.7579 212.683 57.413C212.592 57.0682 212.445 56.7485 212.249 56.473C212.052 56.1976 211.812 55.972 211.541 55.8097C211.27 55.6474 210.974 55.5517 210.672 55.5284C209.034 55.4673 208.297 56.528 208.194 58.0347Z" fill="#FFCCC6"></path><g opacity="0.15"><path opacity="0.15" d="M202.969 60.0361C203.013 60.0357 203.056 60.0164 203.09 59.9815C203.124 59.9467 203.146 59.8987 203.152 59.8462C203.159 59.7937 203.149 59.7401 203.126 59.6951C203.102 59.6501 203.066 59.6166 203.023 59.6007L201.921 59.197L202.693 57.1515C202.712 57.0977 202.713 57.0369 202.695 56.9823C202.678 56.9276 202.643 56.8835 202.598 56.8594C202.553 56.8354 202.502 56.8334 202.456 56.8539C202.41 56.8743 202.372 56.9156 202.351 56.9688L201.493 59.2447C201.482 59.2735 201.477 59.3047 201.477 59.3363C201.477 59.3679 201.482 59.3991 201.493 59.4279C201.504 59.4567 201.52 59.4824 201.54 59.5033C201.56 59.5241 201.583 59.5397 201.609 59.549L202.914 60.0263C202.932 60.0329 202.95 60.0362 202.969 60.0361Z" fill="#141226"></path></g><path d="M217.179 51.3003C217.312 51.3 217.443 51.2662 217.564 51.201C217.685 51.1358 217.793 51.0407 217.881 50.922C217.969 50.8033 218.035 50.6637 218.074 50.5125C218.113 50.3613 218.124 50.2019 218.108 50.0449C217.839 47.9919 216.998 46.1064 215.72 44.6919C215.532 44.5052 215.291 44.4136 215.047 44.4366C214.803 44.4596 214.577 44.5954 214.416 44.8149C214.255 45.0343 214.173 45.3201 214.187 45.6109C214.201 45.9017 214.31 46.1744 214.491 46.3706C215.422 47.4278 216.04 48.8159 216.253 50.327C216.282 50.5956 216.391 50.8426 216.562 51.0217C216.732 51.2008 216.952 51.2998 217.179 51.3003Z" fill="#4F52FF"></path><path d="M173.828 73.8478C173.828 73.8478 173.772 68.4957 170.56 68.7742C168.534 68.9498 158.907 68.4177 158.763 69.4618C158.409 72.0465 167.215 72.6784 168.014 75.0871L173.828 73.8478Z" fill="#FFCCC6"></path><path d="M171.697 68.9464C171.697 68.9464 167.227 67.2084 166.128 67.5204C165.156 67.7953 167.183 69.6818 167.183 69.6818L171.697 68.9464Z" fill="#FFCCC6"></path><path d="M192.643 122.872C194.211 127.163 223.068 128.946 223.48 121.397C223.742 116.593 220.217 112.399 220.217 103.036C220.217 93.6734 227.465 83.9762 221.573 76.9574C219.863 74.9208 218.808 71.3467 215.209 71.3423C214.94 73.8423 202.198 73.8512 202.1 71.4002C201.614 71.4091 201.236 71.418 201.001 71.4314C188.588 72.0687 195.212 88.8961 195.331 101.258C195.477 115.724 191.027 118.451 192.643 122.872Z" fill="white"></path><path d="M202.1 71.4002C202.198 73.8512 203.316 77.4565 206.769 77.7283C211.371 78.0893 214.94 73.8423 215.209 71.3423H215.198C210.667 71.3423 204.742 71.3512 202.1 71.4002Z" fill="#FFCCC6"></path><path d="M174.205 70.7227L182.214 88.5341L194.544 74.2045C195.657 72.5217 197.411 71.4722 200.093 71.3323C200.297 71.322 202.4 71.2432 202.525 71.392C203.276 72.2878 203.691 88.0693 203.317 96.8382C202.908 106.33 203.329 118.184 202.949 125C202.924 125.447 202.822 125.883 202.648 126.281C202.475 126.679 202.234 127.029 201.941 127.31C201.648 127.591 201.309 127.797 200.946 127.914C200.583 128.031 200.203 128.057 199.831 127.991C195.798 127.256 192.652 126.005 192.194 124.75C190.578 120.329 194.307 115.72 194.161 101.254C194.124 97.3613 193.569 93.0101 193.182 88.8598L183.96 99.5771C183.524 100.084 182.995 100.462 182.415 100.684C181.835 100.905 181.22 100.963 180.618 100.852C180.016 100.741 179.444 100.466 178.947 100.046C178.45 99.6273 178.042 99.0762 177.754 98.4367L167.279 75.139L174.205 70.7227Z" fill="#2F3235"></path><path d="M186.043 104.541L206.893 105.298L211.36 94.1623C212.081 85.6301 213.036 78.359 213.474 74.5447C214.035 71.0121 213.736 71.2626 215.143 71.2612C218.742 71.2657 221.76 72.6588 223.47 74.6954C229.362 81.7142 222.13 93.6752 222.13 103.034C222.13 112.392 225.684 116.59 225.423 121.394C225.261 124.395 223.974 128.191 214.265 129.004C213.479 129.07 212.702 128.774 212.094 128.176C211.486 127.579 211.093 126.727 210.997 125.795C210.651 122.193 210.469 118.57 210.453 114.944C210.119 115.051 209.774 115.106 209.427 115.108C209.386 115.108 209.344 115.108 209.302 115.106L185.794 114.252L186.043 104.541Z" fill="#2F3235"></path><path d="M216.138 81.9204L215.21 78.2973L216.998 76.9034L215.528 71.2749C214.628 71.2308 213.728 71.2531 212.831 71.3418C211.948 74.8579 210.997 89.9562 210.653 95.852L216.138 81.9204Z" fill="#2F3235"></path><path d="M200.65 78.2978L199.266 83.7034L203.265 98.2225C203.265 98.2225 204.062 76.288 203.003 71.3726C202.63 71.3127 202.254 71.2792 201.878 71.2723C201.109 71.2594 200.32 71.3213 200.32 71.3213L198.862 76.9039L200.65 78.2978Z" fill="#2F3235"></path><g opacity="0.24"><path opacity="0.24" d="M216.138 81.9199L215.21 78.2968L216.998 76.9029L215.528 71.2744C214.628 71.2303 213.728 71.2526 212.831 71.3413C211.948 74.8574 210.997 89.9557 210.653 95.8515L216.138 81.9199Z" fill="white"></path></g><g opacity="0.24"><path opacity="0.24" d="M200.648 78.2963L199.264 83.702L203.263 98.221C203.263 98.221 204.06 76.2865 203.001 71.3711C202.628 71.3113 202.252 71.2778 201.876 71.2708C201.108 71.2579 200.318 71.3198 200.318 71.3198L198.86 76.9024L200.648 78.2963Z" fill="white"></path></g><path d="M187.719 81.374L192.262 104.089C192.332 104.442 192.335 104.81 192.269 105.165C192.203 105.52 192.071 105.852 191.882 106.137C191.693 106.422 191.452 106.653 191.178 106.811C190.903 106.97 190.602 107.052 190.297 107.052H163.517C163.075 107.052 162.644 106.879 162.293 106.559C161.941 106.24 161.687 105.791 161.57 105.283L156.335 82.5683C156.253 82.2112 156.241 81.8365 156.301 81.4731C156.36 81.1097 156.489 80.7675 156.677 80.4731C156.866 80.1788 157.109 79.9401 157.387 79.7758C157.666 79.6116 157.972 79.526 158.283 79.5259H185.754C186.209 79.5259 186.65 79.7084 187.006 80.0437C187.363 80.379 187.614 80.8476 187.719 81.374Z" fill="#FE7E73"></path><path d="M169.429 104.224H201.796C202.451 104.224 202.982 104.857 202.982 105.638C202.982 106.418 202.451 107.051 201.796 107.051H169.429C168.773 107.051 168.242 106.418 168.242 105.638C168.242 104.857 168.773 104.224 169.429 104.224Z" fill="#FE7E73"></path><path d="M173.202 96.8376C171.453 96.8376 170.035 95.1485 170.035 93.0648C170.035 90.9811 171.453 89.292 173.202 89.292C174.951 89.292 176.369 90.9811 176.369 93.0648C176.369 95.1485 174.951 96.8376 173.202 96.8376Z" fill="white"></path><path d="M179.302 110.034C180.982 111.269 183.582 111.853 185.849 112.067L185.977 107.147C184.91 107.111 183.271 106.977 181.666 107.053C180.941 106.349 180.524 106.14 179.78 105.253C178.987 104.309 176.908 103.742 176.515 105.253C176.122 106.763 177.828 108.947 179.302 110.034Z" fill="#FFCCC6"></path><path d="M170.65 32.2153L172.74 40.7947H179.503L174.031 46.097L176.121 54.6763L170.65 49.374L165.179 54.6763L167.269 46.097L161.797 40.7947H168.56L170.65 32.2153Z" fill="#96B7FB"></path></svg>