<svg width="670" height="495" viewBox="0 0 670 495" fill="none" xmlns="http://www.w3.org/2000/svg">
<path fill-rule="evenodd" clip-rule="evenodd" d="M34.6463 202.261C56.5218 235.789 81.9998 268.254 97.3003 304.912C96.6837 300.592 96.03 296.275 95.2982 291.965C91.4159 269.116 86.5909 246.434 81.5206 223.78C78.9385 212.245 76.2076 200.753 73.4067 189.261C71.9003 183.089 70.4123 176.913 68.8748 170.747C68.5024 169.252 68.1825 166.643 67.7162 164C82.5858 208.578 96.9252 253.191 107.414 298.841C108.79 304.833 109.962 310.813 110.921 316.783C111.25 315.421 111.573 314.059 111.926 312.701C116.17 296.419 122.536 280.267 130.116 265.043C133.74 257.762 137.902 250.641 142.803 244.006C145.859 239.87 153.065 234.953 155.853 230.717C140.607 256.265 135.102 288.23 126.298 316.005C124.15 322.783 121.988 329.55 119.869 336.329C133.145 312.005 153.742 292.02 182.38 283.36C147.715 304.285 126.923 340.931 112.912 378.41C112.866 378.855 112.811 379.299 112.763 379.745C116.886 372.596 122.08 366.13 129.119 361.601C144.184 351.906 160.896 354.73 175.509 363.046C164.04 356.386 143.312 362.451 133.661 369.221C126.753 374.067 120.849 380.568 115.722 386.911C114.493 388.432 112.817 390.206 111.046 392.099C108.564 406.821 104.518 421.443 98.7905 435.948C99.7357 431.785 99.0523 425.126 99.3145 422.022C99.343 421.686 99.3661 421.35 99.3944 421.015C98.5238 424.191 97.6826 427.331 96.8727 430.42C98.4827 424.525 99.3577 418.371 100.041 412.154C100.217 409.482 100.388 406.81 100.569 404.138C100.512 399.067 100.283 393.977 99.8968 388.878C98.5258 383.922 96.9908 379.248 95.7249 375.361C91.1567 361.334 84.46 347.896 76.2176 335.36C68.6972 323.92 59.6954 313.558 49.3033 304.186C43.7011 299.136 37.838 294.326 32.0576 289.449C29.9673 287.686 26.2312 283.351 23 281.091C46.5326 292.944 70.7541 305.767 87.9212 324.864C85.9086 317.803 83.7225 310.842 81.4101 304.021C69.6787 269.411 54.8659 233.542 34.6463 202.261Z" fill="#CBD5DD"/>
<rect x="479.318" y="34.2612" width="7.03148" height="26.7666" rx="3.0859" fill="#CBD5DD"/>
<rect x="495.725" y="17.1304" width="7.03148" height="43.8972" rx="3.0859" fill="#CBD5DD"/>
<rect x="512.131" y="8.56494" width="7.03148" height="52.4625" rx="3.0859" fill="#CBD5DD"/>
<rect x="528.539" y="17.1304" width="7.03148" height="43.8972" rx="3.0859" fill="#CBD5DD"/>
<rect x="544.945" y="-0.000488281" width="7.03148" height="61.0278" rx="3.0859" fill="#6C60E1"/>
<path fill-rule="evenodd" clip-rule="evenodd" d="M442.045 42.294C440.313 43.9685 437.859 45.02 435.13 45.02C429.886 45.02 425.634 41.1612 425.634 36.4011C425.634 31.6411 429.886 27.7823 435.13 27.7823V11.7759C420.211 11.7759 408 22.8597 408 36.4011C408 49.9426 420.211 61.0264 435.13 61.0264C442.966 61.0264 450.049 58.0172 454.877 53.2301L442.045 42.294Z" fill="#F2F2F2"/>
<path fill-rule="evenodd" clip-rule="evenodd" d="M434.955 11.7759V27.7823C440.165 27.7823 444.389 31.6411 444.389 36.4011H461.909C461.909 22.8597 449.777 11.7759 434.955 11.7759Z" fill="#A8A2DD"/>
<path fill-rule="evenodd" clip-rule="evenodd" d="M444.413 36.4009C444.413 39.1367 443.003 41.5685 440.812 43.1386L451.59 55.6728C457.863 51.1855 461.907 44.2295 461.907 36.4009H444.413Z" fill="#FE7E73"/>
<g opacity="0.6" clip-path="url(#clip0_8916_20755)">
<path fill-rule="evenodd" clip-rule="evenodd" d="M669.667 430.519C678.581 472.483 462.412 499.854 276.351 480.752C90.2891 461.65 4.93288 387.056 93.7183 347.309C182.504 307.562 660.754 388.556 669.667 430.519Z" fill="#CBD5DD"/>
</g>
<rect x="338" y="68.9995" width="221" height="383.495" rx="8.36572" fill="#CBD5DD"/>
<g clip-path="url(#clip1_8916_20755)">
<rect x="357.459" y="104.555" width="182.058" height="68.329" rx="4.18286" fill="white"/>
<g clip-path="url(#clip2_8916_20755)">
<rect x="366.869" y="125.127" width="121.407" height="10.2858" rx="3.13715" fill="#CBD5DD"/>
<rect x="366.869" y="142.27" width="81.4922" height="10.2858" rx="3.13715" fill="#CBD5DD"/>
</g>
<path fill-rule="evenodd" clip-rule="evenodd" d="M502.343 146.04C506.386 146.04 509.663 142.763 509.663 138.72C509.663 134.677 506.386 131.4 502.343 131.4C498.301 131.4 495.023 134.677 495.023 138.72C495.023 142.763 498.301 146.04 502.343 146.04Z" fill="#CBD5DD"/>
<path fill-rule="evenodd" clip-rule="evenodd" d="M502.344 141.857C504.077 141.857 505.481 140.452 505.481 138.719C505.481 136.987 504.077 135.582 502.344 135.582C500.612 135.582 499.207 136.987 499.207 138.719C499.207 140.452 500.612 141.857 502.344 141.857Z" fill="#F2F2F2"/>
</g>
<g clip-path="url(#clip3_8916_20755)">
<rect x="357.459" y="183.286" width="182.058" height="53.4084" rx="4.18286" fill="white"/>
<g clip-path="url(#clip4_8916_20755)">
<rect x="398.244" y="199.286" width="121.407" height="8.00006" rx="3.13715" fill="#CBD5DD"/>
<rect x="398.244" y="212.619" width="81.4922" height="8.00006" rx="3.13715" fill="#CBD5DD"/>
</g>
<path fill-rule="evenodd" clip-rule="evenodd" d="M379.42 221.353C386.35 221.353 391.968 215.735 391.968 208.804C391.968 201.874 386.35 196.256 379.42 196.256C372.489 196.256 366.871 201.874 366.871 208.804C366.871 215.735 372.489 221.353 379.42 221.353Z" fill="#6C60E1"/>
</g>
<g clip-path="url(#clip5_8916_20755)">
<rect x="357.459" y="246.779" width="182.058" height="53.4084" rx="4.18286" fill="white"/>
<g clip-path="url(#clip6_8916_20755)">
<rect x="366.869" y="262.779" width="121.407" height="8.00006" rx="3.13715" fill="#CBD5DD"/>
<rect x="366.869" y="276.113" width="81.4922" height="8.00006" rx="3.13715" fill="#A8A2DD"/>
</g>
<path fill-rule="evenodd" clip-rule="evenodd" d="M502.343 279.618C506.386 279.618 509.663 276.34 509.663 272.298C509.663 268.255 506.386 264.978 502.343 264.978C498.301 264.978 495.023 268.255 495.023 272.298C495.023 276.34 498.301 279.618 502.343 279.618Z" fill="#CBD5DD"/>
<path fill-rule="evenodd" clip-rule="evenodd" d="M502.344 275.434C504.077 275.434 505.481 274.03 505.481 272.297C505.481 270.564 504.077 269.16 502.344 269.16C500.612 269.16 499.207 270.564 499.207 272.297C499.207 274.03 500.612 275.434 502.344 275.434Z" fill="#F2F2F2"/>
</g>
<g clip-path="url(#clip7_8916_20755)">
<rect x="357.459" y="310.272" width="182.058" height="53.4084" rx="4.18286" fill="white"/>
<g clip-path="url(#clip8_8916_20755)">
<rect x="398.244" y="326.272" width="121.407" height="8.00006" rx="3.13715" fill="#CBD5DD"/>
<rect x="398.244" y="339.605" width="81.4922" height="8.00006" rx="3.13715" fill="#CBD5DD"/>
</g>
<path fill-rule="evenodd" clip-rule="evenodd" d="M379.42 348.339C386.35 348.339 391.968 342.721 391.968 335.791C391.968 328.86 386.35 323.242 379.42 323.242C372.489 323.242 366.871 328.86 366.871 335.791C366.871 342.721 372.489 348.339 379.42 348.339Z" fill="#FE7E73"/>
</g>
<path d="M264.464 434.067L248.844 432.207C249.546 426.287 250.342 419.176 250.396 418.01C250.396 418.085 250.396 418.146 250.396 418.193H266.127C266.123 418.662 266.123 420.099 264.464 434.067Z" fill="#EDA59F"/>
<path d="M201.785 435.946L186.055 435.895C186.055 435.895 186.107 419.631 186.107 418.19H201.838C201.838 419.635 201.785 435.946 201.785 435.946Z" fill="#EDA59F"/>
<path d="M242.556 429.089L270.268 428.617C268.966 395.592 268.887 360.949 268.481 327.843C263.072 292.159 260.223 252.976 253.547 217.549L195.774 214.704C195.774 214.704 194.126 238.051 193.557 247.37C190.78 292.584 185.385 376.339 182 428.195L209.617 430.532C214.593 379.689 222.294 305.607 227.03 252.196C232.47 278.2 236.169 305.125 240.899 330.906C241.844 363.178 242.645 396.914 242.556 429.089Z" fill="#8376FF"/>
<path d="M220.908 442.038C221.331 442.036 221.749 441.947 222.136 441.776C222.523 441.605 222.871 441.356 223.157 441.044C223.444 440.733 223.663 440.365 223.802 439.965C223.94 439.565 223.994 439.14 223.961 438.718C223.916 438.132 223.704 437.572 223.351 437.103C222.999 436.634 222.52 436.276 221.97 436.071L203.66 429.93C203.306 429.813 202.93 429.773 202.559 429.815C202.187 429.856 201.829 429.977 201.509 430.17C198.992 431.919 195.981 432.812 192.919 432.72C190.533 432.551 188.244 431.713 186.312 430.303C186.142 430.163 185.936 430.075 185.718 430.048C185.5 430.022 185.278 430.058 185.08 430.152C184.881 430.246 184.714 430.395 184.597 430.581C184.479 430.767 184.417 430.983 184.418 431.203V440.168C184.418 440.432 184.47 440.694 184.571 440.938C184.673 441.182 184.821 441.404 185.008 441.591C185.196 441.777 185.418 441.925 185.662 442.026C185.906 442.126 186.168 442.177 186.432 442.176L220.908 442.038Z" fill="#A8A2DD"/>
<path d="M283.629 442.038C284.052 442.036 284.47 441.947 284.857 441.776C285.244 441.605 285.592 441.356 285.878 441.044C286.165 440.733 286.384 440.365 286.522 439.965C286.661 439.565 286.715 439.14 286.682 438.718C286.637 438.132 286.425 437.572 286.072 437.103C285.719 436.634 285.24 436.276 284.69 436.071L266.381 429.93C266.026 429.813 265.651 429.773 265.279 429.815C264.908 429.856 264.55 429.977 264.23 430.17C261.712 431.919 258.702 432.812 255.639 432.72C253.254 432.551 250.964 431.713 249.032 430.303C248.862 430.164 248.656 430.076 248.438 430.049C248.22 430.022 247.999 430.058 247.8 430.153C247.602 430.247 247.435 430.396 247.317 430.582C247.2 430.768 247.138 430.983 247.139 431.203V440.168C247.139 440.432 247.191 440.694 247.292 440.938C247.393 441.182 247.542 441.404 247.729 441.591C247.916 441.777 248.138 441.925 248.383 442.026C248.627 442.126 248.889 442.177 249.153 442.176L283.629 442.038Z" fill="#A8A2DD"/>
<path d="M215.212 102.392C215.212 102.392 214.271 93.2691 206.264 93.2691C196.756 93.2691 203.249 119.428 207.408 135.425C207.852 137.136 207.93 138.921 207.638 140.664C207.346 142.407 206.69 144.069 205.713 145.54C204.736 147.012 203.46 148.261 201.968 149.206C200.476 150.15 198.802 150.769 197.055 151.021C195.371 151.266 193.655 151.166 192.011 150.727C190.367 150.288 188.829 149.518 187.492 148.465C186.154 147.413 185.044 146.099 184.229 144.603C183.414 143.107 182.912 141.461 182.752 139.765C180.827 119.253 181.275 81.4056 202.827 82.1339C216.83 82.6079 216.83 96.5835 216.83 96.5835L215.212 102.392Z" fill="#0F1011"/>
<path d="M215.213 133.754C215.213 133.754 221.005 130.678 219.712 114.885L231.679 112.664C231.679 112.664 230.335 126.823 236.389 131.319L215.213 133.754Z" fill="#FFCCC6"/>
<g opacity="0.15">
<path opacity="0.15" d="M233.936 128.358L223.994 120.742L231.803 120.661C232.029 123.337 232.752 125.948 233.936 128.358Z" fill="#141226"/>
</g>
<path d="M212.921 108.761C213.749 113.553 216.36 118.09 220.581 119.637C225.183 121.465 230.161 122.138 235.082 121.598C248.184 120.523 245.592 90.6962 239.372 84.9014C233.153 79.1065 214.897 82.7765 212.676 92.4671C211.528 97.4804 212.132 104.197 212.921 108.761Z" fill="#FFCCC6"/>
<path d="M231.664 105.07C232.263 105.07 232.749 104.584 232.749 103.984C232.749 103.383 232.263 102.897 231.664 102.897C231.064 102.897 230.578 103.383 230.578 103.984C230.578 104.584 231.064 105.07 231.664 105.07Z" fill="#0F1011"/>
<path d="M240.224 104.367C240.824 104.367 241.31 103.881 241.31 103.28C241.31 102.68 240.824 102.194 240.224 102.194C239.625 102.194 239.139 102.68 239.139 103.28C239.139 103.881 239.625 104.367 240.224 104.367Z" fill="#0F1011"/>
<path d="M242.107 100.964H242.1L239.224 100.928C239.089 100.927 238.96 100.871 238.866 100.774C238.771 100.677 238.719 100.547 238.721 100.411C238.725 100.277 238.781 100.149 238.877 100.055C238.974 99.9606 239.103 99.9078 239.238 99.9075L242.113 99.9427C242.249 99.9436 242.378 99.9983 242.473 100.095C242.568 100.191 242.621 100.321 242.62 100.457C242.619 100.592 242.565 100.722 242.468 100.817C242.372 100.912 242.242 100.965 242.107 100.964Z" fill="#0F1011"/>
<path d="M229.319 102.014C229.195 102.013 229.074 101.967 228.981 101.884C228.888 101.801 228.829 101.687 228.814 101.563C228.799 101.438 228.831 101.313 228.902 101.211C228.973 101.108 229.08 101.036 229.201 101.006L232.036 100.324C232.101 100.308 232.168 100.305 232.235 100.316C232.301 100.326 232.364 100.35 232.421 100.385C232.479 100.42 232.528 100.466 232.568 100.52C232.607 100.574 232.636 100.636 232.651 100.701C232.667 100.766 232.67 100.834 232.659 100.9C232.649 100.967 232.625 101.03 232.59 101.087C232.555 101.145 232.51 101.194 232.455 101.234C232.401 101.273 232.34 101.302 232.275 101.318L229.44 102C229.4 102.009 229.36 102.014 229.319 102.014Z" fill="#0F1011"/>
<path d="M232.166 112.542C232.166 112.542 236.173 112.965 238.983 111.983C238.983 111.983 238.96 114.625 235.789 114.886C232.618 115.146 232.166 112.542 232.166 112.542Z" fill="white"/>
<path d="M221.736 96.3461C222.878 118.208 219.881 120.465 219.881 120.465C219.881 120.465 208.973 113.895 207.548 100.766C206.214 88.4594 215.271 81.1899 221.391 79.8226C244.646 74.6158 247.213 95.8151 247.213 95.8151C235.573 98.8108 219.218 96.7834 219.218 96.7834" fill="#0F1011"/>
<path d="M226.016 106.643C226.074 107.25 226.011 107.864 225.831 108.447C225.65 109.03 225.356 109.572 224.964 110.04C224.573 110.508 224.093 110.894 223.551 111.174C223.01 111.455 222.418 111.625 221.81 111.675C221.202 111.725 220.591 111.653 220.011 111.464C219.431 111.275 218.895 110.972 218.433 110.574C217.971 110.175 217.592 109.689 217.32 109.143C217.047 108.597 216.885 108.002 216.844 107.393C216.784 106.788 216.847 106.177 217.027 105.596C217.208 105.016 217.504 104.478 217.897 104.014C218.29 103.551 218.772 103.171 219.314 102.898C219.856 102.625 220.448 102.464 221.054 102.424C224.334 102.322 225.809 104.107 226.016 106.643Z" fill="#FFCCC6"/>
<g opacity="0.15">
<path opacity="0.15" d="M236.481 110.011C236.392 110.01 236.306 109.978 236.238 109.919C236.171 109.861 236.127 109.78 236.113 109.692C236.1 109.603 236.119 109.513 236.166 109.437C236.214 109.361 236.287 109.305 236.372 109.278L238.578 108.599L237.034 105.156C236.995 105.066 236.992 104.963 237.028 104.871C237.064 104.779 237.134 104.705 237.224 104.665C237.314 104.624 237.416 104.621 237.508 104.655C237.6 104.69 237.676 104.759 237.717 104.849L239.435 108.679C239.457 108.728 239.468 108.78 239.468 108.833C239.468 108.886 239.457 108.939 239.435 108.987C239.413 109.036 239.381 109.079 239.341 109.114C239.302 109.149 239.255 109.176 239.204 109.191L236.59 109.995C236.555 110.006 236.518 110.011 236.481 110.011Z" fill="#141226"/>
</g>
<path d="M208.025 95.3096C207.759 95.3093 207.496 95.2523 207.254 95.1425C207.011 95.0328 206.795 94.8727 206.619 94.6729C206.443 94.4731 206.312 94.2382 206.234 93.9837C206.155 93.7293 206.132 93.461 206.165 93.1968C206.704 89.7414 208.388 86.5679 210.946 84.1872C211.322 83.8731 211.806 83.7189 212.294 83.7576C212.782 83.7963 213.236 84.0248 213.557 84.3942C213.879 84.7636 214.044 85.2446 214.016 85.734C213.988 86.2234 213.77 86.6824 213.408 87.0126C211.544 88.7919 210.306 91.1283 209.88 93.6716C209.822 94.1236 209.602 94.5393 209.261 94.8408C208.919 95.1422 208.48 95.3089 208.025 95.3096Z" fill="#8376FF"/>
<path d="M294.832 133.26C294.832 133.26 294.944 124.252 301.375 124.721C305.432 125.016 324.71 124.121 324.997 125.878C325.707 130.228 308.074 131.292 306.474 135.346L294.832 133.26Z" fill="#FFCCC6"/>
<path d="M299.098 125.009C299.098 125.009 308.048 122.084 310.249 122.609C312.196 123.072 308.136 126.246 308.136 126.246L299.098 125.009Z" fill="#FFCCC6"/>
<path d="M257.157 215.767C254.019 222.99 196.236 225.991 195.412 213.285C194.888 205.199 201.945 198.141 201.945 182.383C201.945 166.624 187.433 150.303 199.231 138.49C202.655 135.062 204.767 129.047 211.973 129.04C212.513 133.247 238.026 133.262 238.221 129.137C239.195 129.152 239.952 129.167 240.423 129.19C265.278 130.262 252.015 158.584 251.775 179.39C251.483 203.737 260.394 208.327 257.157 215.767Z" fill="white"/>
<path d="M238.221 129.137C238.026 133.262 235.786 139.33 228.872 139.788C219.658 140.395 212.512 133.247 211.973 129.04H211.995C221.067 129.04 232.932 129.055 238.221 129.137Z" fill="#FFCCC6"/>
<path d="M294.076 127.998L278.04 157.976L253.35 133.858C251.121 131.026 247.61 129.26 242.24 129.024C241.832 129.007 237.62 128.874 237.371 129.125C235.865 130.632 235.035 157.194 235.784 171.952C236.603 187.928 235.761 207.88 236.522 219.35C236.571 220.103 236.776 220.837 237.123 221.506C237.47 222.176 237.952 222.766 238.539 223.239C239.126 223.712 239.804 224.058 240.531 224.255C241.259 224.453 242.019 224.496 242.764 224.384C250.84 223.148 257.139 221.042 258.057 218.929C261.292 211.489 253.825 203.732 254.117 179.385C254.192 172.833 255.303 165.509 256.078 158.524L274.544 176.562C275.417 177.415 276.475 178.052 277.637 178.425C278.798 178.797 280.03 178.894 281.235 178.708C282.44 178.522 283.586 178.058 284.581 177.352C285.576 176.647 286.394 175.719 286.969 174.643L307.944 135.431L294.076 127.998Z" fill="#2F3235"/>
<path d="M270.374 184.918L228.626 186.193L219.68 167.45C218.237 153.09 216.325 140.852 215.448 134.433C214.324 128.487 214.924 128.908 212.105 128.906C204.899 128.914 198.856 131.258 195.433 134.686C183.635 146.499 198.115 166.631 198.115 182.381C198.115 198.132 190.999 205.198 191.523 213.283C191.846 218.333 194.424 224.722 213.864 226.091C215.438 226.202 216.994 225.703 218.212 224.698C219.429 223.694 220.215 222.259 220.407 220.691C221.101 214.627 221.464 208.53 221.496 202.427C222.166 202.607 222.857 202.7 223.551 202.704C223.634 202.704 223.718 202.704 223.801 202.699L270.872 201.262L270.374 184.918Z" fill="#2F3235"/>
<path d="M210.114 146.844L211.971 140.746L208.391 138.399L211.335 128.926C213.135 128.852 214.939 128.89 216.735 129.039C218.503 134.957 220.406 160.368 221.095 170.291L210.114 146.844Z" fill="#2F3235"/>
<path d="M241.127 140.746L243.898 149.844L235.89 174.281C235.89 174.281 234.295 137.363 236.415 129.09C237.162 128.99 237.914 128.933 238.668 128.922C240.207 128.9 241.788 129.004 241.788 129.004L244.707 138.4L241.127 140.746Z" fill="#2F3235"/>
<g opacity="0.24">
<path opacity="0.24" d="M210.114 146.844L211.971 140.746L208.391 138.399L211.335 128.926C213.135 128.852 214.939 128.89 216.735 129.039C218.503 134.957 220.406 160.368 221.095 170.291L210.114 146.844Z" fill="white"/>
</g>
<g opacity="0.24">
<path opacity="0.24" d="M241.127 140.746L243.898 149.844L235.89 174.281C235.89 174.281 234.295 137.363 236.415 129.09C237.162 128.99 237.914 128.933 238.668 128.922C240.207 128.9 241.788 129.004 241.788 129.004L244.707 138.4L241.127 140.746Z" fill="white"/>
</g>
<path d="M267.016 145.926L257.92 184.157C257.779 184.752 257.774 185.371 257.906 185.968C258.037 186.565 258.302 187.124 258.681 187.604C259.059 188.084 259.541 188.472 260.091 188.739C260.64 189.006 261.243 189.144 261.854 189.145H315.476C316.362 189.144 317.224 188.853 317.928 188.315C318.633 187.777 319.141 187.022 319.376 186.167L329.856 147.936C330.021 147.335 330.045 146.705 329.926 146.093C329.807 145.481 329.549 144.905 329.172 144.41C328.794 143.915 328.308 143.513 327.75 143.236C327.193 142.96 326.579 142.816 325.957 142.816H270.95C270.04 142.816 269.158 143.123 268.444 143.687C267.73 144.252 267.227 145.04 267.016 145.926Z" fill="#FE7E73"/>
<path d="M303.641 184.386H238.831C237.519 184.386 236.455 185.451 236.455 186.765C236.455 188.079 237.519 189.145 238.831 189.145H303.641C304.953 189.145 306.017 188.079 306.017 186.765C306.017 185.451 304.953 184.386 303.641 184.386Z" fill="#FE7E73"/>
<path d="M296.084 171.952C299.586 171.952 302.426 169.11 302.426 165.603C302.426 162.096 299.586 159.253 296.084 159.253C292.581 159.253 289.742 162.096 289.742 165.603C289.742 169.11 292.581 171.952 296.084 171.952Z" fill="white"/>
<path d="M283.872 194.163C280.509 196.241 275.303 197.223 270.763 197.583L270.508 189.303C272.643 189.243 275.924 189.018 279.138 189.145C280.59 187.96 281.426 187.608 282.916 186.115C284.503 184.527 288.666 183.573 289.453 186.115C290.239 188.658 286.824 192.333 283.872 194.163Z" fill="#FFCCC6"/>
<defs>
<clipPath id="clip0_8916_20755">
<rect width="670" height="164.685" fill="white" transform="translate(0 329.45)"/>
</clipPath>
<clipPath id="clip1_8916_20755">
<rect width="182.082" height="68.572" fill="white" transform="translate(357.459 104.555)"/>
</clipPath>
<clipPath id="clip2_8916_20755">
<rect width="121.407" height="27.4288" fill="white" transform="translate(366.871 125.127)"/>
</clipPath>
<clipPath id="clip3_8916_20755">
<rect width="182.082" height="53.3337" fill="white" transform="translate(357.459 183.286)"/>
</clipPath>
<clipPath id="clip4_8916_20755">
<rect width="121.407" height="21.3335" fill="white" transform="translate(398.242 199.286)"/>
</clipPath>
<clipPath id="clip5_8916_20755">
<rect width="182.082" height="53.3337" fill="white" transform="translate(357.459 246.778)"/>
</clipPath>
<clipPath id="clip6_8916_20755">
<rect width="121.407" height="21.3335" fill="white" transform="translate(366.871 262.779)"/>
</clipPath>
<clipPath id="clip7_8916_20755">
<rect width="182.082" height="53.3337" fill="white" transform="translate(357.459 310.272)"/>
</clipPath>
<clipPath id="clip8_8916_20755">
<rect width="121.407" height="21.3335" fill="white" transform="translate(398.242 326.272)"/>
</clipPath>
</defs>
</svg>
